<svg width="16" height="22" viewBox="0 0 16 22" fill="none" xmlns="http://www.w3.org/2000/svg">
<path d="M8 2C10.1217 2 12.1566 2.84285 13.6569 4.34315C15.1571 5.84344 16 7.87827 16 10C16 12.1217 15.1571 14.1566 13.6569 15.6569C12.1566 17.1571 10.1217 18 8 18C5.87827 18 3.84344 17.1571 2.34315 15.6569C0.842855 14.1566 0 12.1217 0 10C0 7.87827 0.842855 5.84344 2.34315 4.34315C3.84344 2.84285 5.87827 2 8 2ZM1.5 10C1.5 11.7239 2.18482 13.3772 3.40381 14.5962C4.62279 15.8152 6.27609 16.5 8 16.5C9.72391 16.5 11.3772 15.8152 12.5962 14.5962C13.8152 13.3772 14.5 11.7239 14.5 10C14.5 8.27609 13.8152 6.62279 12.5962 5.40381C11.3772 4.18482 9.72391 3.5 8 3.5C6.27609 3.5 4.62279 4.18482 3.40381 5.40381C2.18482 6.62279 1.5 8.27609 1.5 10ZM6.379 7.227L10.643 9.786C10.6798 9.80825 10.7103 9.83965 10.7315 9.87714C10.7526 9.91463 10.7638 9.95695 10.7638 10C10.7638 10.043 10.7526 10.0854 10.7315 10.1229C10.7103 10.1604 10.6798 10.1917 10.643 10.214L6.379 12.773C6.34108 12.7958 6.29778 12.8082 6.25352 12.8088C6.20926 12.8095 6.16563 12.7983 6.12708 12.7765C6.08854 12.7548 6.05646 12.7232 6.03413 12.685C6.0118 12.6467 6.00003 12.6033 6 12.559V7.442C5.99985 7.39765 6.0115 7.35406 6.03375 7.3157C6.05601 7.27733 6.08807 7.24558 6.12664 7.2237C6.16522 7.20181 6.20892 7.19059 6.25327 7.19117C6.29762 7.19175 6.34101 7.20411 6.379 7.227Z" fill="#EC6500"/>
</svg>
