<svg xmlns="http://www.w3.org/2000/svg" width="55" height="55" viewBox="0 0 55 55" fill="none">
  <path d="M35.5207 32.0832H33.7103L33.0686 31.4645C34.5008 29.8006 35.5475 27.8408 36.1339 25.7252C36.7202 23.6097 36.8317 21.3906 36.4603 19.227C35.3832 12.8561 30.0665 7.76863 23.6499 6.98946C21.394 6.70407 19.1027 6.93852 16.9514 7.67488C14.8001 8.41123 12.8457 9.62997 11.2378 11.2378C9.62997 12.8457 8.41123 14.8001 7.67488 16.9514C6.93852 19.1027 6.70407 21.394 6.98946 23.6499C7.76863 30.0665 12.8561 35.3832 19.227 36.4603C21.3906 36.8317 23.6097 36.7202 25.7252 36.1339C27.8408 35.5475 29.8006 34.5008 31.4645 33.0686L32.0832 33.7103V35.5207L41.8228 45.2603C42.7624 46.1999 44.2978 46.1999 45.2374 45.2603C46.177 44.3207 46.177 42.7853 45.2374 41.8457L35.5207 32.0832ZM21.7707 32.0832C16.0645 32.0832 11.4582 27.477 11.4582 21.7707C11.4582 16.0645 16.0645 11.4582 21.7707 11.4582C27.477 11.4582 32.0832 16.0645 32.0832 21.7707C32.0832 27.477 27.477 32.0832 21.7707 32.0832Z" fill="#262827"/>
</svg>