<svg width="49" height="51" viewBox="0 0 49 51" fill="none" xmlns="http://www.w3.org/2000/svg">
<path d="M16.1973 0.0456706C0.733559 -1.13284 0.12408 20.8807 15.5067 21.7223C30.888 22.5627 30.2231 1.11447 16.1973 0.0456706ZM15.5647 18.1236C6.52813 19.0491 5.14939 6.28677 12.3639 4.08205C22.6439 0.940206 28.7851 16.9541 15.5647 18.1236Z" fill="#F8F3EA"/>
<path d="M48.9984 29.8365C48.8979 23.678 43.8456 18.7342 37.7327 18.8142C31.741 18.8929 26.7531 24.2614 26.8523 30.5258C26.9515 36.7423 31.8789 41.5132 38.0884 41.4061C44.1509 41.3015 49.1002 36.053 48.9984 29.8365ZM37.4815 37.8073C33.0605 37.7866 29.4075 34.0536 29.3881 29.6338C29.3675 24.7313 33.8014 22.0593 37.4402 22.1264C41.9282 22.1497 45.4936 25.6607 45.4743 30.0378C45.4549 34.3982 41.9269 37.8279 37.4815 37.8073Z" fill="#F8F3EA"/>
<path d="M4.63147 48.0202C9.57173 51.6874 16.5621 50.6793 20.2177 45.7703C23.8011 40.9594 22.5834 33.727 17.5607 29.9939C12.5753 26.2906 5.7976 27.3052 2.10464 32.3058C-1.5007 37.189 -0.355183 44.3168 4.63147 48.0189V48.0202ZM5.3247 34.0148C8.03064 30.5129 13.2106 29.8804 16.7244 32.5536C20.621 35.5199 20.0398 40.6703 17.772 43.523C15.0223 47.0766 10.0717 47.7749 6.61582 45.0965C3.17284 42.4284 2.60331 37.5362 5.3247 34.0148Z" fill="#F8F3EA"/>
</svg>
