<svg width="45" height="45" viewBox="0 0 45 45" fill="none" xmlns="http://www.w3.org/2000/svg">
<path d="M22.766 44.8624C-8.67478 44.8624 -6.56125 0.264404 23.0103 0.264404C52.5641 0.265383 52.1754 44.3701 22.766 44.8624ZM40.1945 28.8524C34.4968 29.5854 34.0982 24.525 32.6839 25.255C31.4704 26.036 30.4734 27.1369 29.2935 27.9423C27.899 28.7907 26.2988 28.503 25.1862 27.3131C22.7492 24.3205 24.6986 19.8473 27.273 17.5348C28.3075 16.5729 28.5449 15.0854 29.0156 13.8132C29.9977 10.8813 32.3466 9.03467 35.2494 8.10303C33.8232 6.14974 27.179 3.03484 25.2237 3.40377C28.7496 8.37704 27.0683 14.5334 22.5583 17.0044C21.2449 17.5417 19.6091 17.9586 19.7179 19.6662C19.7218 21.2663 20.6278 22.7136 21.2044 24.1698C25.2287 31.6923 17.2088 38.66 13.3526 32.9557C12.6741 31.3596 11.8216 29.9426 9.97905 29.5678C5.46617 27.8572 8.93564 23.2949 6.25837 21.3396C5.32771 20.6703 4.38221 20.0215 3.47627 19.3873C0.147246 41.7905 33.1458 48.8551 40.1945 28.8524ZM23.8737 8.97106C23.9618 6.37677 22.8818 5.16135 21.419 3.37441C21.1668 3.06615 20.5961 3.08279 20.2619 3.11802C12.6919 3.90677 7.80619 7.9582 4.73826 14.7282C4.05979 16.2245 4.56815 17.5984 5.98738 18.4342C8.24135 19.4871 10.2777 21.1253 10.2431 23.8077C10.0038 28.4933 13.6701 25.7326 15.5779 30.4505C16.2633 33.1172 18.8505 31.2255 19.0592 29.3662C19.5587 26.5351 17.461 24.158 16.8458 21.5099C15.928 18.6964 17.1178 15.9749 20.882 14.5158C23.1221 13.6478 23.7857 11.5653 23.8737 8.97106ZM41.5277 22.0863C41.6978 19.3687 41.0984 14.6479 37.0029 9.7833C36.7527 9.4858 36.5579 9.44274 36.2275 9.65119C34.2169 10.7022 32.2458 11.9401 31.5861 14.232C30.9136 16.2362 30.4715 18.3813 28.6428 19.7044C25.8824 21.7008 25.922 27.7153 28.4232 25.2257C31.8699 21.7947 33.6581 21.2741 37.3827 24.9478C39.2322 26.7719 41.3576 24.8039 41.5277 22.0863Z" fill="#F8F3EA"/>
</svg>
