<svg width="27" height="27" viewBox="0 0 27 27" fill="none" xmlns="http://www.w3.org/2000/svg">
<g id="fxemoji:rocket" clip-path="url(#clip0_2574_13008)">
<path id="Vector" d="M10.8028 16.3345L10.838 16.4267C10.849 16.4564 10.8656 16.4963 10.8797 16.5382L10.9309 16.6856C10.951 16.742 10.9673 16.7989 10.9886 16.8649C11.009 16.93 11.0331 17.0028 11.052 17.0744L11.1179 17.3101C11.1396 17.3923 11.1579 17.4748 11.1798 17.5646C11.2741 17.9526 11.341 18.3467 11.3801 18.7441C11.4026 18.9555 11.4121 19.1663 11.4168 19.3831C11.4172 19.5955 11.412 19.8133 11.3922 20.0261C11.3726 20.2377 11.3405 20.448 11.2959 20.6558C11.2512 20.8597 11.1921 21.0602 11.1192 21.2558C10.9738 21.6436 10.7699 22.002 10.505 22.3188C10.374 22.4786 10.2208 22.6212 10.0691 22.7688C9.91523 22.9142 9.75776 23.0597 9.59339 23.2007C9.26101 23.4892 8.91373 23.76 8.55299 24.012C8.1887 24.2682 7.80553 24.5055 7.4125 24.7233C7.21562 24.8313 7.0161 24.9344 6.81413 25.0326C6.61281 25.1292 6.40916 25.2209 6.20336 25.3077C5.79287 25.4789 5.37928 25.6276 4.96921 25.7507C4.57334 25.8703 4.17181 25.9703 3.76608 26.0503C2.99015 26.205 2.27797 26.2684 1.74862 26.282L1.55936 26.2853L1.38939 26.2851L1.11423 26.2778L0.93783 26.2674L0.875498 26.2621L0.870119 26.1997L0.859783 26.0233L0.852453 25.7482L0.852295 25.5782L0.855564 25.3889C0.869117 24.8596 0.932504 24.1474 1.08728 23.3715C1.16732 22.9658 1.26728 22.5642 1.38681 22.1683C1.50995 21.7583 1.6586 21.3446 1.82983 20.9342C1.91656 20.7284 2.0083 20.5248 2.10495 20.3234C2.20303 20.1222 2.30587 19.9221 2.41423 19.725C2.63197 19.332 2.86928 18.9489 3.12546 18.5846C3.37752 18.2238 3.64833 17.8765 3.93678 17.5442C4.07779 17.3798 4.22323 17.2223 4.36873 17.0684C4.51633 16.9167 4.65887 16.7636 4.81871 16.6325C5.13554 16.3677 5.49387 16.1637 5.88168 16.0184C6.07731 15.9454 6.27782 15.8864 6.48174 15.8416C6.68952 15.797 6.89978 15.7649 7.11139 15.7454C7.32417 15.7255 7.54207 15.7204 7.75443 15.7207C7.97117 15.7254 8.1819 15.735 8.39342 15.7574C8.79076 15.7965 9.18488 15.8635 9.57287 15.9577C9.66268 15.9796 9.74516 15.9979 9.82737 16.0197L10.0631 16.0856C10.1347 16.1045 10.2076 16.1286 10.2726 16.1489C10.3386 16.1702 10.3955 16.1866 10.4519 16.2066L10.5993 16.2578C10.6412 16.272 10.6811 16.2886 10.7108 16.2995C10.7714 16.3225 10.8028 16.3345 10.8028 16.3345Z" fill="#FFB636"/>
<path id="Vector_2" d="M4.05317 9.58454L0.229191 13.4085C-0.0351139 13.6728 0.152093 14.1248 0.525874 14.1248H3.73977C3.85104 14.1248 3.95778 14.169 4.03645 14.2476L6.12326 16.3344L9.51255 9.46167H4.34986C4.29476 9.46165 4.24019 9.4725 4.18929 9.49358C4.13838 9.51466 4.09213 9.54557 4.05317 9.58454ZM11.3991 20.7031L13.4859 22.7899C13.5646 22.8686 13.6088 22.9753 13.6088 23.0865V26.3004C13.6088 26.6742 14.0607 26.8614 14.325 26.5971L18.149 22.7731C18.2277 22.6945 18.2719 22.5877 18.2719 22.4765V17.3138L11.3991 20.7031Z" fill="#FF473E"/>
<path id="Vector_3" d="M26.665 0.942538L26.6691 0.97613C26.6715 0.998226 26.6764 1.03229 26.6799 1.07432C26.6868 1.15833 26.7024 1.28848 26.7099 1.4452C26.7337 1.76762 26.7497 2.22151 26.7385 2.76757C26.7276 3.31395 26.6891 3.95219 26.6057 4.64502C26.587 4.82041 26.5604 4.99407 26.5346 5.17452C26.5107 5.35683 26.4767 5.53491 26.4457 5.72154C26.3819 6.09316 26.3022 6.47132 26.2103 6.85707C26.0188 7.65766 25.7756 8.445 25.4823 9.21414C25.1797 10.0063 24.8166 10.7975 24.391 11.5661C23.9647 12.3341 23.4798 13.0832 22.9379 13.7952C22.3967 14.5079 21.7991 15.1842 21.158 15.8169C20.517 16.4497 19.8332 17.0397 19.1147 17.5751C18.935 17.7089 18.7543 17.8405 18.5695 17.9664C18.3868 18.0943 18.2 18.2166 18.0139 18.3378C17.6399 18.5784 17.258 18.8035 16.8722 19.0148C16.1125 19.4303 15.3255 19.7937 14.5166 20.1025C13.7479 20.3951 12.9616 20.6392 12.1623 20.8333C11.7774 20.926 11.4012 21.0077 11.0303 21.072L10.7571 21.1212C10.6666 21.1367 10.5748 21.1495 10.4857 21.1635L10.2213 21.2038L9.95895 21.2372C9.26987 21.3244 8.63585 21.3671 8.09348 21.382C7.55168 21.3975 7.10038 21.3841 6.78166 21.3639C6.62651 21.3581 6.49721 21.3432 6.4142 21.3373C6.37259 21.3343 6.33879 21.3297 6.31696 21.3275L6.28368 21.3238C6.03151 21.2957 5.84024 21.0955 5.81335 20.8535L5.80966 20.8202C5.80744 20.7984 5.80285 20.7646 5.79979 20.723C5.79394 20.64 5.77907 20.5107 5.77322 20.3555C5.75307 20.0368 5.73968 19.5856 5.75513 19.0437C5.77005 18.5013 5.81277 17.8673 5.89994 17.1782L5.93332 16.9159L5.97366 16.6515C5.98763 16.5624 6.00045 16.4706 6.0159 16.3801L6.0651 16.1069C6.12949 15.736 6.21112 15.3598 6.30388 14.9749C6.4979 14.1756 6.74198 13.3893 7.03467 12.6206C7.34344 11.8117 7.70684 11.0247 8.12237 10.265C8.33368 9.87922 8.5588 9.49727 8.79932 9.12327C8.92051 8.93717 9.04285 8.75044 9.17079 8.56767C9.29666 8.38283 9.42824 8.20216 9.56202 8.0225C10.0975 7.30404 10.6875 6.62018 11.3202 5.97915C11.9529 5.33805 12.6293 4.74052 13.342 4.19931C14.054 3.65741 14.8031 3.17246 15.5711 2.74621C16.3397 2.32059 17.1309 1.95746 17.923 1.65487C18.6921 1.36155 19.4795 1.11837 20.2801 0.926876C20.6658 0.83496 21.044 0.755331 21.4156 0.691523C21.6022 0.660462 21.7803 0.626448 21.9626 0.60256C22.1431 0.576825 22.3167 0.550142 22.4921 0.531527C23.1849 0.448101 23.8232 0.409605 24.3696 0.398689C24.9156 0.387456 25.3695 0.403435 25.6919 0.427323C25.8487 0.434759 25.9788 0.450474 26.0628 0.457329C26.1049 0.46081 26.1389 0.465609 26.161 0.46814L26.1946 0.4722C26.4461 0.502523 26.636 0.701806 26.665 0.942538Z" fill="#ADBBBC"/>
<path id="Vector_4" d="M12.82 14.3172L12.8508 14.4003C12.8679 14.4521 12.891 14.5265 12.9069 14.6094C12.9447 14.781 12.9572 14.99 12.889 15.1717C12.8553 15.263 12.7931 15.3392 12.7345 15.4313L12.5397 15.7242L12.0723 16.4262C11.8866 16.7013 11.6994 16.9753 11.5105 17.2482C11.3001 17.5518 11.0871 17.8536 10.8717 18.1537L10.5284 18.6262L10.1717 19.1053C9.92966 19.4257 9.68202 19.7494 9.43021 20.0689C9.18085 20.3873 8.92835 20.7032 8.67273 21.0166C8.42061 21.3269 8.17339 21.6331 7.93007 21.9254L7.57312 22.3574C7.45488 22.497 7.34736 22.6416 7.22249 22.7623C7.0984 22.8837 6.95523 22.9793 6.7907 23.0458C6.62759 23.1136 6.44903 23.1583 6.27638 23.1999C5.95092 23.2771 5.62191 23.3383 5.29051 23.3835C5.13737 23.4045 4.99092 23.4209 4.8526 23.4333C4.71502 23.4464 4.58192 23.4516 4.46527 23.46C4.34772 23.4674 4.2355 23.4668 4.14174 23.4701C4.04656 23.472 3.96086 23.4689 3.89379 23.4688C3.82528 23.4673 3.77055 23.4639 3.73474 23.4626L3.67852 23.4588L3.67473 23.4026C3.67351 23.3668 3.67009 23.312 3.66856 23.2436C3.66845 23.1765 3.66534 23.0909 3.66724 22.9956C3.67051 22.9018 3.66993 22.7896 3.67736 22.6721C3.6857 22.5555 3.69097 22.4224 3.70405 22.2848C3.71639 22.1465 3.73284 22 3.75383 21.8469C3.79903 21.5155 3.86031 21.1864 3.93745 20.861C3.97911 20.6884 4.02372 20.5098 4.09159 20.3467C4.15804 20.1821 4.2537 20.039 4.37509 19.9149C4.49575 19.7901 4.6404 19.6825 4.77999 19.5643L5.21199 19.2074C5.50429 18.964 5.81052 18.7168 6.12086 18.4647C6.43068 18.2121 6.74803 17.9581 7.0685 17.7072C7.38802 17.4554 7.71175 17.2078 8.03217 16.9658L8.51126 16.6091L8.98371 16.2658C9.28379 16.0503 9.58566 15.8374 9.88926 15.6269C10.1793 15.4259 10.4556 15.238 10.7112 15.0652L11.4132 14.5977L11.7062 14.4029C11.7982 14.3443 11.8743 14.2821 11.9657 14.2485C12.1475 14.1802 12.3564 14.1927 12.528 14.2305C12.6109 14.2464 12.6853 14.2695 12.7371 14.2867L12.82 14.3172Z" fill="#FF473E"/>
<path id="Vector_5" d="M19.0958 10.898C19.0958 12.4757 17.8168 13.7546 16.2392 13.7546C14.6615 13.7546 13.3826 12.4757 13.3826 10.898C13.3826 9.32037 14.6615 8.0414 16.2392 8.0414C17.8168 8.0414 19.0958 9.32037 19.0958 10.898ZM20.5317 4.78711C19.5274 4.78711 18.7133 5.60122 18.7133 6.6055C18.7133 7.60977 19.5274 8.42388 20.5317 8.42388C21.536 8.42388 22.3501 7.60977 22.3501 6.6055C22.3501 5.60122 21.536 4.78711 20.5317 4.78711Z" fill="#2B3B47"/>
</g>
<defs>
<clipPath id="clip0_2574_13008">
<rect width="27" height="27" fill="white"/>
</clipPath>
</defs>
</svg>
