<svg width="40" height="47" viewBox="0 0 40 47" fill="none" xmlns="http://www.w3.org/2000/svg">
<path d="M16.9826 46.0355C11.9021 46.0355 8.29918 46.1537 3.75179 44.6559C-4.89001 41.8098 3.61017 25.4375 7.24121 20.6578C7.62233 19.8289 9.55916 17.8409 9.55916 17.8409C1.85557 1.36212 26.7147 -8.24757 30.9809 9.52314C31.4526 12.2867 30.883 14.8799 29.6876 17.3601C29.4794 17.7929 29.5408 18.004 29.899 18.305C32.8563 20.7916 35.3086 23.6628 36.9434 27.2301C39.0469 31.8834 43.1226 41.4053 35.8719 43.7204C29.6085 45.7209 24.0198 46.0355 16.9826 46.0355ZM11.6657 20.7006C8.19297 26.0229 3.04787 33.5473 3.89341 40.128C4.51403 42.532 12.329 41.9007 19.3818 41.9007C26.4346 41.9007 35.7709 40.9046 36.0823 38.9845C37.1923 32.1468 32.394 25.3811 27.2156 20.8794C22.9441 25.0215 15.9569 24.686 11.6657 20.7006ZM19.3808 3.67099C12.1562 2.99369 8.70529 13.3016 14.0753 17.6842C25.6828 27.158 34.2652 5.44054 19.3808 3.67099Z" fill="#F8F3EA"/>
</svg>
