<svg width="44" height="52" viewBox="0 0 44 52" fill="none" xmlns="http://www.w3.org/2000/svg">
<path d="M5.68182 2V4.28061H0V5.42097V11.1228H31.8182V4.28061H26.1364V2H23.8636V4.28061H17.0455V2H14.7727V4.28061H7.95454V2H5.68182ZM0 13.4036V33.9298H31.8182V13.4036H0ZM10.2273 16.8245H12.5V19.1053H10.2273V16.8245ZM14.7727 16.8245H17.0455V19.1053H14.7727V16.8245ZM19.3182 16.8245H21.5909V19.1053H19.3182V16.8245ZM23.8636 16.8245H26.1364V19.1053H23.8636V16.8245ZM5.68182 21.3859H7.95454V23.6666H5.68182V21.3859ZM10.2273 21.3859H12.5V23.6666H10.2273V21.3859ZM14.7727 21.3859H17.0455V23.6666H14.7727V21.3859ZM19.3182 21.3859H21.5909V23.6666H19.3182V21.3859ZM23.8636 21.3859H26.1364V23.6666H23.8636V21.3859ZM5.68182 25.9473H7.95454V28.2281H5.68182V25.9473ZM10.2273 25.9473H12.5V28.2281H10.2273V25.9473ZM14.7727 25.9473H17.0455V28.2281H14.7727V25.9473Z" fill="#37557F"/>
</svg>
