<svg width="46" height="47" viewBox="0 0 46 47" fill="none" xmlns="http://www.w3.org/2000/svg">
<path d="M29.7084 27.3333H28.1942L27.6576 26.8158C28.8554 25.4243 29.7308 23.7851 30.2212 22.0158C30.7116 20.2464 30.8048 18.3905 30.4942 16.5808C29.5934 11.2525 25.1467 6.9975 19.7801 6.34583C17.8933 6.10714 15.977 6.30323 14.1777 6.91908C12.3784 7.53494 10.7438 8.55425 9.39908 9.89901C8.05433 11.2438 7.03502 12.8783 6.41916 14.6776C5.8033 16.4769 5.60722 18.3933 5.84591 20.28C6.49757 25.6467 10.7526 30.0933 16.0809 30.9942C17.8905 31.3048 19.7464 31.2115 21.5158 30.7211C23.2852 30.2307 24.9243 29.3553 26.3159 28.1575L26.8334 28.6942V30.2083L34.9792 38.3542C35.7651 39.14 37.0492 39.14 37.8351 38.3542C38.6209 37.5683 38.6209 36.2842 37.8351 35.4983L29.7084 27.3333ZM18.2084 27.3333C13.4359 27.3333 9.58341 23.4808 9.58341 18.7083C9.58341 13.9358 13.4359 10.0833 18.2084 10.0833C22.9809 10.0833 26.8334 13.9358 26.8334 18.7083C26.8334 23.4808 22.9809 27.3333 18.2084 27.3333Z" fill="#262827"/>
</svg>
