<svg width="35" height="36" viewBox="0 0 35 36" fill="none" xmlns="http://www.w3.org/2000/svg">
<g id="Share Icons">
<circle id="Ellipse 13" cx="17.5" cy="18.4221" r="17.5" fill="#007BB6"/>
<path id="Vector" d="M13.5814 24.922H10.2643V14.9073H13.5814V24.922ZM11.9211 13.5412C10.8604 13.5412 10 12.7175 10 11.723C10 11.2454 10.2024 10.7873 10.5627 10.4495C10.9229 10.1117 11.4116 9.922 11.9211 9.922C12.4306 9.922 12.9192 10.1117 13.2795 10.4495C13.6397 10.7873 13.8421 11.2454 13.8421 11.723C13.8421 12.7175 12.9814 13.5412 11.9211 13.5412ZM25.9964 24.922H22.6864V20.0469C22.6864 18.885 22.6614 17.395 20.9618 17.395C19.2371 17.395 18.9729 18.6573 18.9729 19.9632V24.922H15.6593V14.9073H18.8407V16.2734H18.8871C19.33 15.4865 20.4118 14.6561 22.0257 14.6561C25.3829 14.6561 26 16.7287 26 19.4208V24.922H25.9964Z" fill="white"/>
</g>
</svg>
