<svg width="347" height="101" viewBox="0 0 347 101" fill="none" xmlns="http://www.w3.org/2000/svg">
<path d="M28.3183 75.9081C43.854 75.9081 56.4481 63.3582 56.4481 47.8771C56.4481 32.396 43.854 19.8461 28.3183 19.8461C12.7826 19.8461 0.188477 32.396 0.188477 47.8771C0.188477 63.3582 12.7826 75.9081 28.3183 75.9081Z" fill="#93E4E8"/>
<path d="M111.432 75.9081C126.968 75.9081 139.562 63.3582 139.562 47.8771C139.562 32.396 126.968 19.8461 111.432 19.8461C95.8966 19.8461 83.3025 32.396 83.3025 47.8771C83.3025 63.3582 95.8966 75.9081 111.432 75.9081Z" fill="#93E4E8"/>
<path d="M9.84061 74.1644C9.79323 74.5806 9.54633 74.9168 9.38412 75.2887C9.12573 75.549 8.92189 75.8623 8.5903 76.0511C7.45913 76.6905 6.43706 76.3372 5.99637 75.1843C5.82411 74.7337 5.73224 74.2717 5.78248 73.7867C5.89158 73.7781 5.93752 73.7009 5.97914 73.6136C6.09973 73.3619 6.21169 73.1044 6.34806 72.8627C6.77153 72.1117 7.29549 71.5095 8.28454 71.6582C8.33047 71.6654 8.37784 71.6668 8.42378 71.6611C8.63049 71.6353 8.74246 71.7255 8.78552 71.9271C8.85299 72.2418 9.01089 72.5136 9.27646 72.6939C9.48317 72.834 9.53341 73.0314 9.56643 73.2446C9.58653 73.3819 9.58509 73.5235 9.57935 73.6623C9.5693 73.8826 9.6382 74.0571 9.84061 74.1658V74.1644Z" fill="#796558"/>
<path d="M5.7825 73.7866C5.74231 73.4605 5.77533 73.1372 5.82844 72.8153C5.88586 72.4692 6.04089 72.1731 6.28062 71.917C6.39689 71.7926 6.50455 71.661 6.63231 71.5122C6.22463 71.2547 6.02367 70.9229 6.19305 70.4494C6.38397 70.1318 6.68255 69.9373 7.01415 69.8228C7.58117 69.6283 8.20274 70.1204 8.09795 70.7126C8.04196 71.0258 8.13527 71.0473 8.37643 71.063C8.63051 71.0802 8.84583 71.1961 9.03819 71.3677C9.62243 71.8884 9.90092 72.565 10.0229 73.3131C10.0717 73.6121 9.8679 73.8739 9.83919 74.1657C9.63679 74.057 9.56789 73.8825 9.57793 73.6622C9.58368 73.5234 9.58655 73.3818 9.56501 73.2445C9.53343 73.0313 9.48176 72.8339 9.27505 72.6938C9.00948 72.5135 8.85158 72.2417 8.78411 71.927C8.74104 71.7253 8.62908 71.6352 8.42237 71.661C8.37643 71.6667 8.32906 71.6653 8.28312 71.6581C7.29264 71.5093 6.77012 72.1116 6.34665 72.8625C6.21028 73.1057 6.09831 73.3618 5.97773 73.6135C5.9361 73.7008 5.89017 73.778 5.78107 73.7866H5.7825Z" fill="#23242B"/>
<path d="M22.5737 85.7268C22.5449 85.6553 22.5579 85.5938 22.6196 85.5452C22.6497 85.6167 22.6512 85.6811 22.5737 85.7268Z" fill="#796558"/>
<path d="M28.5694 79.8106C28.456 80.1181 28.2952 80.3999 28.0986 80.6617C27.9923 80.8019 27.8976 80.9592 27.7009 80.9921C27.7009 80.9178 27.6837 80.8391 27.7024 80.769C27.8789 80.0981 27.5201 79.6275 27.1009 79.1869C26.9975 79.0782 26.8526 79.0124 26.6975 79.0095C26.4535 79.0067 26.2295 78.8951 25.9941 78.8794C25.5577 78.8493 25.2922 78.5961 25.0682 78.2614C24.9864 78.1384 24.873 78.0354 24.7682 77.9295C24.6548 77.8151 24.5371 77.818 24.4108 77.9238C23.8954 78.3558 23.6945 79.051 23.8926 79.7076C23.9399 79.8635 24.0261 80.0123 23.9974 80.1839C23.4748 79.5316 23.3356 78.8107 23.6098 78.0168C23.8553 77.4446 24.2959 77.107 24.8802 76.9082C25.5319 76.6865 26.1822 76.5835 26.8583 76.7637C27.1999 76.8539 27.4913 77.0241 27.7153 77.3016C28.3081 78.0354 28.6254 78.8622 28.5694 79.8149V79.8106Z" fill="#796558"/>
<path d="M23.9889 80.1808C24.0176 80.0077 23.9315 79.859 23.8841 79.7045C23.6861 79.0479 23.8856 78.3527 24.4024 77.9207C24.5287 77.8148 24.6464 77.812 24.7598 77.9264C24.8646 78.0323 24.9766 78.1367 25.0598 78.2583C25.2852 78.5944 25.5507 78.8462 25.9857 78.8762C26.2226 78.892 26.4451 79.0035 26.6891 79.0064C26.8441 79.0093 26.9891 79.0751 27.0925 79.1838C27.5131 79.6258 27.8719 80.095 27.6939 80.7659C27.6753 80.8359 27.6925 80.9146 27.6925 80.989V80.9761C27.6394 80.999 27.6135 81.0419 27.5992 81.0934C27.3552 81.4196 27.0537 81.6785 26.679 81.8401C25.6842 82.2693 24.4942 81.6427 24.2602 80.7516C24.2459 80.6943 24.2244 80.6428 24.1669 80.6128L24.1712 80.6214C24.1626 80.547 24.1626 80.4683 24.0751 80.434L24.0808 80.4426C24.0736 80.3424 24.1052 80.228 23.9846 80.1665V80.1779L23.9889 80.1808Z" fill="#B98D5D"/>
<path d="M21.4422 97.9268C23.2562 97.9268 24.7266 95.4842 24.7266 92.4711C24.7266 89.458 23.2562 87.0154 21.4422 87.0154C19.6283 87.0154 18.1578 89.458 18.1578 92.4711C18.1578 95.4842 19.6283 97.9268 21.4422 97.9268Z" fill="#95D4DB"/>
<path d="M21.4422 97.1815C22.9675 97.1815 24.2041 95.0726 24.2041 92.4711C24.2041 89.8696 22.9675 87.7606 21.4422 87.7606C19.9168 87.7606 18.6803 89.8696 18.6803 92.4711C18.6803 95.0726 19.9168 97.1815 21.4422 97.1815Z" fill="#45ACAE"/>
<path d="M21.0259 82.9288V88.1828H29.7637L29.6991 82.8901L21.0259 82.9288Z" fill="#45ACAE"/>
<path d="M26.93 94.6814H18.4922L17.796 95.9674H26.4649L26.93 94.6814Z" fill="#45ACAE"/>
<path d="M27.0966 90.9622H24.2056V94.6956H27.0966V90.9622Z" fill="#45ACAE"/>
<path d="M29.972 97.9268C31.7859 97.9268 33.2564 95.4842 33.2564 92.4711C33.2564 89.458 31.7859 87.0154 29.972 87.0154C28.1581 87.0154 26.6876 89.458 26.6876 92.4711C26.6876 95.4842 28.1581 97.9268 29.972 97.9268Z" fill="#95D4DB"/>
<path d="M29.972 97.1815C31.4973 97.1815 32.7338 95.0726 32.7338 92.4711C32.7338 89.8696 31.4973 87.7606 29.972 87.7606C28.4466 87.7606 27.2101 89.8696 27.2101 92.4711C27.2101 95.0726 28.4466 97.1815 29.972 97.1815Z" fill="#45ACAE"/>
<path d="M44.0354 79.5213C43.6493 79.6715 43.6708 79.6687 43.7311 80.0906C43.866 81.0319 43.9981 81.9731 44.2249 82.9C44.2608 83.0474 44.2622 83.2119 44.1819 83.3907C43.8919 83.2262 43.7727 82.9773 43.7125 82.7169C43.5617 82.0575 43.2402 81.4453 43.1698 80.7644C43.1526 80.5899 43.0306 80.5684 42.8914 80.5641C42.8799 80.5441 42.8727 80.5226 42.8698 80.4983C43.0148 79.856 43.0981 79.2238 42.5913 78.6816C42.8813 78.5443 42.9158 78.4843 42.8253 78.1309C42.7134 77.6918 42.5856 77.2584 42.5569 76.8035C42.6645 75.6162 43.0765 74.562 43.9479 73.7194C44.5996 73.09 45.4106 73.0686 46.2418 73.1744C46.427 73.1973 46.5619 73.3304 46.6825 73.4648C46.8246 73.6207 46.9624 73.7824 47.1016 73.9411C47.2394 74.2659 47.4045 74.5834 47.5108 74.9181C47.7175 75.5761 47.7691 76.2499 47.5222 76.9093C47.3887 77.2669 47.3299 77.6217 47.4117 77.995C47.4361 79.2324 47.0413 80.4282 47.0614 81.667C47.0686 82.1505 46.9839 82.6354 46.8677 83.1089C46.849 83.1847 46.8289 83.2677 46.7327 83.322C46.6035 82.9844 46.592 82.6354 46.582 82.2864C46.5691 81.8658 46.5777 81.4481 46.5045 81.0262C46.4327 80.6113 46.6064 80.1993 46.638 79.7788C46.6624 79.4569 46.6954 79.1351 46.694 78.8104C46.6523 78.6159 46.6093 78.4213 46.5676 78.2268C46.6853 77.822 46.7973 77.4157 46.9208 77.0123C47.0873 76.473 46.9595 75.9867 46.6652 75.5289C46.4987 75.27 46.3035 75.0269 46.1757 74.7436C46.1112 74.5992 46.0207 74.5405 45.8729 74.6478C45.4738 74.941 45.0001 75.0812 44.5623 75.2929C44.1761 75.4789 43.8847 75.7321 43.7182 76.1655C43.5287 76.6561 43.4268 77.1539 43.3679 77.666C43.3349 77.9521 43.312 78.2525 43.4856 78.5172C43.5129 78.6888 43.678 78.8218 43.5201 79.045C43.3952 79.2209 43.5574 79.4369 43.7943 79.4927C43.8718 79.5113 43.9536 79.5127 44.0326 79.5228L44.0354 79.5213Z" fill="#23242B"/>
<path d="M9.90811 95.3923C9.85787 95.2064 9.86361 95.0204 9.89806 94.8345C9.88801 94.7744 9.87078 94.7143 9.86935 94.6528C9.83059 93.1451 9.7947 91.6374 9.75882 90.1283C9.75738 90.0525 9.76887 89.9752 9.77604 89.8994C9.77604 89.8365 9.77461 89.7735 9.77317 89.7106C9.69853 89.3702 9.68274 89.0297 9.75738 88.6878C9.73154 88.6049 9.72724 88.5219 9.75451 88.4375C9.65116 87.9383 9.68704 87.4333 9.71001 86.9312C9.64828 86.1459 9.69709 85.3577 9.67556 84.5724C9.66838 84.3107 9.66695 84.0475 9.6612 83.7857C9.46311 83.7299 9.2607 83.7371 9.0583 83.7385C7.39313 83.7428 5.7294 83.7456 4.06424 83.7485C4.00251 83.7485 3.94079 83.737 3.87906 83.7313C3.68383 83.737 3.58622 83.8272 3.54603 84.0274C3.50153 84.2491 3.5532 84.4895 3.41683 84.6912C3.42401 84.8485 3.42114 85.0044 3.36516 85.1532C3.31204 85.5923 3.24601 86.0301 3.12399 86.4578C3.13835 86.5865 3.13548 86.7109 3.07232 86.8282C3.05366 87.0814 3.07232 87.3389 2.94743 87.5749C2.94025 87.6364 2.93307 87.698 2.9259 87.758C2.8814 88.1328 2.87135 88.5133 2.7522 88.8766C2.77661 89.2257 2.66894 89.559 2.61583 89.898C2.63593 90.031 2.58138 90.1497 2.54836 90.2713C2.51248 90.4873 2.47515 90.7048 2.43927 90.9208C2.46223 90.9937 2.44931 91.0581 2.38902 91.1096C2.40912 91.4286 2.3072 91.729 2.25552 92.0365C2.13781 93.0807 1.95838 94.1149 1.77607 95.1492C1.62965 95.986 1.57223 96.8385 1.36265 97.6653C1.32676 97.8069 1.35978 97.9113 1.53634 97.9113C2.31294 97.9113 3.08954 97.9113 3.86758 97.9085C3.95083 97.9085 4.01113 97.857 4.0628 97.7983C4.07716 97.7054 4.09008 97.6124 4.10443 97.5194C4.08434 97.3992 4.10443 97.2862 4.16903 97.1833C4.22358 96.7327 4.28961 96.2835 4.41163 95.8444C4.42311 95.4553 4.52647 95.0834 4.60398 94.7043C4.7748 93.8732 4.92984 93.0378 5.09492 92.2053C5.11932 92.0851 5.16095 91.9678 5.1954 91.8505C5.18105 91.7347 5.17674 91.6202 5.26574 91.5273C5.2399 91.2827 5.33895 91.0609 5.39494 90.8306C5.61887 89.6219 5.84281 88.4132 6.06674 87.2045C6.10837 87.2045 6.14857 87.2073 6.1902 87.2087C6.33518 88.9124 6.48016 90.6161 6.62371 92.3197C6.684 92.4399 6.68544 92.5658 6.66965 92.6959C6.73855 92.7789 6.75578 92.8705 6.71558 92.972C6.79597 93.1837 6.78162 93.404 6.77013 93.6229C6.85626 93.7702 6.84908 93.9276 6.82181 94.0878C6.87349 94.2422 6.87779 94.4025 6.86344 94.5627C6.90794 94.6056 6.93234 94.6514 6.88641 94.7086C6.97684 94.9289 6.96823 95.1606 6.95531 95.3909C7.03426 95.5068 7.03426 95.6326 7.00412 95.7628C7.05866 95.9159 7.06154 96.0747 7.05149 96.2349C7.06441 96.2549 7.07876 96.2735 7.08737 96.2949C7.09025 96.3021 7.07589 96.3164 7.07015 96.3264C7.18642 96.6568 7.16346 96.9987 7.15484 97.3406C7.26107 97.5165 7.17781 97.7211 7.24241 97.9028C7.45917 97.9099 7.67736 97.9171 7.89412 97.9257C8.33051 97.887 8.76689 97.8827 9.20328 97.9199C9.23343 97.9142 9.26357 97.9056 9.29372 97.9056C9.66695 97.8942 9.88179 97.7073 9.93825 97.3449C9.86361 96.6955 9.85787 96.0432 9.90811 95.3923Z" fill="#E4872E"/>
<path d="M11.6234 73.613C11.6234 73.613 11.6234 73.613 11.6252 73.613C11.6252 73.613 11.6252 73.6112 11.6252 73.6094L11.6234 73.613Z" fill="#E4872E"/>
<path d="M11.7183 73.4286C11.7183 73.4286 11.7183 73.4286 11.7219 73.4286C11.7219 73.4286 11.7219 73.4268 11.7219 73.4249L11.7183 73.4304V73.4286Z" fill="#E4872E"/>
<path d="M11.79 73.3189C11.79 73.3189 11.7937 73.3189 11.7974 73.317C11.7974 73.317 11.7974 73.3152 11.7974 73.3134L11.79 73.3189Z" fill="#E4872E"/>
<path d="M11.7957 73.3162C11.7957 73.3706 11.7698 73.4064 11.721 73.4264C11.7253 73.5065 11.7038 73.5737 11.6263 73.6109C11.632 73.6924 11.6105 73.7582 11.5272 73.7911C11.5272 73.8383 11.5043 73.8698 11.4612 73.8884C11.4397 73.9084 11.4282 73.9313 11.4239 73.9599C11.4239 74.0157 11.3966 74.0515 11.3449 74.0715C11.1425 74.3247 10.9387 74.5793 10.7363 74.8325L10.7291 74.8683L10.6932 74.8769L10.6688 74.9055C9.97547 75.9139 9.05963 76.6077 7.84664 76.8823C7.13894 77.0425 6.56618 76.8051 6.07525 76.3087C5.75083 75.9812 5.54555 75.5821 5.41492 75.1486C5.12639 74.1888 5.01729 73.2132 5.18668 72.2162C5.16084 71.7084 5.26563 71.2178 5.3776 70.7286C5.38047 70.6985 5.38478 70.6671 5.38908 70.637C5.43646 70.0291 5.65752 69.4655 5.86136 68.9019C5.94605 68.6673 6.03505 68.4356 6.12692 68.2038C5.76805 67.8147 5.41779 67.4171 5.07902 67.0094C4.92542 67.357 4.78187 67.706 4.65555 68.0636C4.08423 69.6829 3.73827 71.3365 3.76411 73.0588C3.76842 73.3677 3.77273 73.6767 3.7756 73.9857C3.78421 74.0772 3.79139 74.1688 3.8 74.2603C3.87034 74.3462 3.86747 74.4434 3.84594 74.545C3.91197 74.987 4.06844 75.4076 4.1761 75.8395C4.24357 75.8882 4.25361 75.9583 4.24787 76.0341C4.34405 76.1757 4.42444 76.3245 4.45889 76.4933C4.65268 76.6892 4.6656 76.9281 4.62684 77.1799C4.42587 78.4387 4.22634 79.6975 4.0225 80.9563C3.96652 81.3039 3.90048 81.6515 3.83876 81.9976C3.84163 82.0734 3.81866 82.1407 3.76985 82.1979C3.76985 82.2737 3.76698 82.3495 3.76555 82.4239C3.80574 82.6327 3.74258 82.8259 3.67224 83.019C3.6909 83.1291 3.70956 83.2364 3.85598 83.245C4.0426 83.2564 4.22777 83.2779 4.41439 83.2822C6.15707 83.3194 7.89832 83.2621 9.641 83.2392C9.57927 82.9489 9.59363 82.6542 9.58645 82.3624C9.55343 80.9877 9.52616 79.6131 9.48884 78.2398C9.48166 77.9909 9.53334 77.8007 9.75297 77.6448C11.1798 76.632 12.2407 75.3074 13.0833 73.7983C12.7144 73.5823 12.3498 73.3592 11.9909 73.1289C11.9722 73.2161 11.9206 73.2848 11.7985 73.3148L11.7957 73.3162Z" fill="#E4872E"/>
<path d="M11.9923 72.9559C11.9923 72.9559 11.9923 72.9559 11.9941 72.9559C11.9941 72.9559 11.9941 72.9559 11.9941 72.9541L11.9923 72.9577V72.9559Z" fill="#E4872E"/>
<path d="M30.028 78.1956C30.0338 78.2785 30.0208 78.3529 29.9491 78.4059C29.9534 78.5303 29.9074 78.6376 29.8342 78.7349C29.84 78.7921 29.8199 78.835 29.7696 78.8636C29.7811 78.8865 29.7754 78.9022 29.7524 78.9122C29.2629 80.1581 28.5696 81.241 27.3724 81.9362C26.112 82.6672 24.8459 82.3682 23.9774 81.2839C23.3745 80.5315 22.9726 79.6689 22.7501 78.7277C22.5821 78.2743 22.4802 77.8079 22.407 77.3387C21.9477 77.2472 21.4912 77.1456 21.0404 77.0341C21.1208 77.5719 21.2385 78.104 21.2974 78.6447C21.3964 78.8736 21.4639 79.1111 21.4869 79.3614C21.6132 79.5874 21.6821 79.8334 21.7467 80.0809C22.0453 80.7504 22.407 81.384 22.8204 81.9891C22.9697 82.115 23.0659 82.2795 23.1104 82.464C23.1578 82.6557 23.1362 82.8402 22.9367 82.9532C23.0171 83.2236 22.9869 83.4854 22.9137 83.7572C22.7558 84.3436 22.6553 84.9416 22.6209 85.5495C22.651 85.621 22.6525 85.6854 22.575 85.7312C22.5592 85.847 22.5419 85.9629 22.5262 86.0773C22.5333 86.4478 22.4128 86.8011 22.3654 87.1645C22.3367 87.3833 22.2046 87.5793 21.952 87.6365C21.863 87.7252 21.7883 87.8296 21.6606 87.8683C21.4782 88.2502 21.128 88.4762 20.8093 88.7079C20.215 89.1428 19.8016 89.6735 19.6609 90.4016C19.6552 90.4345 19.6509 90.4688 19.6451 90.5017C19.6322 90.5775 19.6193 90.6519 19.6049 90.7277C19.6423 90.7821 19.6236 90.8193 19.569 90.8465C19.5633 90.9051 19.5561 90.9652 19.5504 91.0238C19.6193 91.4415 19.5045 91.8234 19.3236 92.1925L19.2992 92.1996L19.2733 92.1954C19.2776 92.2469 19.282 92.2998 19.2863 92.3513C19.3365 92.6459 19.2561 92.9149 19.1312 93.1766C19.0652 93.6487 18.9992 94.1222 18.9331 94.5942C18.88 94.9833 18.88 94.989 19.2877 94.999C19.6911 95.009 20.0959 95.0076 20.5007 95.0062C21.8328 94.999 23.1664 94.9819 24.4985 94.989C24.8129 94.9904 25.077 94.939 25.2852 94.6972C25.3383 94.2366 25.4761 93.796 25.5866 93.3483C25.6828 92.9578 25.7833 92.5673 25.8866 92.1782C25.9326 92.0051 25.9871 91.8349 26.046 91.6661C26.1953 91.2427 26.435 90.9294 26.9446 90.9637C27.2073 89.7522 27.6351 88.6221 28.5509 87.7338C28.8322 87.4606 29.1725 87.2703 29.5155 87.0887C29.3878 85.7126 29.26 84.3351 29.1308 82.959C29.0504 82.6729 29.0347 82.3839 29.2572 82.1565C29.8601 81.54 30.2936 80.8076 30.7185 80.0695C30.7888 79.8678 30.8706 79.6718 31.0013 79.5001C31.1807 79.0024 31.3601 78.506 31.541 78.0082C31.5539 77.9195 31.5712 77.8308 31.5884 77.7421C31.1204 77.7922 30.6481 77.8308 30.1744 77.8594C30.1457 77.9781 30.1141 78.0969 30.0323 78.197L30.028 78.1956Z" fill="#E4452E"/>
<path d="M46.5705 78.2254C46.3897 78.2411 46.2949 78.3827 46.1787 78.49C45.4595 79.148 44.6456 79.2052 43.8446 78.6402C43.7326 78.5615 43.6249 78.5072 43.4886 78.5143C43.3149 78.2497 43.3378 77.9493 43.3708 77.6632C43.4297 77.1525 43.5316 76.6533 43.7211 76.1627C43.8891 75.7307 44.179 75.4775 44.5652 75.2901C45.0044 75.0784 45.4781 74.9382 45.8758 74.645C46.0222 74.5377 46.1126 74.5963 46.1787 74.7408C46.3064 75.024 46.5002 75.2672 46.6682 75.5261C46.9639 75.9838 47.0902 76.4702 46.9237 77.0095C46.7988 77.4114 46.6868 77.8191 46.5705 78.2239V78.2254Z" fill="#B98D5D"/>
<path d="M51.0923 97.6209C50.8813 96.3063 50.7536 94.9831 50.6373 93.6585C50.5899 93.3996 50.5167 93.145 50.5397 92.8775C50.2799 91.294 50.1478 89.6948 49.9425 88.1041C49.8664 87.5091 49.7961 86.914 49.7229 86.3189C49.6497 86.2603 49.6454 86.1916 49.6956 86.1172C49.6741 85.9871 49.6525 85.8583 49.6324 85.7281H42.3215C42.277 85.8526 42.3086 85.9914 42.2942 86.1201C42.2684 86.3575 42.2942 86.6007 42.1923 86.8267C42.221 87.4819 42.1162 88.1284 42.0545 88.7779C42.0818 88.9481 42.0703 89.114 41.9942 89.2728C41.9971 89.3701 42.0086 89.4673 42 89.5632C41.9296 90.3056 41.8492 91.048 41.7818 91.7918C41.6684 93.0363 41.5908 94.2837 41.4315 95.5238C41.3339 96.2791 41.2851 97.0416 41.2205 97.8025C41.1947 98.1144 41.2076 98.1215 41.5449 98.1087C41.8047 98.0987 42.066 98.0729 42.3258 98.0715C45.0805 98.0615 47.8352 98.0572 50.5899 98.0443C50.7622 98.0443 50.9445 98.1144 51.1081 98.0171C51.1411 97.8784 51.111 97.7496 51.0909 97.6223L51.0923 97.6209Z" fill="#3B5796"/>
<path d="M42.5943 78.6795C42.5068 78.4663 42.3417 78.309 42.1838 78.1559C41.9484 77.9285 41.789 77.6638 41.6685 77.3663C41.6153 77.3077 41.545 77.2562 41.5105 77.1875C41.2034 76.5638 40.9349 75.923 40.7196 75.2635C40.2775 75.4624 39.8296 75.6512 39.376 75.83C39.6559 76.7169 40.0277 77.5651 40.5315 78.3576C41.1144 79.2731 41.8637 80.0312 42.8728 80.4961C43.0178 79.8538 43.1011 79.2216 42.5943 78.6795Z" fill="#3B5796"/>
<path d="M50.9577 68.6476C50.9046 68.4674 50.9031 68.2657 50.9749 68.0769C50.929 67.961 50.9447 67.8409 50.9476 67.7207C50.5198 68.2042 50.0791 68.6748 49.6227 69.1297C49.6169 69.1626 49.6126 69.1955 49.6112 69.2298C49.6801 70.2526 49.6772 71.2768 49.6198 72.2996C49.5968 72.7173 49.5681 73.1435 49.4274 73.5483C49.4231 73.5798 49.4203 73.6113 49.416 73.6428C49.327 74.2493 49.1662 74.8357 48.9236 75.4008C48.6752 76.2562 48.2259 77.0129 47.7479 77.7553C47.6718 77.874 47.5843 77.997 47.412 77.9927C47.4364 79.2301 47.0417 80.4259 47.0618 81.6647C47.0689 82.1482 46.9842 82.6331 46.868 83.1066C46.8493 83.1824 46.8292 83.2654 46.733 83.3197C46.6038 82.9821 46.5924 82.6331 46.5823 82.2841C46.5694 81.8635 46.578 81.4458 46.5048 81.0239C46.433 80.609 46.6067 80.1971 46.6383 79.7765C46.6627 79.4547 46.6957 79.1328 46.6943 78.8081C45.988 79.3831 45.1813 79.6106 44.2769 79.5147C44.1965 79.5062 44.1147 79.5176 44.0343 79.519C43.6482 79.6692 43.6697 79.6664 43.73 80.0883C43.8649 81.0296 43.997 81.9708 44.2238 82.8977C44.2597 83.0451 44.2611 83.2096 44.1807 83.3884C43.8908 83.2239 43.7716 82.975 43.7113 82.7146C43.5606 82.0552 43.2391 81.443 43.1687 80.7621C43.1515 80.5876 43.0295 80.5661 42.8902 80.5618C42.7496 81.7062 42.6074 82.8505 42.4668 83.9949C42.4869 84.2266 42.4725 84.4541 42.4122 84.6786C42.4768 84.8389 42.461 84.9933 42.3806 85.1435L42.3634 85.1636C42.3634 85.1636 42.3677 85.1693 42.3691 85.1722H49.5495C49.4892 84.1322 49.3069 83.1066 49.192 82.0724C49.0729 80.9924 48.9824 79.9081 48.7944 78.8367C48.7671 78.6836 48.803 78.5635 48.8992 78.4347C50.1437 76.7597 50.7237 74.8386 51.0036 72.8031C51.0653 72.3511 51.1055 71.9005 51.1084 71.4456C51.1127 70.8777 51.117 70.3098 51.1213 69.7419C51.0682 69.3772 51.0596 69.0067 50.9548 68.6476H50.9577Z" fill="#3B5796"/>
<path d="M131.637 88.9595C131.77 87.0784 131.68 85.1716 131.729 83.282C131.707 82.83 131.96 82.84 132.342 82.8429C134.09 82.8386 135.831 82.8357 137.575 82.8429C137.929 82.8271 137.887 83.5409 137.979 83.7784C138.748 88.4388 139.562 93.0877 140.158 97.7638C140.327 98.3618 138.246 97.9727 137.817 98.0986C137.29 98.1486 137.412 97.6623 137.318 97.3104C136.829 94.7542 136.289 92.2066 135.798 89.6503C135.767 89.5173 135.385 86.6722 135.271 87.4618C134.983 88.7649 135.072 90.1067 134.914 91.4255C134.785 92.5027 134.706 93.5855 134.613 94.6641C134.437 95.6926 134.37 96.7325 134.259 97.771C134.226 98.0299 134.001 98.1157 133.769 98.0929C133.009 98.0013 132.175 98.213 131.453 98.0299C131.238 95.0446 131.529 91.9577 131.637 88.9595Z" fill="#E2C226"/>
<path d="M136.324 72.4423C136.275 72.3836 136.263 72.3207 136.295 72.2506C136.344 72.3093 136.342 72.3751 136.324 72.4423Z" fill="#B98D5D"/>
<path d="M135.099 70.9086C135.847 71.7283 135.966 72.6953 135.77 73.7352C135.646 74.3861 135.526 75.0298 135.102 75.5819C134.671 76.1455 133.76 76.6133 132.831 75.9896C132.451 75.7335 132.103 75.4417 131.892 75.0169C131.836 74.9053 131.759 74.8023 131.68 74.7051C131.208 74.1257 131.131 73.462 131.253 72.7539C131.261 72.7081 131.253 72.6595 131.253 72.6137C131.309 72.4821 131.216 72.4192 131.14 72.3348C130.837 71.9944 130.807 71.7354 131.117 71.4293C131.899 70.6555 132.833 70.275 133.951 70.4795C134.357 70.5539 134.73 70.7227 135.096 70.9086H135.099Z" fill="#B98D5D"/>
<path d="M111.138 77.3486L111.168 77.3515L111.184 77.3243C111.691 77.1541 112.215 77.0654 112.746 77.0039C113.236 76.9481 113.673 77.0596 114.101 77.3042C114.553 77.5632 114.842 77.9694 115.153 78.3599C115.314 78.6932 115.475 79.0251 115.637 79.3584C115.755 79.7432 115.878 80.1265 115.989 80.5127C116.015 80.6043 116.059 80.6329 116.145 80.6229C116.231 80.6558 116.336 80.6844 116.333 80.7945C116.319 81.2594 116.244 81.7186 116.045 82.1392C115.924 82.3938 115.637 82.4839 115.415 82.6412C115.094 82.8673 114.786 82.9087 114.434 82.7743C114.368 82.677 114.302 82.5797 114.236 82.4825C114.235 82.2507 114.292 82.0276 114.355 81.8073C114.492 81.3381 114.612 80.8661 114.677 80.3797C114.741 79.8948 114.693 79.4328 114.441 79.0051C114.347 78.8448 114.232 78.7461 114.026 78.6904C113.627 78.5816 113.243 78.6088 112.848 78.6646C112.747 78.6203 112.653 78.636 112.562 78.6918C112.456 78.6946 112.348 78.6961 112.242 78.6989C111.425 78.7233 111.265 78.872 111.181 79.6788C111.177 79.7246 111.177 79.7703 111.173 79.8161C111.078 80.7917 111.349 81.6786 111.836 82.5125C111.819 82.5983 111.839 82.6784 111.876 82.7543C111.797 83.0618 111.56 82.9774 111.361 82.9459C111.171 82.9159 111.009 82.7714 110.801 82.7986C110.721 82.6684 110.571 82.6899 110.454 82.6427C110.429 82.5039 110.321 82.4953 110.211 82.4882C109.783 82.4567 109.676 82.1721 109.726 81.8187C109.762 81.5655 109.831 81.3138 109.948 81.0806C109.973 81.032 109.961 80.9633 109.965 80.9047C110.105 80.6486 110.204 80.384 110.201 80.085C110.198 79.8733 110.227 79.6602 110.222 79.4485C110.205 78.6074 110.554 77.9265 111.14 77.3472L111.138 77.3486Z" fill="#23242B"/>
<path d="M114.235 82.3851C113.587 82.7113 112.925 82.8014 112.236 82.5139C112.11 82.4609 111.969 82.4466 111.835 82.4152C111.348 81.5812 111.077 80.6943 111.171 79.7188C111.176 79.673 111.176 79.6272 111.18 79.5814C111.263 78.7732 111.424 78.6245 112.241 78.6016C112.347 78.5987 112.455 78.5973 112.561 78.5944C112.658 78.6173 112.756 78.6245 112.847 78.5672C113.24 78.5115 113.626 78.4843 114.025 78.593C114.23 78.6488 114.345 78.7475 114.44 78.9077C114.693 79.3354 114.74 79.7974 114.675 80.2824C114.611 80.7687 114.49 81.2407 114.354 81.7099C114.289 81.9302 114.233 82.1519 114.235 82.3851Z" fill="#B98D5D"/>
<path d="M136.331 66.2484C136.233 66.091 136.127 65.9351 136.047 65.7649C135.992 65.6576 135.932 65.5432 135.856 65.486C135.566 65.8836 135.267 66.2741 134.959 66.6575C134.967 66.8935 135.037 67.1338 135.151 67.3742C135.813 68.9348 136.167 70.6012 136.318 72.2806C136.348 72.6282 136.311 72.9772 136.312 73.3262C136.308 73.5308 136.36 73.7311 136.325 73.9213C136.299 74.0686 136.235 74.2045 136.187 74.3476C136.028 74.8583 135.874 75.3875 135.55 75.851C135.098 76.4975 134.305 76.808 133.533 76.6806C132.245 76.4432 131.341 75.4004 130.521 74.4577C130.295 74.2117 130.151 73.9056 129.959 73.6324C129.641 73.1861 129.387 72.7097 129.156 72.2148C129.151 72.2048 129.146 72.1948 129.141 72.1847C128.756 72.4637 128.362 72.734 127.965 72.9958C128.404 74.2689 129.604 75.7094 130.526 76.6277C130.821 76.8451 131.064 77.0983 131.388 77.2771C132.027 77.579 131.811 78.1497 131.819 78.7162C131.842 79.3355 131.812 79.9535 131.753 80.57C131.747 81.0406 131.743 81.5098 131.727 81.979C131.648 82.4739 132.049 82.3409 132.38 82.3509C133.984 82.3652 135.593 82.3452 137.196 82.3438C137.512 82.3538 137.752 82.2823 137.69 81.9247C137.502 80.3926 137.222 78.8764 136.948 77.3572C136.873 76.9696 136.868 76.5734 137.024 76.2029C138.526 73.0444 137.682 69.3081 136.331 66.2498V66.2484Z" fill="#E2C226"/>
<path d="M116.783 78.41C116.638 79.0823 116.33 80.1494 115.959 81.1465C115.449 82.5097 115.835 82.8887 114.318 82.9231C113.352 83.4652 112.389 82.883 111.394 82.9517C110.906 82.8816 110.462 82.6541 110.024 82.4381C109.436 82.1263 110.126 81.6829 110.066 81.2266C109.647 80.2596 108.912 79.0294 108.707 77.9737C108.698 77.9337 108.691 77.8922 108.682 77.8521C108.197 77.8207 107.713 77.7792 107.235 77.7248C107.277 78.3342 107.703 79.2339 107.801 79.6774C109.167 83.4108 110.395 81.6085 109.793 85.5722C109.49 89.7506 109.106 93.9232 108.727 98.1001C108.681 98.4448 108.722 98.781 109.176 98.7481C112.017 98.6737 114.871 98.7409 117.71 98.7295C118.4 98.7367 118.864 98.8697 118.665 97.927C117.868 93.228 117.035 88.5175 116.23 83.8128C116.063 83.1691 116.589 82.7042 116.873 82.1907C117.401 81.6228 118.293 78.6346 118.431 76.9009C117.938 77.0325 117.44 77.1512 116.938 77.2571C116.895 77.6547 116.875 78.0653 116.783 78.41Z" fill="#4CA4B7"/>
<path d="M89.3376 71.7985C88.5897 72.6182 88.4706 73.5852 88.6672 74.6251C88.7907 75.276 88.9112 75.9197 89.3347 76.4718C89.7654 77.0354 90.6769 77.5032 91.6057 76.8795C91.9861 76.6234 92.3335 76.3316 92.5445 75.9068C92.6005 75.7952 92.678 75.6922 92.7569 75.5949C93.2292 75.0156 93.3053 74.3519 93.1833 73.6438C93.1761 73.598 93.1833 73.5494 93.1833 73.5036C93.1273 73.372 93.2206 73.3091 93.2967 73.2247C93.5996 72.8843 93.6297 72.6253 93.3196 72.3192C92.5373 71.5454 91.6042 71.1649 90.486 71.3694C90.0797 71.4438 89.7065 71.6126 89.3405 71.7985H89.3376Z" fill="#796558"/>
<path d="M89.3373 71.7985C88.5894 72.6182 93.3036 74.3519 93.1816 73.6438C93.1744 73.598 93.1816 73.5494 93.1816 73.5036C93.1256 73.372 93.2189 73.3091 93.295 73.2247C93.5978 72.8843 93.628 72.6253 93.3179 72.3192C92.5356 71.5454 91.6025 71.1649 90.4843 71.3694C90.078 71.4438 89.7048 71.6126 89.3387 71.7985H89.3373Z" fill="#B98D5D"/>
<path d="M93.0481 78.1667C93.3725 77.9879 93.6151 77.7361 93.9108 77.5172C94.8324 76.5989 96.0325 75.1584 96.4717 73.8853C96.0727 73.6236 95.6808 73.3546 95.2961 73.0743C95.2903 73.0843 95.286 73.0929 95.2803 73.1043C95.0492 73.6007 94.7951 74.0756 94.4778 74.5219C94.2869 74.7951 94.1419 75.1012 93.9151 75.3473C93.0969 76.2899 92.1925 77.3327 90.9035 77.5702C90.1312 77.6975 89.3388 77.3871 88.8866 76.7405C88.5636 76.277 88.41 75.7478 88.2493 75.2371C88.2033 75.0941 88.1387 74.9567 88.1115 74.8108C88.077 74.622 88.1287 74.4218 88.1244 74.2158C88.1244 73.8667 88.0885 73.5163 88.1186 73.1701C88.2694 71.4908 88.6239 69.8243 89.2857 68.2637C89.3991 68.0234 89.468 67.783 89.478 67.547C89.1694 67.1637 88.8708 66.7732 88.5809 66.3755C88.5048 66.4327 88.4445 66.5486 88.3899 66.6544C88.3096 66.8247 88.2033 66.9806 88.1057 67.1379C86.7549 70.1962 85.9109 73.9325 87.4124 77.091C87.5688 77.4615 87.5631 77.8577 87.4884 78.2453C87.2143 79.7645 86.8152 82.1962 86.6257 83.7282C86.6142 83.7983 86.6157 83.8541 86.6257 83.9042C86.5209 84.1273 86.5195 84.5078 86.4578 84.6695C85.6883 89.3299 84.8744 93.9788 84.2787 98.655C84.1093 99.2529 86.1908 98.8638 86.62 98.9897C87.1468 99.0397 87.0248 98.5534 87.1181 98.2015C87.6076 95.6453 88.1473 93.0977 88.6383 90.5415C88.6699 90.4084 89.0517 87.5633 89.1651 88.3529C89.4536 89.656 89.3646 90.9978 89.5225 92.3166C89.6517 93.3938 89.7307 94.4766 89.824 95.5552C89.9991 96.5837 90.0666 97.6236 90.1771 98.6621C90.2101 98.921 90.4355 99.0068 90.6681 98.984C91.4274 98.8924 92.2614 99.1041 92.9835 98.921C93.1988 95.9357 92.9074 92.8488 92.7998 89.8506C92.6663 87.9738 92.7553 86.0713 92.7093 84.186C92.728 84.1316 92.7323 84.0572 92.7165 83.9585C92.7007 83.4894 92.6907 81.9302 92.6849 81.4595C92.6261 80.843 92.5959 80.2251 92.6189 79.6057C92.6275 79.0392 92.4107 78.4685 93.0495 78.1667H93.0481Z" fill="#45ACAE"/>
<path d="M68.3281 21.5425C72.5585 21.5425 75.9879 18.1251 75.9879 13.9096C75.9879 9.69408 72.5585 6.27673 68.3281 6.27673C64.0977 6.27673 60.6683 9.69408 60.6683 13.9096C60.6683 18.1251 64.0977 21.5425 68.3281 21.5425Z" fill="#F37C00"/>
<path d="M68.3278 5.6331C69.4906 5.6331 70.5988 5.87341 71.6036 6.30541V3.26857C71.6036 1.45763 70.1337 0 68.3235 0C66.5134 0 65.0435 1.46478 65.0435 3.26857V6.30827C66.0512 5.87485 67.1608 5.6331 68.3264 5.6331H68.3278Z" fill="#F37C00"/>
<path d="M76.6337 13.9099C76.6337 16.0612 75.8054 18.0238 74.4489 19.4972L122.06 17.6247C122.06 17.6247 119.881 13.0559 119.901 13.2261L75.6949 10.0948C76.2935 11.2378 76.6337 12.5352 76.6337 13.9099Z" fill="#F37C00"/>
<path d="M71.6037 21.5126C70.5974 21.9446 69.4907 22.1849 68.3279 22.1849C67.1652 22.1849 66.0527 21.9432 65.045 21.5098V88.1829C65.045 88.1829 58.9054 94.6628 58.9054 98.2761H77.7447C77.7447 94.6614 71.6052 88.1829 71.6052 88.1829V21.5126H71.6037Z" fill="#F37C00"/>
<path d="M60.0221 13.9099C60.0221 12.5338 60.3623 11.2363 60.9609 10.0948L16.755 13.2261C16.7737 13.0559 14.764 17.4702 14.6075 17.6247L62.2069 19.4972C60.8518 18.0238 60.0221 16.0612 60.0221 13.9099Z" fill="#F37C00"/>
<path d="M14.5963 17.6232C14.5963 17.6323 14.6009 17.6307 14.6085 17.6232H14.5963Z" fill="#E4872E"/>
<mask id="mask0_240_625" style="mask-type:luminance" maskUnits="userSpaceOnUse" x="83" y="19" width="57" height="57">
<path d="M111.432 75.9081C126.968 75.9081 139.562 63.3582 139.562 47.8771C139.562 32.396 126.968 19.8461 111.432 19.8461C95.8966 19.8461 83.3025 32.396 83.3025 47.8771C83.3025 63.3582 95.8966 75.9081 111.432 75.9081Z" fill="white"/>
</mask>
<g mask="url(#mask0_240_625)">
<path d="M129.5 25.8564V25.8587H129.503L129.5 25.8564Z" fill="#37557F"/>
<path d="M129.304 25.7323C129.304 25.7323 129.304 25.7353 129.305 25.7384C129.308 25.7384 129.313 25.7384 129.316 25.7384L129.304 25.7338V25.7323Z" fill="#37557F"/>
<path d="M139.265 25.1284C139.265 25.1284 139.265 25.1284 139.265 25.1302C139.265 25.1302 139.268 25.1321 139.27 25.1339L139.265 25.1284Z" fill="#37557F"/>
<path d="M138.537 24.6163L138.539 24.6182H138.541L138.537 24.6163Z" fill="#37557F"/>
<path d="M138.958 24.9138C138.958 24.9138 138.959 24.917 138.961 24.9186C138.962 24.9203 138.964 24.9219 138.967 24.9235L138.959 24.9138H138.958Z" fill="#37557F"/>
<path d="M134.793 31.2207C134.793 31.2207 134.798 31.2251 134.799 31.228L134.792 31.2207H134.793Z" fill="#37557F"/>
<path d="M135.62 32.3627C135.62 32.3627 135.622 32.3663 135.624 32.3663C135.624 32.3663 135.62 32.3608 135.619 32.3608L135.62 32.3627Z" fill="#37557F"/>
<path d="M139.45 50.3202C139.385 49.8424 139.542 49.4462 139.869 49.1057C139.532 48.4978 138.972 48.0858 138.504 47.5952C138.256 47.3348 138.019 47.0688 137.799 46.7855C137.723 46.6868 137.651 46.5881 137.734 46.4651C137.823 46.3321 137.944 46.3235 138.095 46.365C138.413 46.4523 138.63 46.6969 138.899 46.8599C138.985 46.9129 139.062 46.9815 139.143 47.043C139.397 46.6783 139.357 46.262 139.349 45.8543C139.341 45.3737 139.474 44.9074 139.467 44.421C139.461 44.0334 139.256 43.6514 139.431 43.2566C139.45 43.2152 139.391 43.1308 139.355 43.075C139.18 42.8032 139.118 42.5056 139.144 42.1895C139.163 41.9506 139.082 41.7704 138.917 41.5902C138.541 41.1811 138.5 40.6761 138.561 40.1483C138.626 39.6047 138.517 39.0969 138.155 38.6778C137.862 38.3373 137.688 37.9583 137.696 37.5148C137.703 37.09 137.548 36.7595 137.221 36.4935C136.982 36.3004 136.839 36.0515 136.862 35.7311C136.887 35.3649 136.708 35.0931 136.422 34.9057C136.229 34.7784 136.118 34.6482 136.134 34.4093C136.155 34.0674 135.916 33.8357 135.738 33.5911C135.386 33.1048 135.016 32.6327 134.634 32.1707C134.411 31.9003 134.324 31.557 134.104 31.2881C134.061 31.2352 134.055 31.1508 134.116 31.0993C134.207 31.0206 134.275 31.0921 134.327 31.1608C134.546 31.4469 134.776 31.7258 134.973 32.0262C135.118 32.2479 135.307 32.4181 135.494 32.5955C135.593 32.6899 135.679 32.6527 135.742 32.5426C135.742 32.5097 135.73 32.4854 135.703 32.4682C135.677 32.4339 135.652 32.3995 135.626 32.3652C135.541 32.3309 135.518 32.2594 135.509 32.1778L135.502 32.1649C135.475 32.1278 135.448 32.092 135.419 32.0548C135.334 32.0219 135.311 31.9504 135.301 31.8688L135.293 31.856C135.265 31.8188 135.238 31.783 135.209 31.7458C135.151 31.7201 135.118 31.6757 135.11 31.6114C135.082 31.4855 135.011 31.3925 134.894 31.3339C134.862 31.2981 134.832 31.2623 134.8 31.2266C134.737 31.2023 134.703 31.1551 134.697 31.0893C134.562 30.8275 134.387 30.5986 134.164 30.4055C134.131 30.3669 134.1 30.3268 134.067 30.2882C133.276 29.1567 132.307 28.1926 131.252 27.31C131.167 27.3029 131.092 27.2785 131.071 27.1841C130.856 27.2056 130.759 27.094 130.749 26.888C130.729 26.8337 130.69 26.8036 130.635 26.7936C130.283 26.7936 130.103 26.5905 130.022 26.2729C129.727 26.2858 129.542 26.1628 129.503 25.8595C129.413 25.8581 129.333 25.8409 129.307 25.7394C129.165 25.7594 129.094 25.6936 129.089 25.5491C129.054 25.522 129.021 25.4948 128.987 25.469C128.972 25.4433 128.949 25.4333 128.921 25.4361C128.855 25.4304 128.807 25.3989 128.78 25.3389C128.625 25.3474 128.52 25.2788 128.468 25.1329C128.432 25.1028 128.395 25.0742 128.359 25.0442L128.354 25.0399C128.269 25.0342 128.194 25.0099 128.163 24.9212C128.125 24.8897 128.088 24.8582 128.051 24.8268C128.013 24.7567 127.95 24.7266 127.876 24.7166C127.812 24.7095 127.768 24.678 127.742 24.6208C127.591 24.6251 127.442 24.6294 127.428 24.4205C126.295 23.6295 125.043 23.0559 123.796 22.4808C121.739 21.5324 119.558 20.9746 117.345 20.5426C116.979 20.471 116.604 20.3867 116.221 20.4324C116.186 20.4911 116.152 20.5512 116.117 20.6098C116.603 21.0418 117.174 21.3665 117.639 21.8142C117.636 21.9644 117.508 21.9873 117.428 22.0259C117.124 22.169 117.134 22.4265 117.167 22.6882C117.198 22.9472 117.332 23.126 117.603 23.2018C118.15 23.3563 118.69 23.5351 119.238 23.6853C119.94 23.8798 120.611 24.1416 121.213 24.555C121.325 24.6322 121.512 24.6909 121.496 24.831C121.452 25.2259 121.753 25.2645 121.994 25.3675C122.391 25.5363 122.792 25.6907 123.19 25.8567C123.536 26.0012 123.603 26.1542 123.375 26.4303C123.18 26.6649 123.174 26.7922 123.447 26.9424C123.652 27.0554 123.792 27.2571 123.79 27.4902C123.786 27.978 123.952 28.3957 124.224 28.7877C124.27 28.8535 124.336 28.9422 124.265 29.0194C124.178 29.1152 124.076 29.0652 123.99 29.0008C123.935 28.9593 123.889 28.9064 123.84 28.8578C123.777 28.7948 123.708 28.739 123.616 28.8034C123.519 28.8721 123.506 28.9665 123.546 29.0766C123.605 29.2411 123.737 29.3284 123.891 29.3584C124.258 29.4314 124.433 29.6803 124.57 29.9978C124.69 30.2796 124.85 30.5443 124.992 30.816C124.93 31.0192 124.703 30.8518 124.61 30.9863C124.706 31.135 124.887 31.1107 125.016 31.1908C125.073 31.2266 125.132 31.2709 125.106 31.3539C125.081 31.4354 125.007 31.4383 124.94 31.444C124.739 31.4569 124.561 31.3753 124.409 31.2681C124.13 31.0735 123.835 30.9648 123.456 31.0263C123.523 30.7917 123.715 30.7803 123.852 30.713C124.082 30.6 124.277 30.4856 124.221 30.1752C124.168 29.8834 123.984 29.6559 123.698 29.6016C123.477 29.5601 123.253 29.5558 123.038 29.6531C122.897 29.7175 122.731 29.7432 122.612 29.8348C122.368 30.0207 122.102 30.0093 121.823 29.995C121.071 29.9592 120.771 30.251 120.573 30.9934C120.372 31.7487 120.473 32.4425 120.767 33.1391C120.833 33.2964 120.862 33.4695 120.925 33.6283C121.142 34.1804 121.198 34.7111 121.035 35.3177C120.814 36.1416 121.239 36.9712 121.94 37.4004C122.246 37.5878 122.287 37.5749 122.452 37.2802C122.576 37.0599 122.642 36.7309 122.869 36.6637C123.092 36.5979 123.226 36.9326 123.425 37.0614C123.681 37.2287 123.888 37.4719 124.109 37.6879C124.166 37.7437 124.239 37.8238 124.145 37.9039C124.07 37.9683 123.972 37.9468 123.906 37.891C123.803 37.8023 123.711 37.6993 123.621 37.5949C123.553 37.5177 123.502 37.4276 123.436 37.3489C123.378 37.2802 123.299 37.233 123.209 37.253C123.081 37.2831 123.075 37.3947 123.071 37.4991C123.064 37.7051 123.071 37.9082 123.008 38.1113C122.945 38.3144 123.074 38.4732 123.192 38.6234C123.339 38.8122 123.496 38.9953 123.641 39.187C123.856 39.4717 123.85 39.4888 123.548 39.7034C123.506 39.7334 123.464 39.7678 123.417 39.7864C123.133 39.9037 123.057 40.1297 123.071 40.4129C123.08 40.5846 123.068 40.7576 123.061 40.9293C123.058 41.0151 123.077 41.1367 123.029 41.1782C122.693 41.4743 122.676 41.8963 122.556 42.2796C122.497 42.467 122.335 42.5886 122.182 42.6988C121.792 42.9806 121.469 43.3439 121.022 43.5871C121.139 43.8145 121.347 43.8646 121.531 43.9275C122.376 44.2165 122.866 44.7901 122.985 45.6755C122.992 45.7256 123.014 45.7742 123.022 45.8257C123.028 45.8586 123.022 45.8929 123.022 45.9559C122.458 46.119 121.907 46.2949 121.282 46.2463C120.704 46.2005 120.455 46.4737 120.49 47.0058C120.519 47.4679 120.55 47.9313 120.616 48.3876C120.649 48.6094 120.691 48.8282 120.682 49.0514C120.669 49.4219 120.89 49.6994 121.045 50.0026C121.119 50.1442 121.264 50.1671 121.407 50.1299C121.541 50.0956 121.671 50.0498 121.798 49.9969C121.986 49.9197 122.109 49.9497 122.228 50.1357C122.432 50.4518 122.508 50.4432 122.685 50.1256C122.739 50.0269 122.823 49.9855 122.916 49.9354C123.203 49.7809 123.483 49.6135 123.763 49.4447C124.153 49.2087 124.316 48.8454 124.321 48.4048C124.324 48.113 124.333 47.8183 124.307 47.528C124.275 47.1646 124.363 46.8399 124.58 46.5595C124.794 46.2835 124.854 45.9888 124.831 45.6441C124.801 45.1892 124.908 45.0447 125.363 44.9889C125.738 44.9431 125.956 44.7715 126.095 44.4368C126.238 44.0949 126.492 43.8374 126.803 43.6371C126.799 43.4083 126.872 43.2037 127.004 43.0178C126.993 42.8132 127.067 42.6558 127.294 42.7031C127.764 42.8018 128.259 42.7345 128.714 42.9276C128.968 43.0349 129.236 43.0979 129.513 43.1207C129.912 43.1522 130.238 43.2938 130.451 43.6643C130.579 43.886 130.752 44.0949 131.025 44.155C131.484 44.2551 131.776 44.5498 131.995 44.9403C132.099 45.1234 132.216 45.2821 132.45 45.3236C132.666 45.3608 132.752 45.3108 132.719 45.1019C132.67 44.7972 132.466 44.5812 132.264 44.371C132.048 44.1478 131.817 43.939 131.664 43.6643C131.504 43.3782 131.536 43.012 131.731 42.8003C131.931 42.5843 132.079 42.5529 132.32 42.7202C132.561 42.8876 132.759 43.105 132.928 43.3468C133.138 43.6457 133.405 43.8918 133.676 44.1306C133.899 44.3266 134.014 44.298 134.167 44.042C134.255 43.8946 134.321 43.7344 134.398 43.5799C134.46 43.4569 134.497 43.2981 134.622 43.2395C135.077 43.0263 135.264 42.5843 135.54 42.2167C135.588 42.1509 135.616 42.0608 135.758 42.0236C136.257 42.7045 136.699 43.4326 136.877 44.2808C136.978 44.7615 136.813 45.2135 136.427 45.521C136.19 45.7099 135.979 45.9101 135.86 46.1747C135.641 46.6568 135.224 46.8356 134.76 46.9329C134.324 47.0244 133.879 47.0802 133.435 47.1289C133.226 47.1517 133.148 47.2276 133.111 47.4378C133.05 47.7783 133.025 48.1173 133.013 48.462C132.999 48.9427 132.884 49.0428 132.403 49.1172C132.041 49.173 131.698 49.2273 131.355 49.0199C131.213 48.9341 131.009 48.977 130.847 49.0285C130.491 49.1429 130.129 49.1129 129.767 49.1086C129.4 49.1043 129.275 49.0342 129.212 48.7023C129.12 48.2303 128.88 47.8026 128.859 47.3205C128.665 47.3091 128.527 47.4035 128.407 47.4879C127.809 47.907 127.132 48.1659 126.486 48.4892C126.035 48.7152 125.658 49.0457 125.303 49.4004C125.061 49.645 124.796 49.8739 124.585 50.1442C124.163 50.6864 123.611 50.7336 123.002 50.6177C122.646 50.5505 122.632 50.5419 122.55 50.8924C122.432 51.3916 122.201 51.8093 121.828 52.174C121.364 52.6275 121.251 53.2254 121.337 53.8434C121.367 54.0622 121.363 54.2182 121.254 54.417C121.035 54.8146 120.837 55.1937 120.375 55.3797C120.15 55.4712 120.045 55.7258 119.954 55.9504C119.583 56.8745 119.172 57.78 118.737 58.6769C118.536 59.0931 118.579 59.5022 118.789 59.9542C119.036 60.4835 119.241 61.0585 119.042 61.6908C118.914 62.0956 118.912 62.5391 118.687 62.9196C118.597 63.0712 118.631 63.2114 118.704 63.3587C118.975 63.9037 119.281 64.4158 119.832 64.7348C120.071 64.8721 120.283 65.0552 120.526 65.1854C120.766 65.3141 120.929 65.47 121.024 65.739C121.124 66.0251 121.383 66.191 121.651 66.3226C122.322 66.6516 123.039 66.8232 123.769 66.962C123.881 66.9835 123.972 66.9448 124.064 66.8991C124.249 66.8061 124.436 66.7174 124.614 66.613C125.138 66.3069 125.665 66.0437 126.301 66.0322C126.696 66.0251 127.062 65.882 127.396 65.6345C127.937 65.2369 128.509 64.8793 129.117 64.5903C129.288 64.5088 129.469 64.4516 129.643 64.3758C129.989 64.2241 130.276 64.32 130.543 64.5617C130.827 64.8192 130.835 64.822 131.17 64.596C131.53 64.3529 131.896 64.2155 132.334 64.3872C132.498 64.4516 132.597 64.5403 132.626 64.7105C133.183 64.7262 133.493 64.33 133.794 63.9666C134.12 63.5733 134.357 63.1127 134.871 62.8952C135.093 62.8008 135.181 62.5333 135.303 62.3302C135.814 61.4777 136.333 60.6294 136.807 59.7568C137.157 59.1103 137.483 58.4508 137.759 57.7657C138.066 57.0047 138.423 56.2637 138.649 55.4726C138.808 54.9148 138.96 54.354 139.114 53.7947C139.156 53.6417 139.131 53.4943 139.091 53.3399C138.993 52.9636 139.013 52.6118 139.233 52.257C139.421 51.9552 139.53 51.6033 139.384 51.2314C139.326 51.0826 139.334 50.9267 139.395 50.7779C139.458 50.6292 139.468 50.4732 139.448 50.3216L139.45 50.3202ZM126.393 37.1815C126.383 37.3546 126.325 37.5048 126.143 37.5191C125.897 37.5377 125.784 37.6951 125.669 37.8696C125.391 38.2887 124.898 38.4332 124.496 38.7965C124.406 38.4475 124.293 38.1843 124.604 37.8996C124.894 37.6335 124.918 36.9341 124.693 36.6022C124.478 36.2846 124.285 35.9599 124.242 35.5766C124.215 35.3291 124.086 35.2089 123.86 35.1589C123.446 35.0659 123.255 34.7512 123.199 34.3836C123.104 33.767 122.969 33.1734 122.645 32.6313C122.61 32.5726 122.584 32.5054 122.571 32.4396C122.531 32.2307 122.682 32.1034 122.88 32.1821C123.113 32.2751 123.219 32.4825 123.26 32.7042C123.377 33.3222 123.733 33.7971 124.158 34.2277C124.516 34.591 124.951 34.5438 125.247 34.1375C125.399 33.9301 125.553 33.7227 125.711 33.5196C125.752 33.4667 125.81 33.4223 125.889 33.4481C125.972 33.4738 125.976 33.5468 125.982 33.614C126.001 33.8472 125.93 34.0574 125.795 34.2434C125.55 34.581 125.478 34.6611 125.831 34.9786C125.857 35.0015 125.879 35.0287 125.899 35.0559C126.179 35.435 126.137 35.6037 125.658 35.877C125.849 36.1287 126.011 36.349 126.18 36.5636C126.324 36.7467 126.41 36.9426 126.396 37.1815H126.393ZM133.929 30.8833C133.86 30.8704 133.81 30.8246 133.793 30.7588C133.778 30.7088 133.806 30.6587 133.861 30.6558C133.959 30.6501 134.005 30.7145 134.024 30.7989C134.018 30.859 133.989 30.8947 133.929 30.8847V30.8833Z" fill="#37557F"/>
<path d="M135.413 32.0521C135.413 32.0521 135.415 32.0558 135.417 32.0576C135.417 32.0576 135.417 32.0576 135.419 32.0576L135.413 32.0503V32.0521Z" fill="#37557F"/>
<path d="M131.067 27.1783C131.067 27.1783 131.067 27.1814 131.068 27.1829C131.071 27.1829 131.074 27.1829 131.079 27.1829L131.067 27.1783Z" fill="#37557F"/>
<path d="M135.205 31.7432C135.205 31.7432 135.207 31.7468 135.209 31.7468L135.205 31.7413V31.7432Z" fill="#37557F"/>
<path d="M111.715 28.4514C111.742 28.2068 111.626 28.0437 111.423 27.9565C110.951 27.7505 110.476 27.5273 109.949 27.513C109.45 27.5002 108.946 27.483 108.449 27.556C108.314 27.576 108.224 27.576 108.14 27.4544C107.859 27.0496 107.436 26.9466 106.975 26.8851C106.188 26.7792 105.425 26.5947 104.692 26.2614C104.163 26.0197 103.589 25.8695 103.033 25.6849C102.822 25.6148 102.637 25.6506 102.465 25.8151C102.137 26.1269 101.976 26.4459 102.172 26.9137C102.297 27.2112 102.454 27.5359 102.332 27.9007C101.941 27.8678 101.761 27.5674 101.536 27.3457C101.134 26.9509 101.137 26.8708 101.399 26.3587C101.529 26.1055 101.753 25.9009 101.823 25.5877C101.358 25.4875 100.941 25.612 100.527 25.7021C100.356 25.7393 100.234 25.8795 100.112 26.0025C100.063 26.0526 100.008 26.1198 100.067 26.1784C100.313 26.423 100.07 26.4989 99.9208 26.5861C99.684 26.7234 99.4113 26.7964 99.1902 26.968C99.1371 27.0095 99.0596 27.0138 99.0021 26.9595C98.9433 26.9037 98.9519 26.8279 98.9749 26.7663C99.0624 26.5418 99.1557 26.3215 99.2519 26.0998C99.4285 25.6907 99.707 25.3245 99.7816 24.8724C99.8448 24.4891 100.064 24.223 100.373 24.0056C100.907 23.6279 101.432 23.2374 101.964 22.8555C102.09 22.764 102.255 22.6767 102.248 22.5108C102.232 22.1789 102.388 21.8714 102.36 21.5424C101.167 21.8914 100.014 22.3448 98.893 22.8784C96.6049 23.9655 94.5162 25.3416 92.6085 27.0124C90.5428 28.8205 88.7642 30.8603 87.323 33.1905C86.8436 33.9658 86.3943 34.7597 86.0095 35.5879C85.9234 35.7724 85.8617 35.9756 85.6937 36.1129C85.698 36.1444 85.6894 36.1715 85.6679 36.1944C85.5746 36.522 85.4583 36.8396 85.2631 37.1228C85.2703 37.2444 85.2128 37.3431 85.1468 37.4375C85.1511 37.4976 85.1253 37.5405 85.075 37.5719C85.0693 37.7136 85.0176 37.838 84.9358 37.951C84.7822 38.4989 84.5884 39.031 84.3559 39.5503C84.3444 39.6032 84.3343 39.6575 84.3228 39.7105C84.3401 39.8278 84.3171 39.9336 84.2267 40.0166C84.2123 40.0852 84.1994 40.1539 84.185 40.2226C84.175 40.4085 84.1434 40.5888 84.0257 40.7418C84.0357 40.9263 83.9726 41.0937 83.9023 41.2582C83.9166 41.3397 83.9066 41.4156 83.842 41.4771C83.8276 41.5429 83.8147 41.6087 83.8003 41.6745C83.8132 41.7088 83.8104 41.7403 83.7874 41.7703C83.8104 41.8876 83.7731 41.9892 83.7085 42.085C83.7128 42.2309 83.7242 42.3768 83.6295 42.5041C83.6151 42.816 83.6151 43.1292 83.5017 43.4282C83.5448 43.8402 83.4271 44.2378 83.3654 44.6384C83.285 45.1633 83.2749 45.6854 83.308 46.2104C83.4572 46.0602 83.4989 45.8499 83.6094 45.6769C83.819 45.3507 84.1061 45.1533 84.5095 45.1962C84.9358 45.2406 85.3219 45.3893 85.5488 45.7756C85.8158 46.2319 86.1574 46.5952 86.6397 46.8284C86.8062 46.9085 86.944 47.0472 87.0962 47.1602C87.211 47.1831 87.2283 47.2689 87.2283 47.3662C87.2584 47.4005 87.2871 47.4334 87.3173 47.4678C87.5441 47.4377 87.6374 47.6437 87.7953 47.7353C87.9489 47.824 88.0723 47.8998 88.2245 47.6866C88.4757 47.3347 88.8489 47.2003 89.2825 47.1302C89.683 47.0658 90.0677 46.9213 90.4883 46.9242C90.728 46.9256 90.8758 46.7096 90.9706 46.5037C91.0739 46.2805 91.2591 46.1189 91.3754 45.91C91.4773 45.7284 91.6223 45.6883 91.8075 45.7055C91.9912 45.6082 92.1434 45.468 92.3099 45.3479C92.887 44.9316 93.4195 44.3937 94.2406 44.5611C94.4287 44.5997 94.5449 44.5282 94.6268 44.3237C94.8062 43.8759 95.1522 43.6828 95.6517 43.7243C96.0077 43.7529 96.3666 43.73 96.7283 43.6513C97.0398 43.5841 97.4116 43.5383 97.6499 43.9002C97.4805 43.9904 97.3212 43.9503 97.1705 43.9446C96.9336 43.9346 96.7369 44.0304 96.5345 44.1263C96.3393 44.2192 96.3479 44.3365 96.4398 44.4996C96.5561 44.7027 96.7125 44.6813 96.8805 44.5954C97.258 44.4052 97.6556 44.3294 98.0806 44.3422C98.3648 44.3508 98.616 44.235 98.8155 44.0218C98.9174 43.9131 98.9878 43.7844 98.9203 43.6485C98.8471 43.4997 98.7064 43.4225 98.5342 43.4911C98.3088 43.5798 98.1566 43.4954 97.9801 43.3467C97.6671 43.0806 97.5451 42.8131 97.8021 42.4455C97.8494 42.3782 97.8767 42.2881 97.8882 42.2052C97.9097 42.0521 98.0318 41.9234 97.9973 41.7603C97.9571 41.5629 97.6915 41.6201 97.6198 41.4556C97.8954 41.1166 97.8997 41.108 98.1954 41.2468C98.5686 41.4227 98.9619 41.5758 99.2979 41.8075C99.5964 42.0135 99.8333 41.9849 100.099 41.8018C100.327 41.6459 100.585 41.613 100.893 41.5886C100.748 41.9205 100.583 42.1737 100.357 42.3897C100.146 42.5928 99.9338 42.7959 99.7357 43.0105C99.5376 43.2236 99.5404 43.3066 99.8117 43.4296C100.379 43.6857 100.884 44.0347 101.374 44.4123C101.552 44.1863 101.638 43.9432 101.704 43.6957C101.824 43.2379 101.721 42.8503 101.322 42.5556C100.954 42.2838 100.966 42.2824 101.249 41.8933C101.659 41.3283 101.821 40.7375 101.465 40.0666C101.273 39.7047 101.158 39.3028 101 38.9223C100.924 38.7392 100.924 38.5647 100.969 38.3701C101.107 37.7651 100.98 37.1357 101.134 36.5291C101.154 36.4505 101.132 36.3475 101.023 36.3289C100.952 36.316 100.897 36.3689 100.857 36.429C100.791 36.5291 100.719 36.6279 100.662 36.7323C100.525 36.9783 100.301 37.0284 100.046 37.0269C99.8419 37.0269 99.75 36.9254 99.7988 36.7366C99.8634 36.4877 99.941 36.2402 100.034 35.9999C100.291 35.3433 100.172 34.7525 99.6696 34.269C99.3596 33.9715 99.2993 33.9658 99.0366 34.3277C98.8012 34.6524 98.5342 34.9328 98.1954 35.1545C97.9298 35.329 97.7647 35.5793 97.7059 35.9112C97.5666 36.6836 97.2695 36.9983 96.5116 37.0999C96.1871 37.1428 96.0221 37.2887 95.8828 37.5491C95.7364 37.8208 95.5728 38.0855 95.3933 38.3358C95.2842 38.4889 95.1249 38.6391 94.9124 38.5547C94.7316 38.4831 94.7273 38.2872 94.7029 38.1155C94.6296 37.6277 94.9297 37.3087 95.211 36.9812C95.346 36.8253 95.5541 36.718 95.6144 36.5191C95.6876 36.2788 95.4077 36.1873 95.3273 36.0042C95.2713 35.8783 95.1852 35.7624 95.1522 35.6308C95.0345 35.1831 94.9368 34.7268 94.9139 34.2662C94.8665 33.3321 95.3804 32.6169 96.2819 32.3093C96.6738 32.1749 97.0786 32.0933 97.4834 32.0061C97.9657 31.9031 98.3145 32.0662 98.5988 32.4552C98.738 32.6469 98.7911 32.8987 99.0208 33.0675C99.2074 32.8815 99.4199 32.7213 99.5634 32.5153C99.928 31.9875 100.425 31.6385 100.983 31.3452C101.652 30.9948 101.974 31.1836 101.968 31.9517C101.968 32.0719 101.975 32.1963 101.949 32.3122C101.846 32.7714 101.236 33.159 100.771 33.0632C100.653 33.0389 100.54 32.9931 100.416 33.0131C100.118 33.0617 100.036 33.2363 100.221 33.4751C100.512 33.8499 100.733 34.2433 100.726 34.7397C100.723 34.9514 100.84 35.143 100.974 35.2947C101.097 35.4306 101.26 35.3447 101.407 35.2875C101.447 35.2718 101.506 35.3047 101.556 35.3104C102.076 35.3691 102.347 35.0987 102.239 34.5952C102.195 34.3906 102.169 34.1889 102.173 33.983C102.176 33.8514 102.136 33.6754 102.31 33.6325C102.49 33.5881 102.581 33.7469 102.666 33.8757C102.693 33.9172 102.683 33.9801 102.707 34.023C102.81 34.199 102.915 34.3964 103.154 34.3921C103.3 34.3892 103.514 34.0015 103.504 33.8013C103.501 33.7341 103.471 33.6697 103.454 33.6039C103.388 33.355 103.316 33.1075 103.254 32.8586C103.184 32.5697 103.161 32.2764 103.293 32.0004C103.409 31.7586 103.428 31.5054 103.426 31.2465C103.423 30.8503 103.436 30.454 103.413 30.0592C103.396 29.7574 103.495 29.5314 103.712 29.3283C104.461 28.6202 105.358 28.2111 106.366 28.0466C106.602 28.008 106.869 27.9679 107.095 28.1052C107.068 28.244 106.983 28.2769 106.906 28.3041C106.596 28.4099 106.283 28.5058 105.973 28.6116C105.865 28.6488 105.697 28.656 105.7 28.8062C105.71 29.2754 105.479 29.8032 106.012 30.1579C106.284 30.3396 106.335 30.6071 106.33 30.9247C106.325 31.2937 106.184 31.6313 106.137 31.9832C106.04 32.7027 105.723 33.3192 105.351 33.9186C105.229 34.116 105.166 34.3205 105.166 34.5508C105.166 35.0844 105.136 35.6194 105.166 36.1515C105.208 36.8939 105.459 37.5433 106.091 38.0168C106.306 38.1785 106.411 38.1284 106.559 37.9667C106.653 37.8623 106.721 37.7465 106.79 37.6277C107.143 37.0184 107.516 36.4204 107.815 35.781C107.891 35.6194 107.983 35.4992 108.179 35.4535C108.519 35.3748 108.801 35.1831 109.071 34.9599C109.549 34.5666 110.058 34.2919 110.713 34.1932C111.208 34.1188 111.696 33.7827 111.82 33.1748C111.996 32.305 111.96 31.4239 111.883 30.5527C111.821 29.8547 111.639 29.1666 111.716 28.4571L111.715 28.4514Z" fill="#37557F"/>
<path d="M106.425 72.8325C105.806 72.7324 105.229 72.5278 104.661 72.2703C103.579 71.7797 102.479 71.3291 101.401 70.8313C100.637 70.478 99.8535 70.1533 99.2291 69.5568C98.708 69.059 98.3692 68.4468 98.039 67.8217C97.8251 67.4154 97.6414 66.9877 97.2366 66.7073C96.839 66.4327 96.4083 66.2153 95.9877 65.9821C95.4652 65.6932 95.0231 65.3313 94.6987 64.822C94.2824 64.1712 93.8345 63.5389 93.411 62.8923C93.2459 62.642 93.0392 62.4546 92.7808 62.2973C92.4263 62.0813 92.0531 61.9082 91.6813 61.7322C90.6334 61.2373 89.6515 60.6365 88.7428 59.9184C88.5892 59.7969 88.4457 59.7897 88.2648 59.8655C87.9806 59.9871 87.6863 60.0887 87.392 60.1845C87.1078 60.2775 86.8566 60.2374 86.6441 59.9957C86.4518 59.7768 86.2278 59.5837 86.024 59.3749C85.912 59.2604 85.8015 59.1546 85.6221 59.2075C85.6235 59.2619 85.6264 59.3177 85.6278 59.372C85.8202 59.5508 85.8733 59.8069 85.9896 60.0272C86.0283 60.04 86.0412 60.0629 86.0283 60.1001C86.0685 60.1745 86.1159 60.2474 86.1503 60.3261C86.9829 62.1714 88.0538 63.8679 89.3529 65.4214C89.7505 65.8963 90.1525 66.3669 90.553 66.8389C90.8917 67.0764 91.1559 67.394 91.4458 67.6815C92.1622 68.3924 92.9388 69.0375 93.6838 69.7184C94.5551 70.3278 95.4078 70.9658 96.3222 71.5122C97.6802 72.3233 99.0956 73.0228 100.548 73.6464L100.558 73.6321L100.565 73.655C100.729 73.6822 100.878 73.7466 101.022 73.8252C101.833 74.0527 102.63 74.3187 103.415 74.6206C104.227 74.8809 105.053 75.0855 105.895 75.2142C105.936 75.2285 105.977 75.2428 106.017 75.2571C106.078 75.2543 106.139 75.25 106.2 75.2457C106.309 75.2056 106.419 75.2085 106.53 75.2385C106.592 75.2199 106.652 75.1999 106.714 75.1813C106.827 74.8351 107.124 74.5934 107.243 74.2458C107.48 73.5492 107.15 72.9484 106.425 72.8311V72.8325Z" fill="#37557F"/>
<path d="M118.64 41.9163C118.515 42.1137 118.835 42.3955 119.032 42.2596C119.4 42.0078 119.69 41.6631 119.848 41.2382C119.9 41.098 119.867 40.9307 119.755 40.8005C119.629 40.656 119.65 40.4787 119.653 40.3084C119.655 40.2112 119.619 40.0896 119.745 40.0395C119.868 39.9909 119.927 40.0839 119.992 40.1682C120.041 40.2312 120.049 40.3785 120.145 40.3413C120.572 40.1811 120.334 40.45 120.311 40.5817C120.299 40.6446 120.266 40.7104 120.334 40.749C120.471 40.7533 120.457 40.5216 120.667 40.6031C120.499 40.9965 120.322 41.3884 120.23 41.8104C120.375 41.932 120.57 41.8333 120.737 41.9349C120.645 42.2653 120.354 42.5628 120.537 42.9748C120.7 42.9462 120.76 42.8618 120.797 42.7659C120.918 42.4512 121.166 42.2739 121.462 42.1537C121.679 42.065 121.865 41.8834 122.134 41.9377C122.225 41.9563 122.294 41.8748 122.317 41.7861C122.392 41.49 122.491 41.1982 122.228 40.9221C122.062 40.7476 121.913 40.5631 121.712 40.4229C120.741 39.7391 119.929 38.9281 119.586 37.7479C119.568 37.6893 119.545 37.6149 119.451 37.6235C119.323 37.6964 119.35 37.8266 119.337 37.9425C119.307 38.2143 119.202 38.4045 118.882 38.3745C118.676 38.3544 118.618 38.4689 118.611 38.6548C118.597 38.9724 118.615 39.0096 118.965 39.1755C118.991 39.187 119.01 39.217 119.026 39.2442C119.121 39.4073 119.225 39.566 119.301 39.7377C119.377 39.9093 119.393 40.0881 119.139 40.1268C119.003 40.1482 118.921 40.2212 118.871 40.3385C118.766 40.5774 118.632 40.7934 118.437 40.9722C118.34 41.0608 118.289 41.1638 118.434 41.2683C118.663 41.4313 118.862 41.5715 118.641 41.9191L118.64 41.9163Z" fill="#37557F"/>
<path d="M114.965 35.0274C114.623 35.2119 114.282 35.3592 113.887 35.1804C113.829 35.1547 113.749 35.169 113.682 35.1804C113.481 35.2148 113.413 35.3321 113.524 35.5023C113.637 35.6768 113.755 35.8527 113.809 36.0487C113.913 36.4163 114.149 36.5422 114.46 36.5093C115.177 36.5165 115.8 36.0015 115.892 35.3578C115.899 35.312 115.888 35.2519 115.862 35.2162C115.78 35.1075 115.094 34.9573 114.965 35.0274Z" fill="#37557F"/>
<path d="M127.343 46.6152C127.37 46.7154 127.413 46.8198 127.545 46.804C127.663 46.7897 127.715 46.6982 127.73 46.5895C127.74 46.5223 127.739 46.4536 127.743 46.3849C127.677 45.7055 127.238 45.159 127.076 44.5153C127.061 44.4567 127.001 44.3966 126.918 44.4295C126.848 44.4581 126.823 44.5253 126.813 44.594C126.793 44.7499 126.813 44.9001 126.886 45.0432C127.018 45.3049 127.087 45.5867 127.152 45.8714C127.209 46.1203 127.275 46.3692 127.343 46.6152Z" fill="#37557F"/>
</g>
<mask id="mask1_240_625" style="mask-type:luminance" maskUnits="userSpaceOnUse" x="0" y="19" width="57" height="57">
<path d="M28.3183 75.9081C43.854 75.9081 56.4481 63.3582 56.4481 47.8771C56.4481 32.396 43.854 19.8461 28.3183 19.8461C12.7826 19.8461 0.188477 32.396 0.188477 47.8771C0.188477 63.3582 12.7826 75.9081 28.3183 75.9081Z" fill="white"/>
</mask>
<g mask="url(#mask1_240_625)">
<path d="M34.561 25.4696L34.5684 25.4751L34.561 25.4678V25.4696Z" fill="#37557F"/>
<path d="M33.8174 24.9442C33.8174 24.9442 33.8174 24.946 33.8192 24.9479C33.8192 24.9479 33.821 24.9479 33.8229 24.9479L33.8174 24.9442Z" fill="#37557F"/>
<path d="M35.5142 26.2103C35.516 26.2122 35.5178 26.214 35.5215 26.2158L35.5142 26.2085V26.2103Z" fill="#37557F"/>
<path d="M33.5043 24.7281C33.5043 24.7281 33.5043 24.7318 33.5043 24.7336H33.5079L33.5043 24.7281Z" fill="#37557F"/>
<path d="M33.1901 24.5121C33.1901 24.5121 33.1901 24.5164 33.1901 24.5179C33.1901 24.5179 33.1915 24.5179 33.193 24.5194L33.1901 24.5106V24.5121Z" fill="#37557F"/>
<path d="M4.45458 24.6371C4.45458 24.6371 4.45458 24.6371 4.45641 24.6371C4.45641 24.6371 4.45641 24.6371 4.45641 24.6353L4.45276 24.6389L4.45458 24.6371Z" fill="#37557F"/>
<path d="M35.6276 26.309C35.6276 26.309 35.6276 26.3148 35.6276 26.3177C35.6276 26.3177 35.6276 26.3177 35.629 26.3177L35.6261 26.309H35.6276Z" fill="#37557F"/>
<path d="M48.0907 34.8814C48.2415 35.4192 48.5458 35.9013 48.5688 36.4906C48.5831 36.854 48.6305 37.223 48.6463 37.5906C48.6621 37.9697 48.764 38.323 49.041 38.5977C49.2477 38.8022 49.3855 39.0497 49.4717 39.3157C49.6037 39.7249 49.8406 40.0782 50.0703 40.4272C50.2626 40.719 50.5052 41.0008 50.9086 41.0967C50.8914 40.7948 50.755 40.5874 50.6531 40.3671C50.5784 40.2083 50.4478 40.0396 50.4593 39.8851C50.4966 39.393 50.2081 39.0955 49.8908 38.8094C49.2693 38.2458 49.0784 37.5191 49.0568 36.7195C49.0496 36.4892 49.1128 36.3004 49.3224 36.1874C49.5334 36.0744 49.6942 36.1931 49.8478 36.3175C50.3129 36.6937 50.7808 37.0685 51.0794 37.6049C51.1598 37.7494 51.2402 37.9211 51.4282 37.7451C51.6866 37.5062 51.9493 37.2731 52.2149 37.0428C52.4072 36.8754 52.469 36.6122 52.4345 36.3633C52.3871 36.0186 52.3426 35.6738 52.169 35.352C51.8991 34.8556 51.5574 34.4079 51.2488 33.9373C50.9789 33.5253 51.0206 33.3865 51.4656 33.1648C51.5431 33.1262 51.6321 33.1119 51.7153 33.0862C51.711 32.9131 51.7211 32.7471 51.5933 32.5926C51.2718 32.2036 50.9531 31.8088 50.6631 31.3968C50.5153 31.1865 50.2727 31.1093 50.1176 30.9147C49.7315 30.4327 49.7315 30.3769 50.2411 30.1194C50.1564 30.0908 50.1291 30.0221 50.1191 29.942C50.1033 29.882 50.0674 29.839 50.01 29.8147C49.9784 29.7804 49.9454 29.7461 49.9138 29.7117C49.9009 29.6559 49.8664 29.6173 49.8104 29.6002C49.776 29.5615 49.7401 29.5243 49.7057 29.4857C49.0626 28.6561 48.3218 27.9222 47.5007 27.2685C47.4376 27.2571 47.396 27.2199 47.3744 27.1612L47.3802 27.167C47.3428 27.1312 47.3055 27.094 47.2682 27.0582L47.2725 27.0625C47.2366 27.0268 47.2007 26.9924 47.1634 26.9567C47.1261 26.9224 47.0902 26.888 47.0529 26.8537C47.017 26.8208 46.9797 26.7879 46.9438 26.755L46.9395 26.7521C46.6466 26.7493 46.4457 26.6391 46.427 26.3187C46.3696 26.3044 46.3308 26.2686 46.3122 26.2129C46.2763 26.18 46.239 26.1471 46.2031 26.1142C46.1055 25.9597 45.9547 25.871 45.7954 25.7937C45.7552 25.7608 45.7136 25.7265 45.6734 25.6936C45.6404 25.665 45.6059 25.6364 45.5729 25.6092C45.5557 25.5849 45.5327 25.5734 45.504 25.5749C45.4351 25.5692 45.3877 25.5348 45.3604 25.4719C45.3246 25.4418 45.2887 25.4132 45.2528 25.3832C45.1882 25.3431 45.125 25.3031 45.0604 25.263C45.0001 25.2516 44.9571 25.2187 44.9327 25.1629C44.8982 25.1357 44.8652 25.1071 44.8307 25.0799C44.8135 25.0556 44.7891 25.0456 44.759 25.047C44.6929 25.0413 44.6456 25.0084 44.6183 24.9483C44.4604 24.9541 44.3039 24.9569 44.3039 24.7338C44.1431 24.7424 43.9852 24.7481 43.9895 24.5206C43.9508 24.4892 43.9106 24.4591 43.8718 24.4277H43.869C43.7527 24.4191 43.6235 24.4434 43.5589 24.3061C43.5417 24.1344 43.3895 24.0958 43.2732 24.0243C40.8028 22.5166 38.1557 21.4395 35.3465 20.74C33.6296 20.3123 31.8884 20.0862 30.1256 19.979C29.8428 19.9618 29.5643 19.9275 29.2887 19.8574C29.0174 19.8574 28.7461 19.886 28.4791 19.8302C27.925 19.8874 27.3695 19.9446 26.8154 20.0033C26.9259 20.1263 27.0766 20.102 27.2116 20.0905C27.5489 20.0605 27.7915 20.1821 27.9508 20.5154C27.7456 20.7028 27.4929 20.7114 27.2317 20.7314C26.3517 20.7958 25.4818 20.6312 24.6047 20.6155C24.2214 20.6084 23.8841 20.6913 23.5468 20.8673C23.0214 21.1419 22.463 21.3322 21.8945 21.5095C21.4682 21.6426 21.1021 21.4008 20.7016 21.448C20.6069 21.4595 20.5696 21.3508 20.6284 21.2535C20.6744 21.1791 20.7232 21.1062 20.7691 21.0332C20.5007 21.0446 20.2581 21.1391 20.0226 21.2578C19.9997 21.3107 19.9695 21.3293 19.9236 21.2792C19.8346 21.305 19.7456 21.3322 19.6566 21.3579L19.6336 21.3651C19.3939 21.3922 19.1743 21.4738 18.9633 21.5882C18.9704 21.7055 18.9503 21.8486 19.1082 21.8786C19.5016 21.9544 19.6322 22.2133 19.6365 22.5795C19.6365 22.6611 19.681 22.7426 19.7054 22.8241C20.1834 22.694 20.5882 22.8499 20.9873 23.1088C21.3562 23.3477 21.7653 23.5222 22.1414 23.7511C22.5089 23.9742 22.9611 24.1044 23.1247 24.5764C23.1534 24.658 23.2381 24.728 23.3358 24.6837C23.4319 24.6394 23.4176 24.5378 23.4018 24.4534C23.3314 24.0901 23.1664 23.8025 22.8061 23.6395C22.2606 23.3934 21.7452 23.0945 21.2055 22.6925C21.4237 22.6096 21.5744 22.6296 21.7352 22.6954C22.44 22.9843 23.096 23.3448 23.6587 23.8741C24.1698 24.3561 24.721 24.7967 25.255 25.253C25.4316 25.4047 25.6354 25.5191 25.8593 25.5692C26.8111 25.7837 27.7671 25.9854 28.7562 26.1985C28.7102 25.9868 28.5509 25.9096 28.3987 25.8538C28.037 25.7194 27.6795 25.562 27.2762 25.5849C26.936 25.6049 26.6747 25.4705 26.4895 25.1243C26.8269 24.9898 27.1542 25.1286 27.4456 24.9526C27.1685 24.9526 26.8915 24.9541 26.6158 24.9526C26.4752 24.9526 26.3316 24.9655 26.201 24.894C26.1192 24.8496 26.0617 24.7767 26.0761 24.6808C26.0861 24.6093 26.1479 24.5521 26.2225 24.5507C26.7479 24.5478 27.279 24.4334 27.7915 24.6479C28.2121 24.8253 28.581 25.1171 29.0476 25.1944C29.1825 25.2173 29.2643 25.3389 29.2385 25.4719C29.1208 26.0941 29.4136 26.5991 29.6835 27.114C29.7079 27.1612 29.7438 27.2084 29.7466 27.2585C29.7567 27.4259 29.962 27.5904 29.8127 27.7463C29.6863 27.8779 29.517 27.7434 29.3648 27.722C29.0346 27.6748 28.7088 27.6032 28.37 27.5961C27.8662 27.5861 27.4168 27.3615 26.9733 27.1441C26.5311 26.9281 26.1048 26.6763 25.588 26.5934C25.4689 26.7793 25.5565 26.9753 25.5349 27.1569C25.5134 27.3458 25.4115 27.4259 25.2536 27.3315C24.876 27.1055 24.4325 26.9724 24.0966 26.7106C23.5224 26.2615 22.8922 25.9811 22.1988 25.8309C21.7108 25.7251 21.7208 25.6679 21.7194 25.2444C21.718 24.791 21.6534 24.6937 21.1969 24.5922C20.5423 24.4463 19.8791 24.3833 19.2044 24.4577C18.5714 24.5264 17.9541 24.6451 17.3498 24.8425C17.2177 24.8854 17.0498 24.9512 16.9421 24.9054C16.5904 24.7538 16.2344 24.7066 15.8597 24.7223C15.8181 24.7238 15.7578 24.6894 15.7348 24.6537C15.6846 24.575 15.7506 24.5135 15.8081 24.482C16.0463 24.3533 16.3033 24.3118 16.5746 24.3275C16.8861 24.3461 17.1718 24.2832 17.3814 24.0243C17.3053 23.8927 17.1962 23.8869 17.0684 23.9384C16.7756 24.0557 16.5215 24.0185 16.3421 23.7382C16.2229 23.5522 16.0708 23.5451 15.8956 23.638C15.8195 23.6781 15.7521 23.7353 15.6746 23.7711C15.3616 23.9141 15.2578 24.1549 15.3631 24.4935C15.353 24.5621 15.3214 24.6122 15.2511 24.6336C15.1362 24.9069 14.8635 24.9769 14.6338 25.0957C14.3496 25.243 14.1142 25.4476 14.097 25.7666C14.0783 26.1227 13.8673 26.2915 13.6132 26.466C13.3232 26.6634 12.9988 26.8051 12.749 27.0683C12.3571 27.4788 12.0327 27.9294 11.7442 28.4186C11.5059 28.822 11.5002 29.1868 11.6466 29.6187C11.8562 30.2381 11.8289 30.8661 11.4528 31.4297C11.3566 31.5727 11.3595 31.67 11.4284 31.8088C11.6925 32.3452 11.9236 32.9002 12.4189 33.2836C12.5438 33.3794 12.6543 33.4967 12.7203 33.6469C12.9787 34.242 13.4653 34.611 14.0022 34.9314C14.3195 35.1217 14.6467 35.2962 14.9554 35.5007C15.1563 35.6338 15.3257 35.6509 15.5411 35.5365C15.9258 35.3305 16.3535 35.2204 16.7584 35.4178C17.3239 35.6939 17.8479 35.548 18.3862 35.3763C18.6202 35.3019 18.8613 35.2433 19.0968 35.1732C19.7241 34.9858 20.1949 35.1775 20.5165 35.7525C20.6485 35.99 20.86 36.0891 21.1509 36.05C21.7093 35.9757 22.0582 36.1101 22.1716 36.5564C22.3094 37.0986 22.384 37.6765 22.0481 38.1843C21.9132 38.3874 21.9376 38.5376 22.0481 38.7121C22.2347 39.0096 22.4228 39.3072 22.6151 39.6018C23.1147 40.3714 23.4204 41.1996 23.4047 42.128C23.4018 42.324 23.4204 42.5142 23.5051 42.6945C23.6372 42.9777 23.5755 43.2395 23.4133 43.4898C23.3458 43.5928 23.2654 43.6886 23.208 43.7973C22.7616 44.6485 22.3912 45.511 22.7529 46.5023C22.8434 46.7484 22.8707 47.0158 22.9453 47.2676C23.1247 47.8698 23.1578 48.4749 23.0243 49.0886C22.9941 49.2287 22.9955 49.3661 23.0243 49.5077C23.1089 49.9368 23.2324 50.3645 23.264 50.7979C23.3114 51.4431 23.6343 52.0968 23.2252 52.7462C23.1333 52.8921 23.1448 53.1396 23.3185 53.2826C23.4678 53.4042 23.663 53.3885 23.8209 53.3041C24.0549 53.1796 24.2774 53.1968 24.5315 53.2268C25.0397 53.2869 25.5751 53.3255 26.0144 52.9994C26.3948 52.719 26.791 52.443 27.0852 52.0639C27.4829 51.5504 27.9896 51.1255 28.3198 50.5562C28.3829 50.4475 28.4748 50.3574 28.5968 50.3216C29.0433 50.1943 29.1897 49.841 29.2327 49.4419C29.2686 49.11 29.3691 48.7882 29.3548 48.4506C29.3461 48.226 29.4509 48.0543 29.6433 47.9213C30.005 47.671 30.351 47.3978 30.7127 47.1489C30.9352 46.9958 31.1462 46.8356 31.2424 46.5796C31.5755 45.6898 31.6702 44.7772 31.5152 43.8345C31.3903 43.0778 31.4061 42.3411 31.7793 41.6274C32.131 40.9536 32.5085 40.3013 32.955 39.6891C33.6756 38.7007 33.9842 37.6278 33.6985 36.4119C33.621 36.0815 33.6182 36.0343 33.2492 36.0515C32.7253 36.0758 32.3664 35.8612 32.1525 35.3935C31.7075 34.4165 31.0931 33.5339 30.6022 32.5783C29.9864 31.3782 29.3504 30.1766 28.5265 29.0923C28.4217 28.955 28.2925 28.7934 28.3772 28.5416C28.5853 28.6503 28.6901 28.812 28.8064 28.9593C29.3189 29.6116 29.7423 30.3225 30.1816 31.0234C30.8175 32.0362 31.4305 33.0633 31.897 34.1676C31.9989 34.4093 32.0664 34.6668 32.1697 34.91C32.2946 35.2032 32.4023 35.2504 32.7095 35.156C32.8588 35.1102 33.0095 35.0688 33.1387 34.9615C33.8162 34.3964 34.0172 33.4295 33.6153 32.6241C33.4416 32.278 33.2564 31.9375 33.0942 31.5856C32.998 31.3768 33.0798 31.2709 33.3023 31.3238C34.0445 31.4998 34.7795 31.3682 35.5058 31.2495C35.9063 31.1851 36.1432 31.3067 36.347 31.6171C36.5394 31.9103 36.7418 32.1993 36.9571 32.4768C37.2112 32.8044 37.4121 32.8458 37.7868 32.6842C37.8356 32.6627 37.8815 32.6356 37.9289 32.6141C38.338 32.4224 38.3438 32.4253 38.3581 32.8988C38.3696 33.2664 38.3452 33.634 38.4529 33.9973C38.796 35.1603 39.195 36.3047 39.6515 37.429C39.7276 37.6164 39.7635 37.8996 39.9917 37.9225C40.2314 37.9468 40.3606 37.685 40.5142 37.522C40.5616 37.4733 40.5903 37.4032 40.6162 37.3389C40.8788 36.6866 41.1659 36.0415 41.1186 35.3119C41.1013 35.053 41.186 34.8327 41.4172 34.6768C42.178 34.1633 42.8541 33.5396 43.5259 32.9245C44.0742 32.4224 44.6714 32.2851 45.3662 32.3309C45.5628 32.3438 45.7006 32.3995 45.7882 32.5826C45.9102 32.8373 46.0452 33.0962 46.2519 33.2836C46.5519 33.5539 46.7213 33.8557 46.8031 34.2605C46.938 34.9271 46.9739 34.9228 47.6142 34.7111C47.8223 34.6425 48.0132 34.6325 48.0836 34.8842L48.0907 34.8814Z" fill="#37557F"/>
<path d="M50.2522 30.1126C50.2522 30.1126 50.2458 30.1158 50.2426 30.1174C50.2458 30.1174 50.2474 30.1206 50.2506 30.1206V30.111L50.2522 30.1126Z" fill="#37557F"/>
<path d="M47.161 26.9525C47.161 26.9525 47.1628 26.9543 47.1647 26.9562L47.1592 26.9525H47.161Z" fill="#37557F"/>
<path d="M15.4405 42.4543C14.974 42.4128 14.6309 42.1482 14.3022 41.8449C13.9863 41.5531 13.6504 41.3157 13.1681 41.4988C13.0145 41.5574 12.8193 41.5116 12.6427 41.503C12.4676 41.493 12.304 41.3672 12.126 41.4258C11.8546 41.5159 11.6508 41.4301 11.4585 41.2441C11.2101 41.0052 10.8943 40.8837 10.5685 40.8036C10.2799 40.7335 9.98134 40.6991 9.68563 40.6562C9.54064 40.6348 9.36695 40.6104 9.36121 40.4445C9.34542 39.868 8.94635 39.4532 8.74251 38.9583C8.47408 38.3074 8.11664 38.1715 7.45057 38.3131C6.97399 38.4147 6.56918 38.3747 6.23759 37.9398C5.91891 37.5207 5.50262 37.1845 5.07484 36.8698C4.86526 36.7168 4.66142 36.6152 4.39155 36.7168C4.28102 36.7583 4.14608 36.7296 4.0255 36.754C3.40106 36.8784 2.73213 36.8798 2.23258 37.3691C2.21822 37.3991 2.20243 37.4277 2.18664 37.4563C2.25411 37.6752 2.14788 37.8211 1.97993 37.9398C1.94691 38.0256 1.9139 38.1115 1.88088 38.1973C1.6914 38.7537 1.68565 39.3788 1.25932 39.8466C1.24352 39.9067 1.2263 39.9653 1.21051 40.0254C1.32822 40.3944 1.12151 40.6791 0.963605 40.9781C0.947814 41.0367 0.932024 41.0954 0.916234 41.154C0.985137 41.2727 0.93633 41.3586 0.838717 41.4301C0.822927 41.4902 0.805701 41.5502 0.789911 41.6118C0.877475 41.7019 0.844459 41.7691 0.748281 41.8235C0.733927 41.8821 0.718136 41.9408 0.703781 41.9994C0.759765 42.2955 0.703781 42.5659 0.511426 42.8033C0.498507 42.8648 0.485587 42.9249 0.472668 42.9864C0.591813 43.1295 0.537265 43.2396 0.403764 43.3326C0.392281 43.3927 0.380797 43.4542 0.369313 43.5143C0.468361 43.7202 0.505684 43.9162 0.273135 44.0635C0.265958 44.1265 0.260216 44.1894 0.253038 44.2524C0.366442 44.4569 0.393716 44.6486 0.174086 44.8059C0.164038 44.9032 0.15399 45.0005 0.143941 45.0978C0.25878 45.3023 0.290361 45.494 0.0649893 45.6485C0.0578119 45.7128 0.0506345 45.7772 0.043457 45.8416C0.192748 46.069 0.0865217 46.3208 0.109489 46.5611C0.129586 46.77 0.0664248 46.9931 0.165473 47.1862C0.541571 47.9215 0.768378 48.7254 1.19472 49.4377C1.45885 49.8797 1.77178 50.2788 2.23545 50.5335C3.06372 50.9869 3.56614 51.6635 3.85898 52.5733C4.65999 55.0594 5.36768 57.5784 6.39118 59.9916C7.27114 62.0686 8.36067 63.9911 10.0732 65.5145C10.5039 65.8979 10.9503 66.2083 11.5317 66.2998C11.8791 66.3542 12.2207 66.4343 12.5667 66.5015C12.7892 66.5444 13.0073 66.5602 13.2112 66.3799C13.0289 66.2841 12.8595 66.2469 12.6887 66.2097C11.8546 66.0323 11.3307 65.5145 11.0594 64.7235C10.979 64.4918 10.9029 64.2572 10.8254 64.024C10.7637 63.8395 10.6976 63.6535 10.534 63.5319C9.91531 63.0713 9.81339 62.4033 9.78181 61.7038C9.76745 61.4063 9.81913 61.103 9.71434 60.8141C9.54638 60.3592 9.54495 59.9701 10.0703 59.7412C10.1435 59.7083 10.1967 59.6197 10.2498 59.551C10.6388 59.0489 10.6173 58.7786 10.1694 58.3108C10 58.1334 9.78468 58.0004 9.66553 57.7758C9.65118 57.7572 9.63682 57.7372 9.62247 57.7186C9.64113 57.7329 9.65979 57.7472 9.67845 57.7615C9.85501 57.7658 10.0345 57.7529 10.2067 57.7787C10.4924 57.8216 10.6058 57.6886 10.6919 57.4339C10.923 56.753 11.1943 56.085 11.4283 55.4041C11.5876 54.9421 11.7125 54.4901 11.602 53.9694C11.4254 53.1426 11.625 52.3988 12.3599 51.8695C12.5911 51.7036 12.8451 51.5805 13.1007 51.4661C13.7208 51.1886 14.1069 50.7123 14.3136 50.0829C14.6208 49.1431 14.5835 48.1789 14.4902 47.2148C14.4715 47.0231 14.384 46.8114 14.4802 46.6469C14.7773 46.1463 14.9036 45.5612 15.2582 45.0963C15.4635 44.8274 15.6156 44.5327 15.7721 44.2381C16.0534 43.7045 15.9515 43.1838 15.7147 42.6689C15.6601 42.5487 15.5797 42.4643 15.4405 42.4529V42.4543Z" fill="#37557F"/>
<path d="M52.9313 43.0264C53.036 43.3054 53.2557 43.4842 53.5313 43.5815C53.9203 43.7188 54.328 43.7731 54.6912 44.0163C54.9984 44.2209 55.2323 44.0735 55.2682 43.7002C55.3012 43.3583 55.3917 43.0522 55.5898 42.7718C55.6271 42.7203 55.6917 42.6531 55.6414 42.583C55.373 42.2139 55.6659 42.1882 55.9142 42.1324C55.8812 42.0537 55.8252 41.9765 55.818 41.895C55.7362 40.9437 55.4046 40.0626 55.0673 39.1814C54.9682 39.2543 54.9653 39.3631 54.9754 39.4675C54.9984 39.7006 54.8893 39.8651 54.7285 40.0196C54.4242 40.3114 54.117 40.6076 53.7581 40.8264C53.5184 40.9723 53.2815 41.1068 53.1624 41.3399C52.9628 41.35 52.9628 41.071 52.7949 41.1397C52.5953 41.2212 52.6312 41.4272 52.6255 41.5989C52.6111 42.0995 52.7561 42.5673 52.9298 43.0279L52.9313 43.0264Z" fill="#37557F"/>
<path d="M51.3595 44.4601C51.3595 44.4601 51.3595 44.4601 51.3595 44.4619C51.3595 44.4619 51.3595 44.4619 51.3613 44.4619C51.3613 44.4619 51.3613 44.4601 51.3613 44.4583C51.3613 44.4583 51.3595 44.4583 51.3577 44.4583L51.3595 44.4601Z" fill="#37557F"/>
<path d="M51.4913 43.6917C51.5989 43.4514 51.5716 43.2655 51.3951 43.0681C51.0663 42.7004 50.7907 42.2913 50.5754 41.8465C50.4649 41.619 50.3012 41.4445 50.096 41.2957C49.4859 40.8494 48.8629 40.4189 48.3604 39.8453C48.1839 39.6436 47.9485 39.5163 47.7217 39.3818C47.6212 39.3217 47.5092 39.2387 47.3685 39.3603C47.3786 39.6007 47.5566 39.7494 47.703 39.9196C48.1379 40.4246 48.5916 40.9195 48.8758 41.5332C49.2548 42.35 49.7514 43.0967 50.2783 43.8205C50.5309 44.1681 50.8352 44.5228 51.3563 44.4613C51.3161 44.191 51.3807 43.9335 51.4884 43.6932L51.4913 43.6917Z" fill="#37557F"/>
<path d="M54.2848 45.5556C54.1527 45.5027 54.035 45.4255 54.0063 45.2667C53.9833 45.1365 53.8843 45.1122 53.7723 45.1065C52.9225 45.0636 52.1272 44.8175 51.3607 44.4628C51.309 44.8132 51.464 45.0121 51.8014 45.1179C52.5349 45.3482 53.267 45.5871 53.9905 45.8446C54.7858 46.1264 55.5853 46.3624 56.4394 46.3567C56.4423 46.2866 56.4452 46.2179 56.4481 46.1478C55.6829 46.1078 54.9824 45.8331 54.2848 45.5542V45.5556Z" fill="#37557F"/>
</g>
<path d="M170.715 36.1953C166.525 36.1953 163.596 33.2559 163.596 29.3496C163.596 25.4434 166.525 22.543 170.715 22.543C173.215 22.543 175.412 23.8711 176.486 25.8633L173.654 27.8262C173.127 26.8203 172.258 25.9512 170.715 25.9512C168.771 25.9512 167.541 27.3281 167.541 29.3496C167.541 31.3516 168.82 32.7871 170.715 32.7871C172.062 32.7871 173.137 32.0938 173.84 30.8926L176.623 32.8359C175.656 34.7793 173.254 36.1953 170.715 36.1953ZM182.448 22.7383V36H178.552V22.7383H182.448ZM188.615 36L184.025 22.7383H188.205L190.929 31.8789L193.625 22.7383H197.804L193.244 36H188.615ZM203.278 22.7383V36H199.381V22.7383H203.278ZM216.681 32.8945V36H206.417V22.7383H210.314V32.8945H216.681ZM221.739 33.1289L224.522 31.1855C225.304 32.3379 226.397 32.9727 227.618 32.9727C228.468 32.9727 229.112 32.6016 229.112 32.1035C229.112 31.4785 228.399 31.3027 226.651 30.7754C224.464 30.1211 222.218 29.2617 222.218 26.5957C222.218 24.0957 224.679 22.543 227.286 22.543C229.796 22.543 231.378 23.7148 232.501 25.4531L229.854 27.2891C229.327 26.4199 228.38 25.7559 227.247 25.7559C226.612 25.7559 225.987 26.0195 225.987 26.5859C225.987 27.2012 226.778 27.5039 227.774 27.7871C230.763 28.627 232.882 29.584 232.882 32.1133C232.882 34.8379 230.098 36.1953 227.589 36.1953C224.962 36.1953 222.911 35.0625 221.739 33.1289ZM241.343 36.1953C237.242 36.1953 234.302 33.3828 234.302 29.3496C234.302 25.3359 237.242 22.543 241.343 22.543C245.406 22.543 248.326 25.3457 248.326 29.3594C248.326 33.3926 245.406 36.1953 241.343 36.1953ZM238.257 29.3594C238.257 31.3613 239.507 32.7285 241.363 32.7285C243.17 32.7285 244.38 31.3613 244.38 29.3594C244.38 27.3867 243.17 26.0391 241.363 26.0391C239.507 26.0391 238.257 27.3867 238.257 29.3594ZM256.846 36.1953C252.657 36.1953 249.727 33.2559 249.727 29.3496C249.727 25.4434 252.657 22.543 256.846 22.543C259.346 22.543 261.543 23.8711 262.618 25.8633L259.786 27.8262C259.258 26.8203 258.389 25.9512 256.846 25.9512C254.903 25.9512 253.672 27.3281 253.672 29.3496C253.672 31.3516 254.952 32.7871 256.846 32.7871C258.194 32.7871 259.268 32.0938 259.971 30.8926L262.754 32.8359C261.787 34.7793 259.385 36.1953 256.846 36.1953ZM268.579 22.7383V36H264.683V22.7383H268.579ZM271.719 36V22.7383H281.406V25.8633H275.605V27.6992H280.693V30.8145H275.605V32.8848H281.504V36H271.719ZM282.329 25.9219V22.7383H293.882V25.9219H290.005V36H286.108V25.9219H282.329ZM294.004 22.7383H298.613L301.162 27.7676L303.75 22.7383H308.183L303.056 31.0195V36H299.17V31.0195L294.004 22.7383ZM164.328 92V81.3906H166.562L169.984 88.4531L173.398 81.3906H175.633V92H173.523V85.4922L170.664 91.2891H169.297L166.438 85.4922V92H164.328ZM181.5 92.1641C179.094 92.1641 177.547 90.4297 177.547 88.2422C177.555 85.9531 179.18 84.3438 181.406 84.3438C183.469 84.3438 185.039 85.7266 185.039 88C185.039 88.2734 185.016 88.5547 184.969 88.8516H179.547C179.695 89.7344 180.594 90.3516 181.547 90.3516C182.289 90.3516 182.93 90.0078 183.414 89.2969L184.836 90.3594C184.133 91.5312 182.82 92.1641 181.5 92.1641ZM179.578 87.5078H183.172C183.07 86.6719 182.383 86.0312 181.43 86.0312C180.438 86.0312 179.688 86.6562 179.578 87.5078ZM190.18 92.1562C187.93 92.1562 186.227 90.4219 186.227 88.2344C186.227 86.0391 188 84.3203 190.227 84.3203C191.633 84.3203 193.023 85.0547 193.711 86.4609L192.188 87.4297C191.75 86.5625 190.984 86.1641 190.258 86.1641C189.055 86.1641 188.219 87.0859 188.219 88.2734C188.219 89.4375 189.078 90.3438 190.227 90.3438C191.039 90.3438 191.719 89.9609 192.227 89.0469L193.672 90.0625C192.984 91.4297 191.586 92.1562 190.18 92.1562ZM197.289 92H195.281V81H197.289V85.2969C197.68 84.8203 198.461 84.3438 199.539 84.3438C201.258 84.3438 202.484 85.4844 202.484 87.2891V92H200.477V87.8047C200.477 86.7656 199.812 86.2031 198.945 86.2031C198.07 86.2031 197.289 86.7656 197.289 87.8047V92ZM206.992 92.1562C205.289 92.1562 204.156 91.2422 204.156 89.8516C204.156 88.4375 205.453 87.4531 207.445 87.4531C207.961 87.4531 208.539 87.5391 209.023 87.7109V87.5391C209.023 86.7109 208.352 86.1094 207.398 86.1094C206.531 86.1094 205.906 86.5312 205.414 87.0547L204.266 85.9062C204.773 85.25 205.883 84.3438 207.461 84.3438C209.656 84.3438 211.023 85.5078 211.023 87.3828V92H209.117V91.1641C208.711 91.7734 207.938 92.1562 206.992 92.1562ZM207.586 88.7891C206.672 88.7891 206.055 89.1719 206.055 89.7422C206.055 90.3047 206.539 90.6641 207.305 90.6641C208.266 90.6641 209.023 90.0234 209.023 89.0781C208.656 88.9141 208.18 88.7891 207.586 88.7891ZM215.203 92H213.203V84.5H215.109L215.148 85.3672C215.539 84.8438 216.344 84.3438 217.461 84.3438C219.195 84.3438 220.422 85.4844 220.422 87.2891V92H218.422V87.8047C218.422 86.7656 217.75 86.2031 216.867 86.2031C215.984 86.2031 215.203 86.7656 215.203 87.8047V92ZM222.438 82.0938C222.438 81.4141 222.906 80.9375 223.586 80.9375C224.266 80.9375 224.742 81.4062 224.742 82.0938C224.742 82.7734 224.266 83.2422 223.586 83.2422C222.906 83.2422 222.438 82.7734 222.438 82.0938ZM224.602 92H222.594V84.5H224.602V92ZM226.297 90.4141L227.641 89.3281C228.094 90.0312 228.859 90.4844 229.617 90.4844C230.219 90.4844 230.688 90.25 230.688 89.8281C230.688 89.4297 230.289 89.2891 229.375 89.0859C227.734 88.7188 226.578 88.1953 226.578 86.6562C226.578 85.25 227.875 84.3438 229.508 84.3438C231.031 84.3438 231.977 85.0938 232.516 85.9062L231.234 86.9609C230.906 86.4375 230.352 86.0312 229.555 86.0312C228.906 86.0312 228.461 86.2578 228.461 86.6328C228.461 87.0391 228.938 87.1719 229.867 87.3984C231.539 87.8047 232.602 88.3438 232.602 89.8281C232.602 91.2422 231.242 92.1562 229.641 92.1562C228.164 92.1562 226.977 91.4766 226.297 90.4141ZM236.398 92H234.391V84.5H236.297L236.336 85.3672C236.719 84.8438 237.531 84.3438 238.633 84.3438C239.773 84.3438 240.711 84.8203 241.148 85.6719C241.68 84.875 242.633 84.3438 243.75 84.3438C245.469 84.3438 246.695 85.4609 246.695 87.2891V92H244.688V87.8047C244.688 86.7656 244.047 86.2031 243.188 86.2031C242.328 86.2031 241.539 86.7422 241.539 87.7578V92H239.531V87.8047C239.531 86.7656 238.883 86.2031 238.039 86.2031C237.172 86.2031 236.398 86.7656 236.398 87.8047V92Z" fill="#37557F"/>
<path d="M164.685 56V40.749H176.128V44.3315H169.166V46.5776H174.624V50.1714H169.166V56H164.685ZM182.642 40.749V56H178.161V40.749H182.642ZM186.022 56V40.749H189.672L196.175 48.8911V40.749H200.532V56H197.04L190.38 47.8354V56H186.022ZM206.821 56H202.037L207.899 40.749H213.245L219.096 56H214.312L213.324 53.4507H207.81L206.821 56ZM210.572 44.9717L208.82 50.0703H212.313L210.572 44.9717ZM220.612 56V40.749H224.262L230.765 48.8911V40.749H235.122V56H231.629L224.97 47.8354V56H220.612ZM245.679 56.2246C240.861 56.2246 237.492 52.8442 237.492 48.3521C237.492 43.8599 240.861 40.5244 245.679 40.5244C248.554 40.5244 251.081 42.0518 252.316 44.3428L249.059 46.6001C248.453 45.4434 247.453 44.4438 245.679 44.4438C243.444 44.4438 242.029 46.0273 242.029 48.3521C242.029 50.6543 243.5 52.3052 245.679 52.3052C247.229 52.3052 248.464 51.5078 249.272 50.1265L252.473 52.3613C251.361 54.5962 248.599 56.2246 245.679 56.2246ZM258.942 40.749V56H254.461V40.749H258.942ZM262.322 56V40.749H265.972L272.475 48.8911V40.749H276.832V56H273.339L266.68 47.8354V56H262.322ZM279.202 48.3633C279.202 43.8599 282.571 40.5244 287.389 40.5244C290.05 40.5244 292.499 41.8384 293.812 43.9722L290.556 46.2295C289.871 45.0503 288.736 44.4438 287.389 44.4438C285.154 44.4438 283.739 46.0273 283.739 48.3521C283.739 50.6543 285.21 52.3052 287.389 52.3052C288.804 52.3052 289.826 51.6987 290.219 50.5083H286.872V47.229H294.733C294.767 47.6108 294.79 48.105 294.79 48.6665C294.79 53.3721 291.69 56.2246 287.389 56.2246C282.571 56.2246 279.202 52.8442 279.202 48.3633ZM302.258 56V40.749H313.702V44.3315H306.739V46.5776H312.197V50.1714H306.739V56H302.258ZM322.372 56.2246C317.655 56.2246 314.274 52.9902 314.274 48.3521C314.274 43.7363 317.655 40.5244 322.372 40.5244C327.043 40.5244 330.401 43.7476 330.401 48.3633C330.401 53.0015 327.043 56.2246 322.372 56.2246ZM318.823 48.3633C318.823 50.6655 320.26 52.2378 322.394 52.2378C324.472 52.2378 325.864 50.6655 325.864 48.3633C325.864 46.0947 324.472 44.5449 322.394 44.5449C320.26 44.5449 318.823 46.0947 318.823 48.3633ZM337.241 56H332.782V40.749H340.475C343.429 40.749 345.843 42.8154 345.843 45.8027C345.843 47.8804 344.731 49.4751 343.103 50.3062L346.191 56.0112H341.418L338.734 50.8901H337.241V56ZM339.723 44.3765H337.241V47.4087H339.723C340.677 47.4087 341.284 46.645 341.284 45.8027C341.284 45.0054 340.711 44.3765 339.723 44.3765ZM164.685 76V60.749H171.4C175.713 60.749 179.172 64.1406 179.172 68.3633C179.172 72.5747 175.713 76 171.4 76H164.685ZM171.165 64.354H169.166V72.4062H171.131C173.208 72.4062 174.635 70.5083 174.635 68.3633C174.635 66.2295 173.231 64.354 171.165 64.354ZM181.553 76V60.749H192.693V64.3428H186.022V66.4541H191.874V70.0366H186.022V72.4175H192.806V76H181.553ZM198.668 76L193.39 60.749H198.196L201.33 71.2607L204.429 60.749H209.236L203.991 76H198.668ZM210.819 76V60.749H221.96V64.3428H215.289V66.4541H221.14V70.0366H215.289V72.4175H222.072V76H210.819ZM236.256 72.4287V76H224.453V60.749H228.934V72.4287H236.256ZM244.14 76.2246C239.423 76.2246 236.043 72.9902 236.043 68.3521C236.043 63.7363 239.423 60.5244 244.14 60.5244C248.812 60.5244 252.17 63.7476 252.17 68.3633C252.17 73.0015 248.812 76.2246 244.14 76.2246ZM240.591 68.3633C240.591 70.6655 242.029 72.2378 244.163 72.2378C246.24 72.2378 247.633 70.6655 247.633 68.3633C247.633 66.0947 246.24 64.5449 244.163 64.5449C242.029 64.5449 240.591 66.0947 240.591 68.3633ZM259.032 76H254.551V60.749H262.131C265.096 60.749 267.5 62.9053 267.5 65.9487C267.5 68.9585 265.096 71.2158 262.131 71.2158H259.032V76ZM259.032 64.3765V67.5884H261.39C262.367 67.5884 262.951 66.7798 262.951 65.9487C262.951 65.0728 262.378 64.3765 261.39 64.3765H259.032ZM269.51 76V60.749H274.193L278.157 69.52L282.133 60.749H286.816V76H282.391V68.4082L279.494 75.1353H276.832L273.935 68.4082V76H269.51ZM290.196 76V60.749H301.337V64.3428H294.666V66.4541H300.517V70.0366H294.666V72.4175H301.449V76H290.196ZM303.83 76V60.749H307.48L313.982 68.8911V60.749H318.34V76H314.847L308.188 67.8354V76H303.83ZM320.047 64.4102V60.749H333.333V64.4102H328.874V76H324.393V64.4102H320.047Z" fill="#EC6500"/>
</svg>
