<svg width="35" height="37" viewBox="0 0 35 37" fill="none" xmlns="http://www.w3.org/2000/svg">
<g id="Share Icons">
<circle id="Ellipse 13" cx="17.5" cy="18.6559" r="17.5" fill="#37557F"/>
<g id="Vector">
<path d="M26 14.2491V22.5309C26 23.2005 25.7515 23.8448 25.3053 24.3319C24.8591 24.8191 24.2489 25.1123 23.5996 25.1516L23.45 25.1559H11.55C10.8996 25.156 10.2737 24.9002 9.80048 24.4408C9.32724 23.9815 9.04241 23.3534 9.00425 22.6849L9 22.5309V14.2491L17.0282 19.7589L17.1268 19.8167C17.243 19.8751 17.3707 19.9055 17.5 19.9055C17.6293 19.9055 17.757 19.8751 17.8731 19.8167L17.9717 19.7589L26 14.2491Z" fill="white"/>
<path d="M23.45 11.1559C24.368 11.1559 25.173 11.6547 25.6218 12.4046L17.5 17.9783L9.37829 12.4046C9.59141 12.0482 9.88422 11.7495 10.2323 11.5334C10.5804 11.3173 10.9736 11.1899 11.3792 11.1621L11.55 11.1559H23.45Z" fill="white"/>
</g>
</g>
</svg>
