<svg xmlns="http://www.w3.org/2000/svg" width="55" height="55" viewBox="0 0 55 55" fill="none">
  <circle cx="27.5" cy="27.5" r="27.5" fill="#37557F"/>
  <path d="M19.9137 38.1445C19.9131 38.4251 19.8156 38.6968 19.6376 38.9137C19.4596 39.1306 19.212 39.2793 18.9369 39.3346L18.7283 39.3535C18.074 39.3535 17.543 38.813 17.543 38.1445L17.543 16.8557C17.543 16.263 17.9768 15.7675 18.5197 15.6656L18.7283 15.6466C19.3826 15.6466 19.9137 16.1871 19.9137 16.8557L19.9137 26.3313L38.3861 26.3313L33.5025 21.4477C33.3892 21.3384 33.2989 21.2076 33.2368 21.0629C33.1747 20.9183 33.142 20.7628 33.1406 20.6054C33.1393 20.448 33.1692 20.2919 33.2288 20.1462C33.2884 20.0006 33.3765 19.8682 33.4878 19.7569C33.5991 19.6456 33.7314 19.5576 33.8771 19.498C34.0227 19.4384 34.1788 19.4084 34.3362 19.4098C34.4936 19.4112 34.6492 19.4439 34.7938 19.506C34.9384 19.5681 35.0692 19.6584 35.1785 19.7716L40.2068 24.7975C40.5532 25.1421 40.8246 25.5545 41.0041 26.009C41.1836 26.4635 41.2673 26.9501 41.2499 27.4384L41.2499 27.5167C41.2499 27.6109 41.2388 27.7048 41.2167 27.7964C41.1121 28.5661 40.7572 29.28 40.2068 29.8281L35.1809 34.8587C34.9583 35.0813 34.6564 35.2063 34.3417 35.2063C34.0269 35.2063 33.725 35.0813 33.5025 34.8587C33.2799 34.6361 33.1548 34.3342 33.1548 34.0195C33.1548 33.7047 33.2799 33.4028 33.5025 33.1802L37.9831 28.702L19.9137 28.702L19.9137 38.1445Z" fill="#EEF5FE"/>
</svg>