<svg width="45" height="45" viewBox="0 0 45 45" fill="none" xmlns="http://www.w3.org/2000/svg">
<circle cx="22.5" cy="22.5" r="22.5" fill="#37557F"/>
<path d="M23.0286 13.0012C23.7583 12.9984 24.488 13.0058 25.2176 13.0232L25.4116 13.0302C25.6356 13.0382 25.8566 13.0482 26.1236 13.0602C27.1876 13.1102 27.9136 13.2782 28.5506 13.5252C29.2106 13.7792 29.7666 14.1232 30.3226 14.6792C30.831 15.1788 31.2244 15.7832 31.4756 16.4502C31.7226 17.0872 31.8906 17.8142 31.9406 18.8782C31.9526 19.1442 31.9626 19.3662 31.9706 19.5902L31.9766 19.7842C31.9943 20.5134 32.002 21.2428 31.9996 21.9722L32.0006 22.7182V24.0282C32.003 24.758 31.9954 25.4877 31.9776 26.2172L31.9716 26.4112C31.9636 26.6352 31.9536 26.8562 31.9416 27.1232C31.8916 28.1872 31.7216 28.9132 31.4756 29.5502C31.2252 30.218 30.8317 30.8228 30.3226 31.3222C29.8225 31.8306 29.2179 32.224 28.5506 32.4752C27.9136 32.7222 27.1876 32.8902 26.1236 32.9402C25.8566 32.9522 25.6356 32.9622 25.4116 32.9702L25.2176 32.9762C24.4881 32.994 23.7583 33.0017 23.0286 32.9992L22.2826 33.0002H20.9736C20.2438 33.0027 19.5141 32.995 18.7846 32.9772L18.5906 32.9712C18.3532 32.9626 18.1158 32.9526 17.8786 32.9412C16.8146 32.8912 16.0886 32.7212 15.4506 32.4752C14.7833 32.2246 14.1788 31.8311 13.6796 31.3222C13.1706 30.8225 12.7768 30.2178 12.5256 29.5502C12.2786 28.9132 12.1106 28.1872 12.0606 27.1232C12.0494 26.8859 12.0394 26.6486 12.0306 26.4112L12.0256 26.2172C12.0071 25.4877 11.9988 24.758 12.0006 24.0282V21.9722C11.9978 21.2428 12.0051 20.5134 12.0226 19.7842L12.0296 19.5902C12.0376 19.3662 12.0476 19.1442 12.0596 18.8782C12.1096 17.8132 12.2776 17.0882 12.5246 16.4502C12.7759 15.7829 13.1705 15.1787 13.6806 14.6802C14.1795 14.171 14.7835 13.7768 15.4506 13.5252C16.0886 13.2782 16.8136 13.1102 17.8786 13.0602L18.5906 13.0302L18.7846 13.0252C19.5138 13.0068 20.2432 12.9985 20.9726 13.0002L23.0286 13.0012ZM22.0006 18.0002C20.6745 18.0002 19.4027 18.527 18.465 19.4647C17.5274 20.4024 17.0006 21.6741 17.0006 23.0002C17.0006 24.3263 17.5274 25.5981 18.465 26.5358C19.4027 27.4734 20.6745 28.0002 22.0006 28.0002C23.3267 28.0002 24.5984 27.4734 25.5361 26.5358C26.4738 25.5981 27.0006 24.3263 27.0006 23.0002C27.0006 21.6741 26.4738 20.4024 25.5361 19.4647C24.5984 18.527 23.3267 18.0002 22.0006 18.0002ZM22.0006 20.0002C22.3945 20.0002 22.7847 20.0777 23.1487 20.2284C23.5127 20.3791 23.8434 20.6 24.122 20.8786C24.4007 21.1571 24.6217 21.4878 24.7725 21.8517C24.9233 22.2157 25.001 22.6058 25.0011 22.9997C25.0011 23.3937 24.9236 23.7838 24.7729 24.1478C24.6222 24.5118 24.4013 24.8426 24.1228 25.1212C23.8442 25.3998 23.5135 25.6209 23.1496 25.7717C22.7856 25.9225 22.3955 26.0002 22.0016 26.0002C21.2059 26.0002 20.4429 25.6842 19.8803 25.1216C19.3176 24.5589 19.0016 23.7959 19.0016 23.0002C19.0016 22.2046 19.3176 21.4415 19.8803 20.8789C20.4429 20.3163 21.2059 20.0002 22.0016 20.0002M27.2516 16.5002C26.929 16.5131 26.6239 16.6504 26.4002 16.8832C26.1765 17.116 26.0516 17.4264 26.0516 17.7492C26.0516 18.0721 26.1765 18.3824 26.4002 18.6153C26.6239 18.8481 26.929 18.9853 27.2516 18.9982C27.5831 18.9982 27.901 18.8665 28.1355 18.6321C28.3699 18.3977 28.5016 18.0798 28.5016 17.7482C28.5016 17.4167 28.3699 17.0988 28.1355 16.8643C27.901 16.6299 27.5831 16.4982 27.2516 16.4982" fill="white"/>
</svg>
