<svg width="45" height="45" viewBox="0 0 45 45" fill="none" xmlns="http://www.w3.org/2000/svg">
<circle cx="22.5" cy="22.5" r="22.5" fill="white"/>
<path d="M18.0291 30H14.2973V18.65H18.0291V30ZM16.1612 17.1017C14.9679 17.1017 14 16.1682 14 15.0412C14 14.4998 14.2277 13.9806 14.633 13.5978C15.0383 13.2151 15.588 13 16.1612 13C16.7344 13 17.2841 13.2151 17.6894 13.5978C18.0947 13.9806 18.3224 14.4998 18.3224 15.0412C18.3224 16.1682 17.3541 17.1017 16.1612 17.1017ZM31.996 30H28.2722V24.4749C28.2722 23.1581 28.2441 21.4695 26.332 21.4695C24.3918 21.4695 24.0945 22.9001 24.0945 24.38V30H20.3667V18.65H23.9458V20.1982H23.998C24.4963 19.3065 25.7133 18.3654 27.5289 18.3654C31.3057 18.3654 32 20.7143 32 23.7653V30H31.996Z" fill="#37557F"/>
</svg>
