<svg width="45" height="45" viewBox="0 0 45 45" fill="none" xmlns="http://www.w3.org/2000/svg">
<circle cx="22.5" cy="22.5" r="22.5" fill="#37557F"/>
<path d="M34.4985 16.8164C34.2225 15.7078 33.4092 14.8347 32.3766 14.5384C30.505 14 23 14 23 14C23 14 15.495 14 13.6234 14.5384C12.5908 14.8347 11.7775 15.7078 11.5015 16.8164C11 18.8258 11 23.0182 11 23.0182C11 23.0182 11 27.2106 11.5015 29.22C11.7775 30.3286 12.5908 31.1653 13.6234 31.4616C15.495 32 23 32 23 32C23 32 30.505 32 32.3766 31.4616C33.4092 31.1653 34.2225 30.3286 34.4985 29.22C35 27.2106 35 23.0182 35 23.0182C35 23.0182 35 18.8258 34.4985 16.8164ZM20.5454 26.8246V19.2118L26.8181 23.0183L20.5454 26.8246Z" fill="white"/>
</svg>
