<svg width="66" height="57" viewBox="0 0 66 57" fill="none" xmlns="http://www.w3.org/2000/svg">
<g clip-path="url(#clip0_1616_7903)">
<path d="M38.0753 49.8686C37.7286 50.2732 37.2801 50.6514 36.8572 51C34.1249 48.1158 30.9172 44.9193 27.8682 44.9193C25.9778 44.9193 24.6163 46.3891 23.0279 47.4261C20.8237 48.8652 17.8 49.6757 15.2089 48.6195C13.8152 48.079 12.465 47.2829 11.4559 45.9895C13.4953 47.4261 16.5493 47.6192 18.8516 46.6436C21.3964 45.5653 23.9866 44.1334 26.8867 44.1334C31.1619 44.1334 35.225 47.0871 38.0753 49.8686ZM6.47805 40.7975C9.30855 44.0885 13.9251 43.0297 17.7036 43.8516C18.2295 43.966 18.7236 44.1444 19.2882 44.0559C18.8389 43.765 18.2435 43.7322 17.7246 43.5325C14.7928 42.4044 14.3357 39.1995 12.7312 36.9937C14.7805 38.3853 16.4783 40.2905 18.3947 42.0809C19.7285 43.3269 21.3902 43.8601 23.1136 44.2182C22.6995 44.3728 22.1577 44.3364 21.7118 44.4494C18.6161 45.2338 15.184 46.4719 11.89 45.3616C9.76431 44.6451 7.55219 42.9482 6.47805 40.7975ZM1.9409 33.1805C3.70647 37.2635 8.14233 37.5832 11.0918 40.088C11.6526 40.5643 12.2085 41.0025 12.8246 41.296L12.8564 41.2632C12.1758 40.6341 11.4393 39.8845 10.9121 39.1022C9.22632 36.6004 9.78731 33.1807 8.48754 30.5282C9.66842 31.9725 10.776 33.4597 11.456 35.1133C12.5503 37.7743 12.922 40.81 15.3762 42.8321C12.72 41.937 9.65591 42.1152 7.26406 40.515C4.74988 38.833 2.41979 36.1782 1.9409 33.1805ZM0.0496244 24.9201C0.304902 28.5173 4.05437 30.4389 5.84219 33.3958C6.22404 34.0274 6.61698 34.6794 7.17148 35.1894C7.08505 34.8064 6.77652 34.4671 6.60669 34.0913C6.03327 32.8226 5.77374 31.3543 5.91687 29.8445C6.09101 28.0076 6.84073 26.3019 6.55299 24.3695C8.09401 27.7669 7.59691 32.0141 8.48754 35.6877C8.68457 36.5004 9.16908 37.2115 9.46764 37.9812C7.95355 36.8047 5.96933 35.7604 4.30737 34.4224C2.70011 33.1284 1.30499 31.6117 0.579817 29.6382C0.057273 28.2162 -0.0786154 26.5199 0.0496244 24.9201ZM0.154353 18.2923C0.335226 17.4895 0.47362 16.6585 0.815593 15.922C0.168115 19.3153 2.37826 21.7665 3.13286 24.7024C3.41722 25.8087 3.51451 26.9843 3.95253 28.0166C3.9934 28.039 4.0288 27.9956 4.05405 27.9621C2.96361 24.8377 4.56209 21.9502 6.11925 19.4874C6.52855 18.84 6.72558 18.0863 6.91674 17.3242C7.08505 18.7386 6.79032 20.3759 6.53416 21.8354C6.20436 23.7145 5.57556 25.4756 5.07583 27.2885C4.74681 28.4211 4.83351 29.6993 5.00236 30.886L4.84366 30.7566C3.68429 28.5705 1.39697 26.8628 0.706187 24.4768C0.154099 22.5699 -0.227828 20.3669 0.154353 18.2923ZM1.37717 14.642C1.37717 12.0742 2.35607 9.97935 3.82442 8.06697C3.86703 8.04527 3.89736 8.00161 3.95239 8.01184C2.3359 10.5234 3.8072 13.6937 3.59947 16.5424L3.38627 19.4661C3.41793 19.4874 3.41793 19.5751 3.493 19.5416C3.58851 19.2156 3.6175 18.8689 3.67307 18.5323C4.06222 16.1752 6.08858 14.5346 7.80707 12.8706C8.21357 12.477 8.51119 12.0115 8.70288 11.5113C8.55995 12.6854 8.2393 13.889 7.72332 14.956C6.40055 17.6912 3.84579 19.8992 3.38627 23.0076C3.16345 20.0285 1.37717 17.8139 1.37717 14.642ZM5.63808 5.9798C6.45093 5.05929 7.36197 4.34221 8.44653 4.05854C6.34046 5.53772 6.45481 8.18132 5.81 10.3917C5.57423 11.1999 5.22771 11.9571 5.0435 12.7924L5.0968 12.8359C5.44719 11.8916 6.04838 10.9839 6.83165 10.229C8.31298 8.80151 10.5401 7.93748 11.273 5.84936C11.2395 8.75109 8.81792 10.9569 6.60616 12.6633C5.61415 13.4287 4.77112 14.4563 4.25669 15.5335C4.34265 14.7318 4.38169 14.0648 4.3116 13.2822C4.08458 10.7474 3.93735 7.90578 5.63808 5.9798ZM14.1863 1.10127C12.6233 2.50214 11.5803 4.30524 10.3796 5.92618C9.38095 7.27434 8.01065 8.10967 6.83218 9.24092C7.46831 7.89286 7.58576 6.3482 8.39363 5.04407C9.77509 2.81404 12.0582 1.94845 14.1863 1.10127Z" fill="#3498DB"/>
<path d="M21.9247 49.8686C22.2714 50.2732 22.7199 50.6514 23.1428 51C25.8751 48.1158 29.0828 44.9193 32.1318 44.9193C34.0222 44.9193 35.3837 46.3891 36.972 47.4261C39.1763 48.8652 42.2 49.6757 44.7911 48.6195C46.1848 48.079 47.535 47.2829 48.5441 45.9895C46.5047 47.4261 43.4507 47.6192 41.1484 46.6436C38.6036 45.5653 36.0134 44.1334 33.1132 44.1334C28.8381 44.1334 24.775 47.0871 21.9247 49.8686ZM53.5219 40.7975C50.6915 44.0885 46.0749 43.0297 42.2964 43.8516C41.7705 43.966 41.2764 44.1444 40.7118 44.0559C41.1611 43.765 41.7565 43.7322 42.2754 43.5325C45.2072 42.4044 45.6643 39.1995 47.2688 36.9937C45.2195 38.3853 43.5217 40.2905 41.6053 42.0809C40.2715 43.3269 38.6098 43.8601 36.8864 44.2182C37.3005 44.3728 37.8423 44.3364 38.2882 44.4494C41.3839 45.2338 44.816 46.4719 48.11 45.3616C50.2357 44.6451 52.4478 42.9482 53.5219 40.7975ZM58.0591 33.1805C56.2935 37.2635 51.8577 37.5832 48.9082 40.088C48.3474 40.5643 47.7915 41.0025 47.1754 41.296L47.1436 41.2632C47.8242 40.6341 48.5607 39.8845 49.0879 39.1022C50.7737 36.6004 50.2127 33.1807 51.5125 30.5282C50.3316 31.9725 49.2239 33.4597 48.544 35.1133C47.4497 37.7743 47.078 40.81 44.6238 42.8321C47.28 41.937 50.3441 42.1152 52.7359 40.515C55.2501 38.833 57.5802 36.1782 58.0591 33.1805ZM59.9504 24.9201C59.6951 28.5173 55.9456 30.4389 54.1578 33.3958C53.776 34.0274 53.383 34.6794 52.8285 35.1894C52.9149 34.8064 53.2235 34.4671 53.3933 34.0913C53.9667 32.8226 54.2263 31.3543 54.0831 29.8445C53.909 28.0076 53.1593 26.3019 53.447 24.3695C51.906 27.7669 52.4031 32.0141 51.5125 35.6877C51.3154 36.5004 50.8309 37.2115 50.5324 37.9812C52.0464 36.8047 54.0307 35.7604 55.6926 34.4224C57.2999 33.1284 58.695 31.6117 59.4202 29.6382C59.9427 28.2162 60.0786 26.5199 59.9504 24.9201ZM59.8456 18.2923C59.6648 17.4895 59.5264 16.6585 59.1844 15.922C59.8319 19.3153 57.6217 21.7665 56.8671 24.7024C56.5828 25.8087 56.4855 26.9843 56.0475 28.0166C56.0066 28.039 55.9712 27.9956 55.9459 27.9621C57.0364 24.8377 55.4379 21.9502 53.8808 19.4874C53.4714 18.84 53.2744 18.0863 53.0833 17.3242C52.9149 18.7386 53.2097 20.3759 53.4658 21.8354C53.7956 23.7145 54.4244 25.4756 54.9242 27.2885C55.2532 28.4211 55.1665 29.6993 54.9976 30.886L55.1563 30.7566C56.3157 28.5705 58.603 26.8628 59.2938 24.4768C59.8459 22.5699 60.2278 20.3669 59.8456 18.2923ZM58.6228 14.642C58.6228 12.0742 57.6439 9.97935 56.1756 8.06697C56.133 8.04527 56.1026 8.00161 56.0476 8.01184C57.6641 10.5234 56.1928 13.6937 56.4005 16.5424L56.6137 19.4661C56.5821 19.4874 56.5821 19.5751 56.507 19.5416C56.4115 19.2156 56.3825 18.8689 56.3269 18.5323C55.9378 16.1752 53.9114 14.5346 52.1929 12.8706C51.7864 12.477 51.4888 12.0115 51.2971 11.5113C51.4401 12.6854 51.7607 13.889 52.2767 14.956C53.5994 17.6912 56.1542 19.8992 56.6137 23.0076C56.8365 20.0285 58.6228 17.8139 58.6228 14.642ZM54.3619 5.9798C53.5491 5.05929 52.638 4.34221 51.5535 4.05854C53.6595 5.53772 53.5452 8.18132 54.19 10.3917C54.4258 11.1999 54.7723 11.9571 54.9565 12.7924L54.9032 12.8359C54.5528 11.8916 53.9516 10.9839 53.1684 10.229C51.687 8.80151 49.4599 7.93748 48.727 5.84936C48.7605 8.75109 51.1821 10.9569 53.3938 12.6633C54.3858 13.4287 55.2289 14.4563 55.7433 15.5335C55.6573 14.7318 55.6183 14.0648 55.6884 13.2822C55.9154 10.7474 56.0626 7.90578 54.3619 5.9798ZM45.8137 1.10127C47.3767 2.50214 48.4197 4.30524 49.6204 5.92618C50.619 7.27434 51.9893 8.10967 53.1678 9.24092C52.5317 7.89286 52.4142 6.3482 51.6064 5.04407C50.2249 2.81404 47.9418 1.94845 45.8137 1.10127Z" fill="#3498DB"/>
<path d="M49.0883 30.1067L48.6267 29.8494C47.6478 31.9112 46.3518 33.7875 44.8014 35.4103L42.1043 32.6555C43.4256 31.2648 44.491 29.6862 45.2759 27.9801L44.8163 27.7235C44.0404 29.4153 42.9966 30.9546 41.7377 32.2808L39.2945 29.7853C40.3433 28.6716 41.1756 27.4008 41.7763 26.0276L41.3203 25.7735C40.7321 27.1269 39.9205 28.3577 38.9289 29.4126L36.2288 26.6547C36.9797 25.842 37.5594 24.9069 37.954 23.8949L37.4979 23.6408C37.1209 24.6276 36.5636 25.5234 35.8655 26.2833L33.4149 23.7805C34.113 22.9848 34.5179 21.9864 34.5752 20.9198H38.044C38.0145 21.8771 37.8224 22.7928 37.4979 23.6408L37.954 23.8949C38.319 22.9574 38.5252 21.9546 38.5547 20.9197H42.3786C42.3441 22.644 41.9679 24.2836 41.3203 25.7735L41.7763 26.0276C42.4716 24.437 42.8557 22.7087 42.8897 20.9195H46.3519C46.3155 23.3478 45.7671 25.6503 44.8161 27.7235L45.2756 27.9801C46.2809 25.7951 46.8273 23.4001 46.8633 20.9195H50.6869C50.6488 24.1159 49.9116 27.1425 48.6264 29.8494L49.0883 30.1067C50.4708 27.1984 51.2046 23.9866 51.2046 20.6584C51.2046 17.8281 50.6738 15.0824 49.6651 12.5351L49.1913 12.7431C50.1413 15.1469 50.6562 17.7319 50.6879 20.3973H46.8638C46.8328 18.2709 46.4237 16.2089 45.6753 14.2867L45.205 14.4926C45.9269 16.3509 46.3221 18.3429 46.3526 20.3973H42.8899C42.8604 18.8314 42.5614 17.3119 42.0218 15.8903L41.5515 16.0967C42.0647 17.4534 42.3493 18.9033 42.3792 20.3973H38.555C38.5279 19.4426 38.3509 18.5141 38.0368 17.6395L37.5667 17.8456C37.8551 18.6557 38.0172 19.5142 38.0443 20.3973H34.5755C34.5182 19.3305 34.1133 18.3323 33.4152 17.5365L35.8683 15.0313C36.6258 15.8542 37.1986 16.8097 37.5667 17.8456L38.0368 17.6395C37.643 16.5438 37.0336 15.5331 36.2292 14.6623L38.9333 11.9006C40.0871 13.1273 40.9678 14.5516 41.5515 16.0967L42.0218 15.8903C41.4123 14.2854 40.495 12.8057 39.2947 11.5315L41.743 9.03038C43.2593 10.6276 44.4243 12.4809 45.205 14.4926L45.6753 14.2867C44.8686 12.215 43.6672 10.3062 42.1044 8.6618L44.8081 5.89975C46.7202 7.90051 48.1953 10.222 49.1913 12.7431L49.6651 12.5351C48.6126 9.87491 47.0392 7.43173 44.993 5.34185C42.9393 3.24396 40.5367 1.63331 37.9209 0.558141L37.7325 1.04804C40.2062 2.06574 42.4842 3.57403 44.4466 5.53076L41.743 8.29268C40.1601 6.72593 38.3264 5.51144 36.3357 4.68863L36.1491 5.17432C38.0741 5.97202 39.8485 7.14669 41.3817 8.66586L38.9335 11.1666C37.7434 9.99716 36.3709 9.08896 34.8832 8.46725L34.6963 8.95295C36.1198 9.54879 37.4326 10.4178 38.5723 11.5359L35.8686 14.2974C35.1081 13.5651 34.2385 12.9905 33.2988 12.5897L33.1118 13.0758C33.9875 13.4506 34.7973 13.9854 35.5073 14.6666L33.0546 17.1719C32.275 16.4587 31.2979 16.0452 30.2532 15.987V12.4441C31.2501 12.4754 32.2153 12.6917 33.1118 13.0758L33.2988 12.5897C32.3435 12.182 31.3148 11.9538 30.2532 11.9219V8.01609C31.8016 8.04786 33.3016 8.36919 34.6963 8.95295L34.8832 8.46725C33.4299 7.85984 31.8662 7.52621 30.2532 7.49444V3.95611C32.3064 3.98808 34.2973 4.40635 36.1489 5.1731L36.3355 4.68741C34.425 3.89688 32.3717 3.46632 30.253 3.43424V-0.471983C32.8576 -0.439809 35.3838 0.0845156 37.7328 1.0506L37.9212 0.560705C35.4358 -0.461402 32.7576 -1 29.9979 -1C26.5884 -1 23.3669 -0.169096 20.5101 1.29716L20.7432 1.75272C23.5076 0.337916 26.566 -0.43284 29.7424 -0.472009V3.43435C27.1519 3.4737 24.7041 4.11575 22.5211 5.22297L22.7533 5.6773C24.904 4.58981 27.2781 3.9941 29.7424 3.95572V7.4926C27.8161 7.53133 25.9934 8.00453 24.3621 8.81776L24.5958 9.27415C26.1838 8.48679 27.9301 8.05162 29.7425 8.01432V11.9205C28.5406 11.9568 27.4008 12.2476 26.3716 12.7409L26.6064 13.199C27.58 12.7368 28.6422 12.4769 29.7425 12.4422V15.9857C29.2044 16.0162 28.6911 16.1416 28.2181 16.3454L28.4525 16.8033C28.9364 16.601 29.4591 16.4944 29.9979 16.4944C31.0875 16.4944 32.1116 16.9277 32.8822 17.7146C33.6527 18.5015 34.0769 19.548 34.0769 20.661C34.0769 22.9583 32.2474 24.8279 29.9979 24.8279C28.908 24.8279 27.8836 24.3944 27.1132 23.6074C26.3427 22.8201 25.9184 21.774 25.9184 20.661C25.9184 19.548 26.3427 18.5014 27.1132 17.7145C27.5029 17.3166 27.9576 17.0103 28.4525 16.8033L28.2181 16.3454C27.748 16.5482 27.3177 16.8284 26.9427 17.1714L24.4886 14.6648C25.1226 14.0562 25.8365 13.5642 26.6062 13.1988L26.3713 12.7407C25.5436 13.1376 24.7876 13.6649 24.1297 14.2985L21.4232 11.534C22.3723 10.6027 23.4429 9.84617 24.5958 9.27415L24.3621 8.81776C23.1445 9.42458 22.0329 10.2198 21.0663 11.1691L18.6136 8.6641C19.8515 7.43726 21.2485 6.43766 22.753 5.67715L22.5208 5.22282C20.9459 6.02186 19.5074 7.06178 18.2575 8.30072L15.5482 5.53328C17.1014 3.98454 18.854 2.7197 20.7429 1.75271L20.5099 1.29714C16.3808 3.41659 13.0192 6.87054 10.9722 11.1047L11.4165 11.3496C12.3712 9.36645 13.6337 7.52776 15.187 5.90212L17.8965 8.6697C16.6361 9.99605 15.583 11.5284 14.79 13.2117L15.2326 13.4558C15.988 11.8439 17.0008 10.3511 18.252 9.03313L20.7049 11.5382C19.7162 12.5887 18.8983 13.8066 18.2919 15.1444L18.7355 15.3889C19.3066 14.1171 20.0871 12.9395 21.062 11.903L23.7685 14.6675C23.0767 15.4172 22.5132 16.2914 22.1132 17.2533L22.5604 17.5004C22.928 16.5981 23.4549 15.7638 24.1269 15.0337L26.581 17.5401C25.9073 18.3093 25.4795 19.3037 25.4201 20.3996H21.9506C21.9814 19.3892 22.19 18.4103 22.5604 17.5004L22.1132 17.2533C21.7091 18.225 21.4721 19.2864 21.4397 20.3996H17.6159C17.6503 18.6418 18.0362 16.9446 18.7354 15.3886L18.2918 15.1441C17.5641 16.7487 17.1413 18.5263 17.1056 20.3997H13.6423C13.6786 17.957 14.2273 15.6006 15.2326 13.4555L14.79 13.2114C13.7613 15.3933 13.1697 17.8287 13.1322 20.3997H9.30754C9.34516 17.2095 10.075 14.1356 11.4163 11.3495L10.972 11.1046C9.57768 13.9891 8.79053 17.2321 8.79053 20.6607C8.79053 22.7579 9.08376 24.8077 9.64393 26.7658L10.1448 26.6371C9.61814 24.8022 9.33072 22.8841 9.30756 20.9218H13.1315C13.1551 22.558 13.4019 24.1567 13.8549 25.6829L14.3508 25.5553C13.9073 24.0704 13.6662 22.5143 13.6423 20.9218H17.1049C17.1299 22.2189 17.3393 23.4846 17.7164 24.6891L18.2131 24.5611C17.8454 23.3983 17.6409 22.1752 17.616 20.9218H21.4398C21.4665 21.8495 21.6345 22.7521 21.9319 23.6048L22.4289 23.4766C22.1407 22.6658 21.9776 21.8059 21.9506 20.9219H25.4198C25.477 21.9886 25.8816 22.987 26.5797 23.7827L24.1269 26.2882C23.3702 25.4656 22.7974 24.5113 22.4289 23.4766L21.9319 23.6048C22.3245 24.729 22.943 25.7665 23.7655 26.657L21.0619 29.4188C19.7468 28.0203 18.7842 26.3629 18.2141 24.5622L17.7174 24.6901C18.3094 26.581 19.3188 28.3205 20.7018 29.7887L18.253 32.2899C16.4219 30.3612 15.0992 28.0604 14.352 25.5561L13.8561 25.6837C14.6262 28.2779 15.9944 30.6622 17.8916 32.6588L15.1879 35.4206C12.7949 32.9162 11.0857 29.9103 10.146 26.638L9.64514 26.7667C10.6308 30.2118 12.4492 33.3698 15.0033 35.978C16.7329 37.7451 18.7099 39.1674 20.8531 40.2155L21.1069 39.7557C19.0785 38.7684 17.2021 37.4378 15.5492 35.7893L18.2528 33.0279C19.6581 34.421 21.2604 35.5319 22.993 36.3412L23.2453 35.8841C21.5522 35.0993 19.9864 34.0174 18.6145 32.659L21.063 30.158C22.2105 31.2856 23.5282 32.1696 24.955 32.7889L25.2071 32.3326C23.8212 31.7385 22.5395 30.8841 21.4251 29.7905L24.1291 27.0287C24.998 27.866 26.0095 28.4965 27.106 28.8977L27.3615 28.4354C26.3031 28.0611 25.327 27.4625 24.4906 26.6598L26.9434 24.1542C27.7225 24.8679 28.6994 25.281 29.7442 25.3396V28.883C28.9214 28.857 28.1202 28.7033 27.3615 28.4354L27.106 28.8977C27.9442 29.2048 28.8314 29.3772 29.7443 29.4047V33.3101C28.162 33.2778 26.6288 32.9432 25.2083 32.3345L24.9562 32.7908C26.4542 33.4412 28.0723 33.7992 29.7443 33.8322V37.3691C27.4658 37.3332 25.2653 36.8217 23.2465 35.886L22.9942 36.3432C25.0898 37.3212 27.3766 37.8548 29.7443 37.891V41.7963C26.7071 41.759 23.776 41.0558 21.1082 39.7577L20.8544 40.2174C23.6737 41.5958 26.7816 42.3245 29.9998 42.3245C33.3757 42.3245 36.6283 41.5188 39.5558 40.006L39.314 39.527C36.584 40.9392 33.5106 41.7554 30.255 41.7963V37.8909C32.8363 37.8519 35.3211 37.2199 37.5661 36.0665L37.3274 35.5939C35.1935 36.6917 32.7949 37.3284 30.2551 37.3688V33.8319C32.1918 33.7938 34.0558 33.3191 35.7443 32.4589L35.5071 31.9885C33.9185 32.7978 32.1388 33.2706 30.2551 33.3099V29.4044C31.4885 29.3676 32.6759 29.0644 33.7566 28.5241L33.521 28.0565C32.5284 28.5513 31.4233 28.8448 30.255 28.8825V25.3396C31.2996 25.2811 32.2767 24.8679 33.0563 24.1542L35.5066 26.6572C34.9199 27.2196 34.2511 27.6923 33.521 28.0565L33.7566 28.5241C34.5221 28.1411 35.2349 27.641 35.8704 27.0288L38.5699 29.7863C37.6686 30.6707 36.636 31.4138 35.5071 31.9885L35.7443 32.4589C36.9022 31.8693 37.9784 31.1 38.9355 30.1599L41.3787 32.6551C40.1885 33.8341 38.8223 34.8262 37.3274 35.5942L37.5661 36.0668C39.0842 35.2871 40.4934 34.2713 41.7452 33.0297L44.4423 35.7846C42.9376 37.2847 41.2074 38.5479 39.314 39.527L39.5558 40.006C41.5399 38.9805 43.3769 37.6332 44.9954 35.98C46.6968 34.2425 48.0697 32.2596 49.0907 30.1119L49.0883 30.1067Z" fill="#3498DB"/>
<path d="M31.0835 15.6506L31.0896 15.8074L31.2186 15.8011L31.2116 15.6454L31.0835 15.6506Z" fill="#3498DB"/>
<path d="M31.0667 15.4368H30.8958V15.5699H31.0667V15.4368Z" fill="#3498DB"/>
<path d="M30.7378 15.4134L30.7559 15.2817L30.6057 15.2597L30.5875 15.3904L30.7378 15.4134Z" fill="#3498DB"/>
<path d="M30.3116 15.3237L30.4609 15.3457L30.479 15.2138L30.3297 15.1918L30.3116 15.3237Z" fill="#3498DB"/>
<path d="M29.3989 15.17H29.2281V15.3032H29.3989V15.17Z" fill="#3498DB"/>
<path d="M29.0047 15.4573L29.0229 15.3256L28.8737 15.3036L28.8555 15.4353L29.0047 15.4573Z" fill="#3498DB"/>
<path d="M28.6994 15.5917L28.8709 15.6362L28.902 15.5071L28.7306 15.4626L28.6994 15.5917Z" fill="#3498DB"/>
<path d="M28.5433 15.6669L28.5646 15.8L28.6913 15.7782L28.6701 15.6451L28.5433 15.6669Z" fill="#3498DB"/>
<path d="M11.7722 29.6944H11.9013L11.8791 29.3621L11.7077 29.2952V29.1844H11.6008V29.406H11.7722V29.6944Z" fill="#3498DB"/>
<path d="M12.9911 30.3591L13.099 30.6695L13.2482 30.7813L13.3984 31.1136L13.3127 31.2683L13.0778 31.0468L12.9064 30.8033L12.8207 30.6036L12.6705 30.2044L12.9911 30.3591Z" fill="#3498DB"/>
<path d="M18.1902 37.3225L18.04 37.4113L17.9543 37.2786L17.7405 37.2117L17.7194 37.0121L17.548 36.7456L17.8051 36.7905L18.0823 37.034L18.1902 37.3225Z" fill="#3498DB"/>
<path d="M29.3349 17.0772H29.0997L29.0568 16.5895L29.1851 16.5004V16.2566H28.4364L28.415 16.0129L28.5223 15.9463L28.3509 15.8797L28.2225 16.057L28.18 16.2566L27.966 16.3011V16.4118H27.8164V16.7L27.2172 17.21L26.0194 17.1659C25.9336 17.3653 25.7195 17.1435 25.7195 17.1435C25.6771 17.0105 25.3778 17.1435 25.3778 17.1435C25.3778 17.3877 24.9713 17.0328 24.9713 17.0328L24.2224 16.4783C23.7947 16.0792 23.153 16.5894 23.1317 16.7C23.153 17.0105 22.6397 16.7666 22.6397 16.7666C22.6397 16.7666 22.2119 16.6337 22.1476 16.8111C22.0836 16.9884 21.8051 16.9443 21.8051 16.9443L21.7622 17.0329L21.5482 17.0772L21.5057 17.2101L21.2489 17.2547L21.8904 17.2324C22.0617 17.2102 21.8261 17.6095 21.7195 17.5873L21.4203 17.6095L21.313 17.7201H21.0349L20.9067 17.8979L20.5005 17.8757C20.5005 17.8757 20.2649 18.0752 20.2866 18.1416C20.308 18.2082 20.2437 18.4078 20.1794 18.4078C20.1152 18.4078 19.9869 18.6073 20.0297 18.6738C20.0728 18.7404 19.9015 18.9621 19.9015 18.9621L19.8588 19.1841L19.7306 19.2282V19.8271L19.4737 20.0045V20.2705L19.0884 20.6919L19.1314 21.0465L18.8107 21.4014L18.8532 21.7562L18.6607 21.8228L18.6182 21.9779L18.5327 22.4434L18.7465 22.4659C18.8532 22.4214 18.832 22.7541 18.7465 22.7982C18.6606 22.8427 18.4253 22.9313 18.554 23.0199C18.6824 23.1089 18.2116 23.0865 18.2116 22.9534C18.2116 22.8207 17.9548 22.7096 17.8909 22.7541C17.8266 22.7982 17.7195 22.5545 17.7195 22.5545C17.4843 22.3107 16.7569 22.5765 16.7569 22.5765L16.6497 22.9313C16.4147 22.9759 16.265 23.375 16.265 23.375C16.0724 23.4415 15.9227 23.6853 15.9869 23.7518C16.0509 23.8184 15.8796 23.8405 15.8796 23.8405V24.3285L15.7729 24.4837L15.794 25.0158C15.9226 25.0158 15.9013 25.2599 15.9013 25.2599C15.6873 25.2819 15.7298 25.5704 15.7298 25.5704L15.2808 25.7255L15.1953 25.8584L14.6392 25.8362L14.4895 25.9916L14.3394 25.8362H13.2699L13.2274 25.7254L13.0134 25.6808L12.9918 25.437L12.6711 25.4591L12.607 25.5921L12.2645 25.6142C12.2859 25.8361 11.9223 26.1688 11.8798 26.0803C11.8365 25.9915 11.6014 25.7472 11.7085 25.7033C11.8156 25.6587 12.0938 25.6142 12.0938 25.6142V25.4591L11.302 25.4371L11.2167 25.5702L10.8955 25.5921V25.9471L10.7459 25.9915C10.6388 26.0577 10.7671 26.302 10.7671 26.302C10.9168 26.457 10.7459 26.7008 10.7459 26.7008C10.6174 26.8339 10.8526 27.0782 10.8526 27.0782C11.024 27.1222 10.7459 27.2553 10.7459 27.2553C10.7884 27.477 10.9169 27.5435 10.9169 27.5435C10.7884 27.7652 11.0028 27.8759 11.0028 27.8759L11.024 28.2532L11.1737 28.3421V28.5855L11.2592 28.7409H11.6015L11.5801 28.1866C11.2805 27.8317 11.8366 27.7429 11.8584 27.8757C11.8799 28.0089 12.1151 28.0755 12.1151 28.0755C12.158 28.4082 12.5217 28.6075 12.6284 28.2753C12.7354 27.9422 12.8209 28.1421 12.8852 28.2971C12.9494 28.4525 13.3554 28.8296 13.3554 28.8296H13.6764L13.7195 29.1401C14.083 29.1178 14.1897 29.1627 14.3394 29.6721C14.4895 30.1819 14.8957 30.3151 14.8957 30.3151L15.1953 30.2929C15.1953 30.0273 15.4949 30.3378 15.4949 30.4709C15.4949 30.6034 16.0723 31.1135 16.0723 31.1135L16.6497 31.2463L17.1851 31.6904L17.5912 31.646H17.7626C17.8693 31.2686 18.3829 31.6678 18.4254 31.801C18.4685 31.9341 18.8107 32.1559 18.8531 32.0448C18.8962 31.9341 19.1314 32.0008 19.1743 32.333C19.217 32.6661 19.3665 32.5994 19.3665 32.5994L20.586 32.5773L21.0138 32.1999L22.1049 32.178C22.661 32.1559 22.3187 31.3796 22.2121 31.3796C22.0195 31.2246 22.276 30.5815 22.276 30.5815L20.7144 29.0958C20.3509 29.0958 20.6716 28.5633 20.6716 28.5633C20.9496 28.3858 20.6072 28.098 20.6072 28.098C20.6503 27.8315 20.4575 27.5211 20.4575 27.5211C20.0728 27.255 20.1795 26.7448 20.1795 26.7448V26.3899C19.8588 26.0798 20.3079 26.035 20.3079 26.035C20.4574 25.7694 20.2008 25.5697 20.2008 25.5697L20.1795 25.2814L19.8371 25.2368L19.7947 24.1946L19.0246 23.0639C18.8745 23.0192 18.9816 22.7534 18.9816 22.7534C19.1741 22.6424 18.9385 22.3767 18.9385 22.3767L18.9173 21.8887L19.3663 21.8441L19.4735 21.6669H19.6873L19.666 21.0903C19.7728 20.802 20.0295 20.9571 20.0295 20.9571L20.329 20.9794L20.5003 20.6467L20.5427 20.3805L20.3077 20.3586C20.0509 20.2032 20.1793 19.6268 20.1793 19.6268C20.5858 19.0057 21.0561 19.3605 21.0561 19.3605L21.3559 19.3386C21.8049 19.6489 21.3983 20.2255 21.3983 20.2255C21.3128 20.3586 21.3559 20.7799 21.3559 20.7799L21.4627 21.4892L21.1846 21.7334C20.9494 21.8666 20.9494 22.1768 21.2062 22.2434C21.3772 22.2654 21.3129 22.6868 21.0562 22.3985C20.6714 22.3985 21.2705 22.7533 21.0992 22.6643C21.4844 22.864 21.3984 22.487 21.3984 22.487L21.9123 22.0656C22.1049 21.9105 22.4472 22.3985 22.4472 22.4651C22.4472 22.5315 23.3027 22.487 23.3027 22.487C23.5379 22.6422 23.6234 23.0415 23.6234 23.0415C23.859 22.7308 24.3508 23.0191 23.9873 23.1966C24.3292 23.4184 24.3292 23.6179 24.3292 23.6179C24.6077 23.5293 24.6077 23.751 24.6077 23.8175C24.6077 23.8841 24.6932 23.485 24.6932 23.485C24.3723 23.241 25.1209 23.1524 24.9072 23.5959L24.7787 23.7956L24.9927 23.9728L25.0138 24.4831C25.4847 24.4385 25.3562 23.8397 25.3562 23.8397L25.5701 23.7956C25.5701 23.5959 25.7197 23.7068 25.7197 23.7068C25.5701 22.9526 26.0621 22.8199 26.0621 22.8199C26.3402 22.7533 26.3614 22.1543 26.3614 22.1543C26.1693 22.0657 26.2758 21.7554 26.4899 22.0217C26.7036 22.2873 26.3614 21.4891 26.3614 21.4891L26.1905 21.334L25.9552 21.3118L25.9337 21.0679H25.549L25.4846 21.3785L25.3349 21.4228L25.2919 21.334L25.2279 21.5779H24.8429L24.8217 21.3118L25.0569 21.2454L25.1425 21.1123L25.2065 20.7574H25.4847L25.8483 20.6467C25.8695 20.2697 26.0622 20.3585 26.0622 20.3585L26.1905 20.4693L26.383 20.6245L26.4045 20.7573L26.2759 20.8238L26.2548 21.0014L26.319 21.2453H26.49C26.5541 20.8905 27.0036 20.8905 27.1319 21.1122L27.2603 20.8018C26.9609 20.6466 27.2548 20.4025 27.3403 20.5135C27.4257 20.6245 27.6238 20.2253 27.6238 20.2253C27.6238 20.2253 27.7736 20.4249 27.6238 20.1587C27.4741 19.8925 27.7306 19.7596 27.7306 19.7596C27.6881 19.4936 28.0089 19.5378 28.0089 19.5378L28.0304 19.1832L27.7306 19.1607C27.6669 19.4712 27.41 19.2053 27.5384 19.1388C27.6669 19.0721 27.7948 18.9391 27.7948 18.9391V18.7173L27.9233 18.673L27.9446 18.4512H28.2656L28.5437 18.3183L28.608 18.2073L28.9072 18.1853L29.335 17.7859L29.2925 17.6087C29.0358 17.6087 29.2925 17.4091 29.2925 17.4091L29.3349 17.0772Z" fill="#3498DB"/>
<path d="M20.7143 21.4673L20.3292 21.4229L20.3508 21.578H20.4576C20.6285 21.8886 20.479 22.6425 20.479 22.6425C20.479 22.6425 20.2226 22.6644 20.1795 22.5317C20.1371 22.3986 20.0298 22.82 20.1153 22.8866C20.2008 22.9527 20.5005 22.8866 20.5218 23.1306C20.543 23.3743 20.7143 22.9752 20.7143 22.9752L20.7143 21.4673Z" fill="#3498DB"/>
<path d="M20.3285 23.796L20.6713 24.261L20.7993 23.9506L20.8427 23.751L20.6924 23.6852L20.7136 23.3529L20.8427 23.3299L20.8638 23.1741L20.5422 23.3967L20.3285 23.264V23.796Z" fill="#3498DB"/>
<path d="M20.885 24.5275L20.7358 24.5495L20.7136 24.7271L20.885 24.7491V24.5275Z" fill="#3498DB"/>
<path d="M20.6924 25.6583L20.511 25.6803V25.836L20.6924 25.814V25.6583Z" fill="#3498DB"/>
<path d="M20.9447 25.1318C20.9948 25.1318 21.0351 25.0899 21.0351 25.038C21.0351 24.9858 20.9948 24.9438 20.9447 24.9438C20.8946 24.9438 20.8539 24.9857 20.8539 25.038C20.8539 25.0899 20.8946 25.1318 20.9447 25.1318Z" fill="#3498DB"/>
<path d="M21.0937 25.5977C21.1438 25.5977 21.1844 25.5556 21.1844 25.5036C21.1844 25.4517 21.1438 25.4096 21.0937 25.4096C21.0436 25.4096 21.0029 25.4517 21.0029 25.5036C21.0029 25.5556 21.0436 25.5977 21.0937 25.5977Z" fill="#3498DB"/>
<path d="M21.0987 23.0644C21.1488 23.0644 21.1895 23.0223 21.1895 22.9704C21.1895 22.9184 21.1488 22.8763 21.0987 22.8763C21.0486 22.8763 21.008 22.9184 21.008 22.9704C21.008 23.0223 21.0486 23.0644 21.0987 23.0644Z" fill="#3498DB"/>
<path d="M28.0943 19.9595L28.1155 20.0922L28.0298 20.181L27.9875 20.2918L27.8161 20.3368L27.431 20.714L27.4098 20.8906L27.3029 21.0464L27.1749 21.3787L26.7253 21.4006L26.6396 21.7999L26.7031 22.1322L27.0882 22.2879L27.1316 22.0664L27.2596 21.9995L27.2818 21.7779L27.3665 21.6222L27.4955 21.4675L27.5378 21.2899L27.7516 21.1571L28.0087 21.1122L28.1155 20.9795L28.1589 20.714L28.174 20.5144L28.2657 20.3806L28.5218 20.2699V19.8487H28.3938L28.3726 19.693L28.1367 19.671L28.0943 19.7818H27.9875L27.9653 19.9595H28.0943Z" fill="#3498DB"/>
<path d="M28.9707 21.2017V20.8913L28.9276 20.6029L28.6071 20.4478L28.3719 20.6696L28.3289 20.9801V21.1795L28.115 21.224L28.072 21.8226L27.9011 21.8893L27.9225 22.1111L27.4521 22.2441L27.4092 22.5324L27.2383 22.6431L27.1523 22.9093L27.0455 23.5523C27.0455 23.5523 27.2382 23.9293 27.345 23.7519C27.4521 23.5746 27.6231 23.5523 27.6231 23.5523L27.6873 23.3971L28.2649 23.4192C28.3077 23.1751 28.5858 23.2641 28.5858 23.3749C28.5858 23.4858 28.7998 23.3969 28.7998 23.3969L28.9494 23.1531H29.1845L29.2059 22.8871L29.313 22.8206V22.4213C29.6554 22.3105 29.6122 21.9778 29.6122 21.9778L29.6983 21.8672L29.6554 21.7121C29.484 21.6453 29.5694 21.4899 29.6766 21.5343C29.7838 21.5786 29.5269 21.3347 29.5269 21.3347C29.3986 21.4458 29.2919 21.2017 29.2919 21.2017H28.9707Z" fill="#3498DB"/>
<path d="M29.313 23.8844C29.2917 24.1504 28.9706 24.2392 28.9706 24.2392L28.7354 24.1728L28.6072 24.0619L28.5857 23.7513L28.7781 23.7293L28.8209 23.8625L29.313 23.8844Z" fill="#3498DB"/>
<path d="M30.4686 22.4662C30.5148 22.6595 30.511 22.1554 30.5966 22.1779C30.6821 22.1999 30.6182 21.8676 30.6182 21.8676L30.2331 22.1554C30.4255 22.1778 30.4468 22.3776 30.4686 22.4662Z" fill="#3498DB"/>
<path d="M31.6023 21.3122C31.6878 21.5119 31.6666 21.8002 31.987 22.022C32.0954 22.0967 31.9229 22.2437 31.8157 22.1771C31.7089 22.1106 31.4097 21.6226 31.4097 21.6226V21.3343C31.4738 21.1571 31.5651 21.2263 31.6023 21.3122Z" fill="#3498DB"/>
<path d="M31.6663 28.1195L31.7298 28.2303L31.88 27.9868L31.752 27.9418L31.6027 28.0536L31.6663 28.1195Z" fill="#3498DB"/>
<path d="M34.3318 27.2667L34.2633 27.1549L34.0929 27.2646L34.1604 27.3775L34.3318 27.2667Z" fill="#3498DB"/>
<path d="M40.3515 32.0008L40.5442 32.0892L40.5654 32.4661C40.8223 32.7322 41.6565 32.5106 41.6565 32.444C41.6565 32.3773 41.6135 31.6236 41.6135 31.6236L41.5063 31.5126L41.4851 30.9579C41.5706 30.6697 41.0786 30.2483 41.0359 30.3374C40.9931 30.4258 40.715 30.3592 40.715 30.4481C40.715 30.5365 40.5441 30.9801 40.6295 31.1355C40.715 31.2908 40.5652 31.2908 40.544 31.4459C40.5228 31.6011 40.3087 31.8676 40.3515 32.0008Z" fill="#3498DB"/>
<path d="M39.8805 31.1135C39.84 31.2816 39.6884 31.3796 39.6029 31.3129C39.5168 31.2463 39.7092 31.4236 39.7524 31.5128C39.795 31.6012 39.9232 31.6012 39.9663 31.5128C40.0087 31.4235 39.9876 31.2245 40.0306 31.1358C40.0731 31.047 39.9021 31.0248 39.8805 31.1135Z" fill="#3498DB"/>
<path d="M39.0353 27.0455H38.8858V27.467H39.0353V27.0455Z" fill="#3498DB"/>
<path d="M41.1004 22.7764C41.0071 22.6472 41.5282 22.4216 41.6137 22.6878C41.6992 22.9535 41.6137 22.9095 41.5282 22.8874C41.4424 22.865 41.2289 22.9536 41.1004 22.7764Z" fill="#3498DB"/>
<path d="M41.5382 19.9365L41.7731 19.9804L41.7963 19.8497L41.5603 19.8058L41.5382 19.9365Z" fill="#3498DB"/>
<path d="M40.9766 20.2281L41.0956 20.1789L41.0522 20.0682L41.025 19.9981L40.9615 20.0347L40.8022 20.1267L40.6631 20.0368L40.5955 20.1486L40.7669 20.2594L40.7992 20.2803L40.8314 20.2615L40.9605 20.1873L40.9766 20.2281Z" fill="#3498DB"/>
<path d="M41.7631 14.7928H41.4421C41.4421 14.7928 41.5491 14.8371 41.2499 14.5488C40.95 14.2605 40.7578 14.6153 40.7578 14.6153L40.4155 14.6596V15.0145L40.2442 15.0809L40.2658 15.3028L40.501 15.2807C40.501 15.2807 40.501 15.5467 40.5653 15.4359C40.6296 15.3249 41.1644 15.4579 41.1215 15.7242C41.104 15.8335 41.6565 16.1231 41.5923 16.4779C41.8703 16.5224 41.8062 16.8107 41.8062 16.8107L42.1696 16.855L42.2768 16.6333L42.3836 16.6555V16.5224L42.148 16.4559L42.1055 15.7462L41.9558 15.6353L41.9984 15.4579L41.8275 15.3913L41.9131 15.1031L41.7631 14.7928Z" fill="#3498DB"/>
<path d="M42.7038 17.0549L42.5328 17.0329L42.1472 17.0994L41.9338 17.5207C41.9338 17.5207 42.0406 17.5872 42.126 17.7424C42.2114 17.8978 42.2544 18.8067 41.9977 18.9621C41.7412 19.1174 42.0193 19.0284 42.0193 19.0284L41.9762 19.5164C42.0406 19.7381 42.1472 19.6274 42.2115 19.5164C42.2762 19.4058 42.3404 19.3835 42.4259 19.2726C42.5114 19.1615 42.6396 18.9621 42.6611 18.8067C42.6823 18.6516 42.7893 18.4078 42.7251 18.3413C42.6611 18.2747 42.7894 17.9644 42.7894 17.9644C42.7894 17.9644 42.8749 17.7867 42.7894 17.6095C42.704 17.4319 42.8107 17.2324 42.8749 17.1436L42.7038 17.0549Z" fill="#3498DB"/>
<path d="M42.9844 17.7821L42.9625 17.9595L43.0901 17.9764L43.112 17.799L42.9844 17.7821Z" fill="#3498DB"/>
<path d="M42.8402 18.5128L42.9547 18.5723L43.0189 18.4393L42.9044 18.3799L42.8402 18.5128Z" fill="#3498DB"/>
<path d="M42.7682 16.8117L42.6823 16.612C42.6823 16.612 42.6823 16.4348 42.7251 16.3458C42.7682 16.2572 42.6396 16.1686 42.5756 16.1464C42.5114 16.1241 42.533 15.9469 42.5114 15.858C42.4901 15.7694 42.3405 15.7029 42.3405 15.7029C42.3405 15.7029 42.2974 15.3703 42.2974 15.3038C42.2974 15.2373 42.1049 15.1486 42.1691 15.082C42.2335 15.0155 42.2763 14.9269 42.3405 14.8823C42.4047 14.838 42.2762 14.5275 42.383 14.594C42.4901 14.6607 42.4901 14.7715 42.533 14.8602C42.5756 14.9488 42.5114 15.2594 42.6186 15.326C42.7252 15.3924 42.5969 15.614 42.7682 15.614C42.9392 15.614 42.8325 16.0355 42.8325 16.0355C42.8325 16.0355 42.7894 16.3458 42.8962 16.3681C43.0034 16.3903 42.9393 16.9225 42.9393 16.9225L42.7682 16.8117Z" fill="#3498DB"/>
<path d="M41.3784 13.2182C41.4423 13.3068 41.5707 13.3732 41.5707 13.4622C41.5707 13.551 41.5281 13.6173 41.6566 13.6395C41.7847 13.6616 41.8705 13.6173 41.9131 13.7282C41.956 13.8389 41.956 14.0164 41.9347 14.1051C41.9131 14.194 41.956 14.3269 42.0627 14.3269C42.1699 14.3269 42.1912 14.3492 42.1912 14.4157C42.1912 14.4821 42.3196 14.1716 42.3196 14.1716C42.2123 14.083 42.1268 13.8833 42.1268 13.8833C42.1268 13.8833 42.0201 13.5729 42.0201 13.5286C42.0201 13.4842 41.8705 13.4397 41.8064 13.4177C41.742 13.3954 41.6349 13.196 41.6349 13.196L41.3784 13.2182Z" fill="#3498DB"/>
<path d="M41.592 13.0197C41.5277 12.9308 41.4635 12.8643 41.378 12.8202C41.2927 12.7757 41.2285 12.7313 41.1426 12.7313C41.0571 12.7313 40.9717 12.6425 41.0141 12.5318C41.0572 12.4208 40.9498 12.3765 40.9498 12.2877C40.9498 12.1991 41.0141 12.1991 41.1212 12.2656C41.2284 12.3322 41.2067 12.3543 41.2927 12.4654C41.378 12.5761 41.4206 12.687 41.506 12.6648C41.592 12.6425 41.6561 12.8643 41.7416 12.7978C41.8271 12.7313 41.8059 12.953 41.8059 12.953L41.592 13.0197Z" fill="#3498DB"/>
<path d="M39.0891 15.5249C39.2071 15.6474 38.4475 15.6134 38.4475 15.5249C38.4475 15.4363 38.5118 15.126 38.704 15.1921C38.8965 15.2588 38.9177 14.7932 38.9177 14.7932C38.9177 14.7932 38.7468 14.8151 38.8965 14.7266C39.0463 14.638 38.8965 14.5048 38.8322 14.4383C38.7682 14.3717 38.704 14.2609 38.704 14.2609H39.0037C39.1322 14.1721 39.1746 13.7509 39.1746 13.7509C39.4311 13.8395 39.5595 13.6621 39.5595 13.6621C39.5595 13.6621 39.603 13.7951 39.6884 13.9062C39.7738 14.0169 39.474 14.0613 39.5811 14.128C39.6884 14.1945 39.7308 14.3939 39.6884 14.4603C39.6453 14.5269 39.4097 14.4826 39.4097 14.3939C39.4097 14.3051 39.3242 14.5048 39.4097 14.6157C39.4952 14.7266 39.3029 14.8817 39.26 14.8817C39.2171 14.8817 38.9395 14.9262 39.1745 15.0591C39.4097 15.1921 39.6669 15.1259 39.6669 15.1259C39.6669 15.1259 39.8592 15.1035 39.9234 15.2145C39.9877 15.3253 39.9021 15.3476 39.7951 15.3476C39.6884 15.3476 39.1746 15.3031 39.1746 15.3031C39.1746 15.3031 39.025 15.4583 39.0891 15.5249Z" fill="#3498DB"/>
<path d="M37.7199 15.7247C37.8272 15.7025 38.0833 15.6802 38.1264 15.7468C38.1694 15.8132 37.9767 15.9018 37.9767 15.9018L37.7199 15.9464C37.6344 15.8354 37.6131 15.7468 37.7199 15.7247Z" fill="#3498DB"/>
<path d="M40.4802 13.8622C40.6512 13.7736 41.0147 13.7736 40.9934 13.6404C40.9723 13.5074 41.2073 13.4631 41.2073 13.4631L41.2715 13.7291L41.464 13.8621L41.4855 14.106C41.4855 14.106 41.5495 14.0617 41.3145 14.1283C41.0789 14.1949 41.229 14.3056 41.229 14.3056L40.7154 14.3277L40.6512 14.1059L40.4802 13.8622Z" fill="#3498DB"/>
<path d="M39.645 12.6648C39.7751 12.6648 39.6026 13.1748 39.9443 13.1305C40.2867 13.086 39.9661 13.2857 40.2226 13.3077C40.4794 13.3302 40.4151 13.1082 40.5006 12.9531C40.5865 12.798 40.5437 12.7091 40.3939 12.6648C40.2438 12.6205 40.2438 12.6205 40.2013 12.4428C40.1587 12.2656 39.9874 12.2211 39.9874 12.2211L39.9231 11.9552L39.645 12.1324L39.367 12.5094C39.367 12.798 39.5166 12.6648 39.645 12.6648Z" fill="#3498DB"/>
<path d="M40.2756 14.4055L40.2113 14.5386L40.3263 14.5983L40.3906 14.4652L40.2756 14.4055Z" fill="#3498DB"/>
<path d="M40.1157 14.3275H39.9873V14.4827H40.1157V14.3275Z" fill="#3498DB"/>
<path d="M40.1168 11.5723L40.0952 11.3729L39.9677 11.3877L39.9893 11.5871L40.1168 11.5723Z" fill="#3498DB"/>
<path d="M39.8597 13.4403H39.7312V13.5514H39.8597V13.4403Z" fill="#3498DB"/>
<path d="M39.3818 13.3055L39.3944 13.438L39.6083 13.4162L39.5957 13.2836L39.3818 13.3055Z" fill="#3498DB"/>
<path d="M37.512 15.5183L37.6295 15.5706L37.6938 15.4154L37.5763 15.3631L37.512 15.5183Z" fill="#3498DB"/>
<path d="M36.9456 15.0348L36.9582 15.167L37.1724 15.1451L37.1598 15.0129L36.9456 15.0348Z" fill="#3498DB"/>
<path d="M32.7762 15.1479L32.7823 15.2806L33.2521 15.2587L33.246 15.126L32.7762 15.1479Z" fill="#3498DB"/>
<path d="M32.4186 15.1192L32.4612 15.3185L32.5867 15.2897L32.5441 15.0903L32.4186 15.1192Z" fill="#3498DB"/>
<path d="M32.3307 15.3298L32.3713 15.456L32.4353 15.4338L32.3948 15.3076L32.3307 15.3298Z" fill="#3498DB"/>
<path d="M33.4412 15.082L33.4199 15.2372L33.6549 15.2594C33.6549 15.2594 33.7617 15.3482 33.7617 15.4145C33.7617 15.4811 33.9118 15.5476 33.9973 15.5476C34.0828 15.5476 34.318 15.3701 34.318 15.3701C34.318 15.3701 34.4251 15.0596 34.3396 15.0818C34.2537 15.1038 34.0828 15.2369 34.0616 15.1038C34.0399 14.9708 33.7835 15.0372 33.7835 15.0372L33.4412 15.082Z" fill="#3498DB"/>
<path d="M34.5105 14.8375C34.5105 14.9039 34.4681 14.9926 34.596 15.0149C34.725 15.0369 34.9602 14.9263 34.9813 15.0593C35.003 15.1922 35.003 15.2812 35.1739 15.3478C35.3448 15.4142 35.4521 15.4364 35.5804 15.4364C35.7084 15.4364 35.987 15.3918 35.987 15.3918C35.987 15.3918 36.2896 15.4402 36.3504 15.5029C36.5856 15.7467 36.7353 15.8132 36.7994 15.7024C36.8637 15.5914 36.7782 15.3477 36.7569 15.259C36.7353 15.17 36.4358 14.7488 36.3288 14.8375C36.2221 14.9263 36.2007 14.8375 36.008 14.9039C35.8155 14.9704 35.409 14.9263 35.3878 14.8375C35.3665 14.7487 35.067 14.7047 35.067 14.6157C35.067 14.5269 34.8533 14.4162 34.8745 14.5492C34.8957 14.6821 34.7248 14.7487 34.6814 14.7046C34.639 14.6601 34.5105 14.8375 34.5105 14.8375Z" fill="#3498DB"/>
<path d="M39.4314 11.9984L39.5814 11.5109C39.3677 11.4664 39.4101 11.2226 39.4101 11.2226C39.3889 11.0229 39.0894 10.8013 38.9824 10.8678C38.8756 10.9341 38.9181 10.4019 38.9181 10.4019C38.9181 10.4019 39.1108 10.2691 39.1963 10.3356C39.2819 10.4019 38.4691 9.22685 38.2978 9.33773C38.1269 9.44861 37.742 9.22685 37.7633 9.02713C37.7846 8.82772 36.9932 8.16232 36.9932 8.16232C36.9932 8.16232 36.7364 7.98517 36.6938 8.11821C36.6509 8.25115 36.5654 8.33998 36.6938 8.40624C36.8219 8.47291 36.8005 8.29546 36.9501 8.45055C37.0998 8.60574 37.3783 8.80546 37.2712 8.9385C37.1642 9.07175 37.0357 9.11606 37.0357 9.11606L37.1857 9.29352H37.421L37.4638 9.67027C37.4638 9.67027 37.7203 9.80342 37.7846 9.95861C37.8488 10.1137 37.8488 10.2025 37.7846 10.2914C37.7203 10.38 37.5924 10.5352 37.6136 10.6903C37.6349 10.8455 37.8062 10.912 37.8062 10.912L37.9771 10.9343L38.1056 11.001V11.2894C38.2765 11.2449 38.5545 11.4886 38.5334 11.644C38.5121 11.7992 38.5758 11.7105 38.7897 11.8658C39.004 12.021 38.9398 12.0432 39.0895 12.1541C39.2393 12.2647 39.3677 12.1982 39.4314 11.9984Z" fill="#3498DB"/>
<path d="M35.9016 8.98321C35.8803 8.89437 35.8373 8.58378 35.9658 8.60593C36.0941 8.6284 36.0087 8.60593 36.1584 8.6726C36.3081 8.73928 36.3294 8.56182 36.3294 8.56182H36.5649L36.8642 8.80554L36.8213 9.00524L36.6074 9.02719C36.5007 8.85005 36.2866 8.91652 36.3294 9.07182C36.3722 9.22692 36.2226 9.51525 36.1372 9.53729C36.0516 9.55955 35.7731 9.55955 35.7948 9.42662C35.8161 9.29358 35.9016 8.98321 35.9016 8.98321Z" fill="#3498DB"/>
<path d="M35.7304 8.38385V8.2066C35.7304 8.2066 35.7087 8.02925 35.602 8.02925C35.4953 8.02925 35.3027 7.89631 35.3451 7.80749C35.3883 7.71865 34.9817 7.63003 34.9817 7.63003C34.9817 7.63003 34.6183 7.27523 34.7465 7.31974C34.8749 7.36405 34.8108 7.16434 34.8108 7.16434C34.8108 7.16434 34.5539 7.20865 34.4897 7.1866C34.4254 7.16434 34.4467 6.96484 34.4467 6.96484C34.4467 6.96484 34.1904 6.89827 34.1904 6.96484C34.1904 7.03141 34.2759 7.03141 34.3183 7.16425C34.3614 7.29718 34.34 7.51916 34.5328 7.56336C34.7253 7.60788 34.7678 7.65198 34.7895 7.74082C34.8108 7.82965 35.046 7.8517 35.046 7.8517L35.2173 7.94032L35.7304 8.38385Z" fill="#3498DB"/>
<path d="M33.3569 5.94491L33.1856 5.90102V6.10063L33.4205 6.12258L33.3569 5.94491Z" fill="#3498DB"/>
<path d="M33.3562 5.1912C33.1326 5.01782 33.6554 5.32434 33.6554 5.32434C33.8264 5.32434 33.9335 5.45739 33.9335 5.52406C33.9335 5.59053 34.1688 5.56838 34.1688 5.56838L34.1906 5.41298L34.0191 5.19121L33.8696 5.08064C33.8696 5.08064 33.6344 5.05838 33.6344 4.99181C33.6343 4.92545 33.4417 5.25787 33.3562 5.1912Z" fill="#3498DB"/>
<path d="M37.2914 5.32395C37.2289 5.51802 37.2059 5.78975 37.0988 5.78975C36.9921 5.78975 37.0346 6.07829 37.0346 6.07829C37.0346 6.07829 37.3131 6.07829 37.3986 6.10024C37.4839 6.12219 37.4839 6.34395 37.4839 6.34395C37.805 6.32201 37.9335 6.76544 37.8904 6.87632C37.8476 6.9871 38.0189 6.9871 38.0189 6.9871C38.0189 6.9871 38.0189 7.34201 37.9758 7.43054C37.9334 7.51937 38.2541 7.58593 38.3396 7.71887C38.425 7.85202 38.2965 8.29544 38.2326 8.3176C38.1685 8.33986 38.4035 8.40622 38.3823 8.51711C38.3606 8.6282 38.4465 8.51711 38.4678 8.69467C38.4891 8.87192 38.5321 9.24888 38.5321 9.24888L38.8313 9.27125C38.8744 8.98301 39.4258 8.97194 39.516 9.00506C39.8796 9.1381 40.1581 9.71467 40.1581 9.84761C40.1581 9.98054 39.9224 10.003 39.9224 10.003L39.9655 10.6458C40.3289 10.7568 40.6285 11.2892 40.5858 11.3778C40.543 11.4664 40.8422 11.4445 40.8422 11.4445C40.8852 11.0451 41.2488 11.1782 41.2699 11.3113C41.2918 11.4445 41.3555 11.7327 41.3555 11.7327L41.4626 11.932L41.6123 12.0873L41.8475 12.0652L41.9118 12.1983L42.1899 12.2428C42.1899 12.2428 42.4255 12.5086 42.4467 12.5754C42.4683 12.6417 42.789 12.6197 42.8744 12.6417C42.9599 12.664 43.0885 12.7306 43.1096 12.8414C43.1313 12.9523 43.2597 13.1297 43.2597 13.1297C43.2597 13.1297 43.5162 13.1964 43.5378 13.2849C43.5591 13.3734 43.6662 13.5731 43.6662 13.5731L43.8797 13.7506L43.9012 13.9503L44.1364 13.9724L44.2008 14.2382L44.5855 14.2163L44.7998 14.0611C45.0779 13.906 45.2704 13.7063 45.2919 13.6174C45.3131 13.5288 45.3559 13.1964 45.5699 13.2628C45.7837 13.3294 45.6342 12.7749 45.6342 12.7749C45.6342 12.7749 45.3347 12.5531 45.3559 12.442C45.3774 12.3314 45.0567 12.1097 45.0779 12.0209C45.0991 11.932 44.7998 11.7549 44.8211 11.6662C44.8423 11.5773 44.6714 11.3333 44.6714 11.3333L44.3503 11.023L44.3074 10.8233L44.051 10.8013L43.5377 10.1582L43.559 9.98065L43.4093 9.95859V9.71478L43.2598 9.62594L43.0241 9.60379L42.5537 9.07174L42.5109 8.82771H42.2757L42.3183 8.36192C42.4683 8.1623 42.3825 7.78535 42.3825 7.78535C42.3825 7.78535 42.0827 7.94054 41.9334 7.87397C41.7834 7.80771 41.9973 7.65221 41.9973 7.65221V7.47496L41.8692 7.34192C41.8692 7.34192 41.5053 7.38644 41.4841 7.31997C41.4626 7.2534 41.3986 6.96506 41.3986 6.96506L41.3771 6.58799L41.2276 6.52173L41.2058 6.38848L40.9708 6.41053V6.14455L40.8423 6.10024L40.7141 6.03367L40.6927 5.76748L40.2221 5.74553L40.0724 5.52377L39.9014 5.25759L39.3666 5.21328L39.2381 5.08045L39.0243 5.03593L38.8746 4.96936L38.8104 5.08045L38.4038 5.1024L38.3826 5.23544C38.1688 5.34632 37.3132 5.25749 37.2914 5.32395Z" fill="#3498DB"/>
<path d="M39.5382 4.74825C39.5043 4.5732 39.9664 4.41561 40.0731 4.54853C40.1803 4.68157 40.4796 4.70414 40.5225 5.36934C40.5376 5.60752 40.1374 5.12542 40.1374 5.12542L39.8163 5.01453C39.6453 4.97001 39.5595 4.85945 39.5382 4.74825Z" fill="#3498DB"/>
<path d="M33.147 4.96513L33.264 5.01916L33.3498 4.81955L33.2328 4.76552L33.147 4.96513Z" fill="#3498DB"/>
<path d="M32.1582 2.84107L31.8795 2.55274V2.30881L31.7941 2.21987L31.7086 1.90959L31.4305 1.82096L31.1525 1.93164L30.8529 2.13125L30.5322 2.17588L30.3609 2.37528L31.0455 2.44154L31.1736 2.66362L31.6661 2.70793L31.9866 3.04047C32.2653 3.12931 32.3292 2.99617 32.1582 2.84107Z" fill="#3498DB"/>
<path d="M32.1157 1.75408C32.0686 1.55917 31.7946 1.9979 32.0733 2.08641C32.3513 2.17555 32.629 2.08641 32.629 2.08641L32.6933 1.95347L33.7625 1.97573C33.8486 1.8869 33.891 1.75397 33.891 1.75397C33.891 1.75397 34.1479 1.66514 34.2545 1.70945C34.3617 1.75397 34.2763 1.39916 34.169 1.44347C34.0623 1.48778 33.8484 1.46562 33.8484 1.46562H33.4632C33.442 1.31054 33.0997 1.37679 33.0783 1.46562C33.0566 1.55425 32.9288 1.5764 32.9288 1.5764L32.4367 1.62092C32.3938 1.75407 32.1374 1.84269 32.1157 1.75408Z" fill="#3498DB"/>
<path d="M29.9976 5.49613C30.3266 5.60273 30.4466 5.52383 30.4684 5.43521C30.4897 5.34638 30.5108 5.32411 30.6394 5.30216C30.7676 5.2799 30.6179 5.01383 30.4897 5.03597C30.3611 5.05813 30.2328 4.99166 30.2116 4.88078C30.1897 4.77001 29.976 4.48167 29.9547 4.70354C29.9334 4.9253 29.805 4.9253 29.8263 5.08051C29.8479 5.23539 29.9121 5.46813 29.9976 5.49613Z" fill="#3498DB"/>
<path d="M27.5384 5.74587C27.523 5.66739 27.9662 5.65725 28.0305 5.72351C28.0948 5.79018 28.0518 5.90096 28.2444 5.90096C28.4366 5.90096 28.3512 6.03411 28.3298 6.10068C28.3086 6.16715 28.0949 6.14499 28.073 6.07874C28.0518 6.01206 27.7307 5.98959 27.7307 5.98959C27.7307 5.98959 27.5597 5.85644 27.5384 5.74587Z" fill="#3498DB"/>
<path d="M34.6353 1.31102L34.6796 1.27382L34.8944 1.09626L34.8137 0.992481L34.6444 1.13252L34.5355 1.01955L34.4447 1.1135L34.594 1.2687L34.6353 1.31102Z" fill="#3498DB"/>
<path d="M33.6685 0.723683L33.9044 0.56828L33.8358 0.456142L33.6342 0.588763L33.4971 0.500244L33.4295 0.613114L33.6009 0.723683L33.6342 0.746153L33.6685 0.723683Z" fill="#3498DB"/>
<path d="M33.0031 5.4924L33.111 5.42133L32.9617 5.17783L32.9446 5.15066L32.9133 5.14752L32.6996 5.12453L32.6865 5.25726L32.87 5.27607L33.0031 5.4924Z" fill="#3498DB"/>
<path d="M25.8694 11.3333L25.8913 11.5774H26.2118C26.3402 11.5774 26.105 11.4222 26.105 11.4222C26.105 11.4222 25.8482 11.4444 25.8694 11.3333Z" fill="#3498DB"/>
<path d="M26.3593 11.2381L26.2773 11.3405L26.4057 11.451L26.4877 11.3485L26.3593 11.2381Z" fill="#3498DB"/>
<path d="M22.4707 7.09779L22.3798 7.19186L22.508 7.32498L22.5989 7.23092L22.4707 7.09779Z" fill="#3498DB"/>
<path d="M28.5037 35.9503L28.673 35.7747L28.5934 35.7329L28.3797 35.6221L28.3222 35.7413L28.4563 35.8102L28.4119 35.8562L28.5037 35.9503Z" fill="#3498DB"/>
<path d="M26.8805 34.3607L26.9551 34.2531L26.8725 34.1914L26.937 34.136L26.8553 34.0336L26.7263 34.1444L26.6628 34.1998L26.7303 34.2499L26.8805 34.3607Z" fill="#3498DB"/>
<path d="M42.8441 29.9293C42.8158 29.8163 42.6911 29.7699 42.677 29.7652L42.6361 29.8917V29.8909C42.6463 29.8948 42.6611 29.9028 42.6759 29.9127L42.7022 30.0277C42.6926 30.0424 42.6821 30.0562 42.6738 30.0661L42.768 30.1561C42.8366 30.0781 42.862 30.0023 42.8441 29.9293Z" fill="#3498DB"/>
<path d="M42.8326 29.4948L42.8488 29.2952L43.0575 29.3286L43.0413 29.5105L42.8326 29.4948Z" fill="#3498DB"/>
<path d="M47.9992 27.7816C48.0906 27.7225 48.2076 27.615 48.1917 27.8649C48.1755 28.1142 48.0793 28.0314 47.9992 28.1142C47.919 28.1975 47.8708 27.8649 47.9992 27.7816Z" fill="#3498DB"/>
<path d="M49.0878 26.8405C49.086 26.8361 49.0849 26.8207 49.084 26.8095C49.0812 26.773 49.0765 26.7231 49.0511 26.6708L48.9365 26.7302C48.9507 26.7599 48.9535 26.7913 48.956 26.8214C48.9592 26.8602 48.9634 26.9046 48.9998 26.9328C49.0228 26.9506 49.0518 26.9557 49.0864 26.949L49.0619 26.8202C49.0718 26.8218 49.0848 26.831 49.0878 26.8405Z" fill="#3498DB"/>
<path d="M48.8022 26.9496C48.8347 27.0844 48.8823 27.2172 48.8844 27.2227L49.0048 27.1759C49.0039 27.1747 48.9572 27.0447 48.9265 26.917L48.8022 26.9496Z" fill="#3498DB"/>
<path d="M48.335 27.4727L48.2072 27.4596C48.1972 27.5642 48.2216 27.6935 48.3227 27.7145L48.3478 27.5841C48.3487 27.5841 48.3499 27.5849 48.3503 27.5849C48.3399 27.5755 48.3304 27.5219 48.335 27.4727Z" fill="#3498DB"/>
<path d="M47.7727 24.8268C47.766 24.7842 47.741 24.7511 47.7025 24.7336C47.6075 24.691 47.4474 24.7615 47.369 24.8159L47.44 24.9266C47.5212 24.8704 47.6279 24.8433 47.6517 24.8558C47.6496 24.855 47.6467 24.8511 47.6459 24.8485L47.7727 24.8268Z" fill="#3498DB"/>
<path d="M41.8481 17.7423C41.7626 17.8311 41.57 17.8754 41.57 17.8754L41.5057 18.1194L41.399 18.208C41.399 18.208 41.4202 18.2744 41.399 18.4297C41.3776 18.5848 41.185 18.6737 41.185 18.6737L41.0995 18.7845C41.0995 18.7845 40.5839 18.8131 40.522 18.7845C40.3294 18.6959 40.4579 18.4297 40.5863 18.4519C40.7144 18.4742 40.5646 18.0748 40.5646 18.0748L40.736 18.0528C40.736 18.0528 40.7572 17.6535 40.8215 17.6535C40.8857 17.6535 40.8002 17.5205 40.7143 17.4539C40.6288 17.3877 40.5219 17.1659 40.4361 17.188C40.3506 17.21 40.0083 17.188 40.0083 17.188L39.9441 17.3211L39.7087 17.3653C39.7087 17.3653 39.7289 17.5368 39.6878 17.5872C39.559 17.7423 39.0673 18.0749 39.2809 17.5206L39.3449 17.3878V17.1881L38.9603 17.1661C38.9603 17.1661 38.7678 17.0994 38.7678 17.0107C38.7678 16.922 38.7463 16.8113 38.7463 16.8113L38.2969 16.3013L37.7624 16.2348L37.7194 16.1238L37.3989 16.0794C37.0135 15.88 36.6712 16.0573 36.7355 16.3899C36.7996 16.7228 36.9064 16.8557 36.6929 16.8557C36.4786 16.8557 36.436 16.6784 36.436 16.6784C36.436 16.6784 36.2651 16.6117 36.2651 16.7003C36.2651 16.7892 36.2008 16.9665 36.2651 17.0551C36.329 17.1438 36.1792 17.2769 36.115 17.2103C36.0513 17.1438 35.88 16.9446 35.9228 16.878C35.9655 16.8114 35.623 16.3899 35.9655 16.3235C36.3079 16.2569 35.9441 16.0573 36.0727 16.0132L36.2435 15.9243H36.4145L36.5216 15.8355L36.2435 15.7914L36.0727 15.7692L35.7516 15.747C35.4309 15.9688 35.3669 16.235 35.3669 16.235C35.1954 16.5675 34.7893 16.1018 34.9391 15.9245C35.0886 15.747 34.4683 15.9022 34.3612 15.9909C34.2541 16.0795 33.9333 16.0352 33.9333 16.0352C33.8692 16.235 33.5698 16.0133 33.6552 15.8801C33.7408 15.7471 33.7408 15.6584 33.7408 15.6584L33.634 15.6361L33.5058 15.88C33.2063 15.88 33.1205 16.0573 33.1846 16.1683C33.2487 16.279 33.0991 16.1461 33.0562 16.3013C33.0137 16.4565 33.0778 16.4565 33.2063 16.5231C33.3347 16.5897 33.142 16.5897 33.2276 16.7003C33.313 16.8114 33.5698 16.7003 33.4202 16.8557C33.2705 17.0108 32.9707 16.9446 32.9707 16.9446C32.9494 17.1438 32.5429 17.0997 32.5005 17.0332C32.4574 16.9666 32.1368 16.5674 32.1368 16.5674L31.7298 16.5452C31.6874 16.235 31.9226 16.39 32.0081 16.1461C32.0941 15.9021 32.1368 15.5032 32.1368 15.5032C32.1368 15.5032 31.7942 15.481 31.7729 15.5918C31.7517 15.7028 31.5377 15.7693 31.5377 15.7693C31.5377 15.7693 31.3664 15.8356 31.4306 15.9245C31.4948 16.0133 31.3022 16.0573 31.3022 16.0573C31.3022 16.0573 31.3355 16.2006 31.2809 16.2569C31.11 16.4346 30.6819 16.279 30.6179 16.2126L30.3611 16.1017L30.1043 15.9244L29.805 16.0572L29.7195 16.146H29.3984L29.3772 16.4118L29.9548 16.4783L29.9976 17.0271L29.762 16.9443H29.6123L29.5483 16.8111L29.4198 16.7889V17.2766L29.5483 17.3877L29.6555 17.4983L29.8694 17.5205L29.9122 17.7865L30.4468 17.809L30.511 17.9196L30.8321 17.9419L31.4524 18.5847L31.4095 18.7845L31.3024 18.851C31.3454 19.0062 31.0246 18.9176 31.0246 18.9176V19.0504L31.1739 19.0726L31.324 19.1612L31.5378 18.7843C31.773 18.6292 31.8797 18.8509 31.9015 18.984C31.9227 19.117 31.7942 19.0947 31.7942 19.0947V19.4054L31.9227 19.4495C32.1369 19.7157 31.8372 19.871 31.8372 19.871L31.7729 20.0927C31.7086 20.2923 31.4735 20.2478 31.4735 20.2478L31.3882 20.3809L31.1311 20.4475L31.639 20.514C31.6873 20.3365 31.8153 20.2922 31.8795 20.3809C31.9439 20.4698 31.9439 20.625 31.9439 20.625L32.0727 20.6471L32.0509 20.8909L32.1794 20.9355V21.645L32.3291 21.8223C32.5858 21.7117 32.5858 21.889 32.4573 21.9775C32.3291 22.066 32.4145 22.4655 32.4145 22.4655L32.3075 22.5761V22.7537L32.1793 22.8423V23.0861C31.9652 22.9754 31.7085 23.0195 31.6441 23.0861C31.452 22.953 31.0455 22.9975 31.0455 23.1085C31.1736 23.2859 30.896 23.3303 30.896 23.3303L30.7459 23.5076C30.853 23.7295 30.6392 23.7514 30.6392 23.7514V24.1729L30.3823 24.4168L30.404 24.9934C30.404 25.1486 30.7247 25.1707 30.7886 25.082C30.8529 24.9934 31.1098 25.2596 31.1098 25.2596H31.302L31.345 24.8603L31.2165 24.7937V24.1506L31.4305 23.9065C31.6873 23.8179 31.6018 24.4834 31.6018 24.5499C31.6231 24.7937 31.7297 24.7716 31.837 24.7271C32.0508 24.6385 31.8794 24.9714 31.7086 24.9489C31.5376 24.9269 31.6442 25.1707 31.6442 25.1707L31.7515 25.2152L31.5588 25.3704L31.3881 25.5701L31.1736 25.5034L30.9173 25.4815L30.8317 25.3259L30.6816 25.3038L30.6604 25.6141L30.5536 25.7471L30.2968 26.0136C30.6392 26.0136 30.2538 26.257 30.1684 26.257C30.3609 26.3236 30.1471 26.5234 29.6551 26.3683V26.5233L29.4838 26.5456L29.6339 26.7227L29.8047 26.745L29.7405 27.1219C29.7405 27.4102 29.0347 27.2104 28.9704 27.1441L28.9491 27.5433L28.8207 27.5652L28.842 27.8315L28.8207 28.2086L29.0559 28.1642V28.3195L29.6338 28.3418L30.468 27.4323L30.9599 27.3216C31.0025 27.0996 31.2163 27.3661 31.2163 27.3661C31.4303 27.3434 31.4731 27.4989 31.4731 27.4989L31.7514 27.5433C31.9864 27.61 31.8444 27.6333 31.8582 27.721C31.8793 27.8538 31.9864 27.8094 31.9864 27.8094L32.0295 27.5212L32.1579 27.5433L32.0295 27.388L31.7938 27.2769L31.5374 27.1662C31.3661 26.9224 31.5801 26.9668 31.7514 26.9891H32.0294C32.0294 26.9891 32.3505 27.4323 32.3505 27.5433C32.3505 27.6544 32.5002 27.6766 32.5002 27.6766L32.6924 27.6543L32.7567 27.8093H32.9492L33.0135 27.9421H33.3986L33.42 27.7427L33.0559 27.6766L33.0348 27.4545L32.7783 27.3879C32.6924 27.0113 32.8422 26.9002 32.9492 27.0778L33.0775 27.0996L33.0346 26.7669L33.1843 26.7225L33.1416 26.2567L33.0134 26.2127V26.0573L33.5479 26.0799C33.5055 25.7913 33.5695 25.6583 33.5695 25.6583H33.7192L33.7405 25.7695L34.395 25.8325L34.8577 25.2903C34.8344 25.249 34.9042 25.2237 34.8534 25.1705C34.789 25.104 34.7033 25.1705 34.5959 25.104C34.4892 25.0379 34.5959 24.6606 34.5747 24.572C34.5534 24.4833 34.9388 24.3499 34.8745 24.5498C34.8103 24.7495 34.8745 24.8381 34.8745 24.8381C35.1526 24.572 35.3879 24.8601 35.3666 24.9268C35.3447 24.9932 35.5161 25.0598 35.6229 24.9932C35.7301 24.9268 35.8584 25.193 35.8156 25.3257C35.7725 25.4587 35.3879 25.4368 35.3666 25.3036C35.3448 25.1705 35.2805 25.215 35.2382 25.2816C35.1951 25.3481 35.003 25.3922 34.8958 25.3257C34.8741 25.3122 34.8637 25.301 34.8577 25.2903L34.395 25.8325L34.425 25.8357C34.6815 25.9911 34.5534 26.1906 34.4681 26.2349C34.3822 26.2793 34.2324 26.2793 34.2324 26.2793L34.19 26.3681L33.6337 26.4122L33.5906 26.6342C33.3126 26.5894 33.2059 26.9002 33.2701 27.0552C33.3344 27.2102 33.2701 27.3434 33.2701 27.3434L33.5054 27.4545L33.8046 27.3661C33.8476 27.144 34.0398 27.0996 34.2112 26.9668C34.382 26.8337 34.6605 27.2102 34.5746 27.3879C34.4891 27.5651 34.4891 27.6317 34.4891 27.6317L34.5103 27.8314L34.2966 27.92L34.1256 28.0088L34.1038 28.1198H33.5264L33.4197 28.2305L33.1414 28.2531L33.0555 28.386L32.8634 28.4082C32.8634 28.4082 32.5423 28.5635 32.6708 28.7409C32.7991 28.9184 32.1362 28.8962 31.9861 28.652C31.9432 28.8736 31.708 28.6742 31.708 28.6742L31.4728 28.6075L31.4515 28.2753C31.4087 28.0533 31.0022 28.0533 31.0238 28.2087C31.0451 28.364 30.2533 28.2753 30.2533 28.2753L29.9969 28.4026L29.7613 28.5414L29.7401 28.652L29.3548 28.6964L29.1839 28.7853L29.1198 28.6521H28.9488L28.7775 28.8963C28.3284 28.9185 27.9006 29.1846 27.9433 29.2955C27.9861 29.4062 27.7724 29.5176 27.7724 29.5176L27.5796 29.5833L27.4516 29.7831L27.1948 29.872L27.1518 30.3379L27.0237 30.4263V30.6261L26.8737 30.6701V30.7812L26.6599 30.8033L26.7879 31.1361L26.9596 31.2249C27.259 31.2689 27.1305 31.6463 27.1305 31.6463L27.3015 31.6681L27.3874 31.9119L27.5582 32.2668C27.6226 32.5332 27.8151 32.4666 27.9006 32.4444C27.9861 32.4226 28.0715 32.7104 28.0715 32.7104L28.927 32.7327C28.927 32.7327 28.8846 32.8215 29.0343 32.8658C29.1838 32.9098 30.1679 32.9546 30.2109 32.8881C30.1679 32.6883 30.7453 32.6438 30.9809 32.8214C31.2159 32.9985 31.537 32.8881 31.537 32.8881L31.8578 33.2868L32.0722 33.7748L32.4356 33.8855L32.6921 33.9522L32.778 34.3292L32.9701 34.3514L33.0344 34.5955C33.2699 34.7728 32.9701 35.1499 32.9701 35.1499V35.6375L33.1414 35.7263L33.1198 35.904L33.3983 36.1918L33.719 36.2144L34.532 37.1012L35.1735 37.3006L35.2803 37.6556L35.4518 37.6333L35.58 37.5226L36.0933 37.5005L36.3502 37.2562L36.6282 37.2122L39.0027 35.1498L38.7884 35.0167V34.529C39.1736 34.2408 39.1949 33.7305 38.8313 33.6862C38.5555 33.6525 38.6818 33.3535 38.9386 33.3092L39.0881 33.243V33.0431L39.5801 32.5778V32.2229L38.5108 31.3134C38.04 31.1363 38.5108 30.0716 38.8313 30.0939C39.1524 30.1157 38.8101 28.453 38.8101 28.453L38.6387 28.3645L38.6818 27.832H38.4466L38.0614 28.3423L37.9546 28.6968C37.9118 29.163 36.5854 29.0738 36.5211 29.0072C36.4569 28.9407 36.0078 28.7412 36.0078 28.7412C36.0078 28.7412 35.6655 28.453 35.6013 28.5418C35.5371 28.6307 35.2379 28.4307 35.2379 28.4974C35.2379 28.564 34.9598 28.3424 34.9598 28.3424L34.5321 28.187L34.8532 28.1204L34.7889 27.8544L35.3446 28.1426C35.4089 28.231 35.6869 28.2093 35.6869 28.2093L35.7724 28.3203C35.7724 28.3203 35.9438 28.2977 36.0511 28.4309C36.1578 28.5641 36.7138 28.4532 36.7138 28.4532L36.8635 28.586L37.0987 28.6749L37.7621 28.6971L37.7834 28.2761L37.9118 28.1429L37.8904 27.8765L38.0401 27.7437V27.5221L38.1685 27.4777L38.1898 26.9901L38.2965 26.9678V25.9033L37.9757 25.5927C37.9546 25.7038 37.6123 25.7038 37.6123 25.7038C37.6123 25.7038 37.5268 25.8588 37.4626 25.8588C37.3986 25.8588 37.5482 26.0582 37.5052 26.1914C37.4626 26.3243 37.2913 26.3243 37.2913 26.3243L36.9702 26.4132L36.8847 26.5242H36.5423L36.4999 26.236L36.8846 26.1249L37.0985 26.0143L37.2057 25.7922C37.2269 25.5708 37.4838 25.5927 37.4838 25.5927C37.4838 25.5927 37.9757 25.1713 37.997 24.9721C38.0188 24.7724 38.1898 24.218 38.4891 24.218H39.0454C39.2591 24.1291 39.195 23.8409 39.195 23.8409L39.4732 23.7968L39.516 23.952C39.516 23.952 39.9012 23.9963 39.9438 23.9298C39.9868 23.8635 40.0722 23.708 40.1794 23.7746C40.2862 23.841 40.6285 23.6193 40.6285 23.6193C40.6498 23.4641 41.1846 23.5306 41.1846 23.5306L41.2489 23.3311C41.2489 23.3311 40.8854 22.8211 40.8212 22.8211C40.7568 22.8211 40.4147 22.5104 40.3717 22.6214C40.0299 22.5328 40.051 22.0448 40.051 22.0448L39.9226 21.7346C39.9226 21.5569 39.6021 21.18 39.5375 21.2246C39.2164 20.9806 39.452 20.6923 39.5375 20.6701C39.623 20.6481 39.8372 20.3375 39.8372 20.3375L39.944 20.027L40.3076 19.9164L40.3505 19.6281L40.1583 19.6058C40.1583 19.6058 40.3718 19.2066 40.479 19.2066C40.5862 19.2066 41.2921 19.2066 41.3558 19.1621C41.42 19.118 41.5483 18.7632 41.5483 18.6966C41.5483 18.63 41.7198 18.6078 41.7836 18.5855C41.8478 18.5636 41.9975 18.3861 42.0403 18.2973C42.0832 18.208 41.9339 17.6535 41.8481 17.7423Z" fill="#3498DB"/>
<path d="M29.9976 25.7364C30.0296 25.7036 30.0619 25.8363 30.126 25.8197C30.1897 25.8031 30.2222 25.9362 30.1582 25.9362C30.0939 25.9362 30.0939 26.0195 30.0939 26.0527C30.0939 26.0861 30.0939 26.169 30.0456 26.2189C29.9975 26.2689 29.9492 26.2355 29.8849 26.2023C29.8209 26.169 29.7891 26.1691 29.7085 26.1691C29.6285 26.1691 29.6923 26.3022 29.6923 26.3022C29.6923 26.3022 29.3554 26.2856 29.4197 26.2355C29.4839 26.186 29.5482 26.1689 29.5002 26.1356C29.4519 26.1024 29.5002 26.0694 29.5002 26.0028C29.5002 25.9361 29.6607 25.9695 29.6122 25.9195C29.5644 25.8695 29.6132 25.6766 29.6923 25.7863L29.7407 25.6697C29.6923 25.62 29.7248 25.6031 29.6285 25.5704C29.5323 25.5371 29.6122 25.3374 29.6122 25.3374L29.6285 25.2043C29.6606 25.0384 29.9813 25.0214 29.9975 25.171C30.0133 25.3208 29.9975 25.4205 29.9975 25.4205L30.0939 25.4537C30.0939 25.4537 30.0776 25.554 29.9975 25.554C29.9169 25.554 29.9975 25.6032 29.9492 25.6534L29.9976 25.7364Z" fill="#3498DB"/>
<path d="M28.9385 25.9033C28.9868 25.8034 29.0989 25.3711 29.2275 25.5042C29.3554 25.6372 29.4358 25.5042 29.4358 25.5042C29.4358 25.5042 29.5001 25.5709 29.4679 25.7039C29.4358 25.8368 29.4036 25.97 29.3231 25.9866C29.2432 26.0032 29.1789 26.0532 29.0831 26.0698C28.9869 26.0865 28.9385 25.9033 28.9385 25.9033Z" fill="#3498DB"/>
</g>
<defs>
<clipPath id="clip0_1616_7903">
<rect width="66" height="57" fill="white"/>
</clipPath>
</defs>
</svg>
