<svg width="35" height="36" viewBox="0 0 35 36" fill="none" xmlns="http://www.w3.org/2000/svg">
<g id="Share Icons">
<circle id="Ellipse 13" cx="17.5" cy="18.4221" r="17.5" fill="#25D366"/>
<path id="Vector" d="M18 8.92206C22.9707 8.92206 27 12.9514 27 17.9221C27 22.8927 22.9707 26.922 18 26.922C16.4095 26.9246 14.847 26.5037 13.473 25.7025L9.00361 26.922L10.2204 22.4508C9.4186 21.0764 8.99736 19.5132 9.00001 17.9221C9.00001 12.9514 13.0293 8.92206 18 8.92206ZM14.9328 13.6921L14.7528 13.6993C14.6363 13.7064 14.5224 13.737 14.418 13.7893C14.3204 13.8445 14.2313 13.9137 14.1534 13.9945C14.0454 14.0962 13.9842 14.1844 13.9185 14.2699C13.5856 14.7027 13.4064 15.234 13.4091 15.7801C13.4109 16.2211 13.5261 16.6504 13.7061 17.0518C14.0742 17.8636 14.6799 18.7231 15.4791 19.5196C15.6717 19.7113 15.8607 19.9039 16.0641 20.083C17.0572 20.9573 18.2405 21.5878 19.5201 21.9243L20.0313 22.0026C20.1978 22.0116 20.3643 21.999 20.5317 21.9909C20.7938 21.9774 21.0498 21.9064 21.2814 21.7831C21.3993 21.7223 21.5143 21.6563 21.6261 21.585C21.6261 21.585 21.6648 21.5598 21.7386 21.504C21.8601 21.414 21.9348 21.3502 22.0356 21.2449C22.1103 21.1674 22.1751 21.0766 22.2246 20.9731C22.2948 20.8264 22.365 20.5464 22.3938 20.3133C22.4154 20.1351 22.4091 20.038 22.4064 19.9777C22.4028 19.8814 22.3227 19.7815 22.2354 19.7392L21.7116 19.5043C21.7116 19.5043 20.9286 19.1632 20.4498 18.9454C20.3997 18.9235 20.346 18.911 20.2914 18.9085C20.2298 18.9021 20.1676 18.9091 20.1089 18.9288C20.0503 18.9485 19.9965 18.9805 19.9512 19.0228C19.9467 19.021 19.8864 19.0723 19.2357 19.8607C19.1984 19.9108 19.1469 19.9488 19.0879 19.9696C19.0289 19.9904 18.9651 19.9932 18.9045 19.9777C18.8459 19.9619 18.7884 19.9421 18.7326 19.9183C18.621 19.8715 18.5823 19.8534 18.5058 19.8211C17.9893 19.5956 17.511 19.2911 17.0883 18.9184C16.9749 18.8194 16.8696 18.7114 16.7616 18.607C16.4075 18.2679 16.099 17.8843 15.8436 17.4658L15.7905 17.3803C15.7524 17.3228 15.7215 17.2608 15.6987 17.1958C15.6645 17.0635 15.7536 16.9573 15.7536 16.9573C15.7536 16.9573 15.9723 16.7179 16.074 16.5883C16.173 16.4623 16.2567 16.3399 16.3107 16.2526C16.4169 16.0816 16.4502 15.9061 16.3944 15.7702C16.1424 15.1546 15.8814 14.5417 15.6132 13.9333C15.5601 13.8127 15.4026 13.7263 15.2595 13.7092C15.2109 13.7038 15.1623 13.6984 15.1137 13.6948C14.9928 13.6888 14.8717 13.69 14.751 13.6984L14.9319 13.6912L14.9328 13.6921Z" fill="white"/>
</g>
</svg>
